<svg width="915" height="909" viewBox="0 0 915 909" fill="none" xmlns="http://www.w3.org/2000/svg">
<path d="M419.824 4.53113C350.285 17.1164 288.851 38.0207 235.311 67.8841C156.599 111.613 87.4869 184.565 48.6645 264.982C29.2533 304.871 20.721 336.441 8.13567 412.166C0.243211 459.734 -0.823337 471.253 0.456521 494.93C2.58962 530.126 14.1083 612.464 19.0145 627.182C25.4138 645.954 41.8386 677.95 61.2498 709.307C70.4221 724.238 82.5808 744.503 87.9135 754.528C93.8862 765.407 103.272 777.992 111.164 786.098C140.814 816.175 215.899 859.477 271.573 878.888C299.09 888.274 324.687 893.606 381.854 901.712C442.434 910.031 477.631 910.458 524.345 902.779C619.268 887.207 664.063 875.688 707.365 855.637C755.786 833.453 843.457 761.781 863.081 728.505C896.358 672.191 917.475 572.575 914.062 488.958C909.583 381.45 872.68 245.358 834.071 194.377C803.141 153.208 777.757 126.118 744.481 98.814C687.741 52.3124 690.087 53.8057 653.398 42.5002C525.839 3.0379 519.226 1.5448 479.55 0.264954C453.527 -0.375 443.928 0.264954 419.824 4.53113ZM527.545 16.4764C549.303 21.5959 658.091 53.1657 670.036 58.0718C688.381 65.3243 703.526 75.3499 725.71 94.3345C736.589 103.72 751.52 116.092 758.773 122.065C772.211 132.944 801.861 166.433 823.619 195.23C860.522 244.291 894.865 354.786 904.25 454.615C907.236 487.891 905.743 552.951 901.05 581.747C891.238 642.327 870.76 699.494 847.51 732.131C835.991 748.129 824.686 759.008 791.409 785.672C741.068 826.2 714.618 841.772 667.263 859.477C637.186 870.569 613.296 876.755 570.42 884.647C490.216 899.152 458.433 900.432 389.32 892.113C337.059 885.927 315.728 881.448 281.385 869.929C223.365 850.518 147.214 805.509 117.564 772.873C112.018 766.687 99.8589 748.342 90.6866 732.131C81.5142 715.919 69.3556 696.508 63.5962 688.616C38.2124 653.42 24.1339 608.411 15.8148 534.819C11.3353 496.85 11.5486 479.572 16.6681 433.497C27.5469 337.934 45.8915 279.914 81.7275 228.72C131.215 157.688 182.196 109.053 244.27 73.6434C285.865 49.9661 363.083 23.0891 411.291 15.6232C434.969 11.7836 510.054 12.4236 527.545 16.4764Z" fill="#E4542F"/>
<path d="M414.278 40.1539C367.136 43.1402 305.49 59.3517 259.415 81.1094C213.127 102.867 137.402 170.06 104.552 218.481C92.1799 236.826 88.3403 245.145 69.5691 294.632C46.9582 354.146 47.1715 353.719 44.3985 382.516C43.1187 396.168 40.1323 416.219 37.7859 426.885C35.4395 437.55 32.8798 457.388 32.2399 470.826C31.1733 491.944 31.8132 499.41 36.9327 525.22C40.1323 541.645 43.9719 564.469 45.4651 575.988C50.5845 612.677 54.6374 621.21 91.7533 674.537C98.1526 683.923 110.525 704.401 118.844 719.972C140.815 760.714 160.439 789.724 169.825 795.271C174.091 798.044 183.477 804.656 190.729 810.202C204.594 821.294 226.352 832.813 248.749 841.132C271.787 849.878 339.833 868.862 370.976 875.262C397.426 880.808 402.972 881.234 447.554 881.021C488.296 880.808 498.535 880.168 514.747 876.328C525.412 873.769 548.45 869.929 565.941 867.583C598.577 863.103 640.173 853.931 665.13 846.038C672.809 843.479 695.42 833.24 715.258 823.214L751.521 804.656L774.985 780.765C787.997 767.54 805.275 751.755 813.38 745.569C826.179 735.757 829.379 731.918 836.205 718.266C841.324 708.027 845.803 694.162 848.577 679.87C851.136 667.498 856.469 645.954 860.309 631.875C864.361 617.797 869.054 595.186 870.974 581.747C872.894 568.309 876.307 546.338 878.653 533.113C883.773 502.609 883.773 488.104 878.44 450.989C876.094 434.777 872.681 409.393 870.974 394.461C861.375 315.537 854.549 296.766 810.607 226.587C787.357 189.471 767.519 163.66 741.068 136.357C693.714 87.722 649.558 65.3245 567.434 48.6863C532.238 41.4338 457.793 37.3809 414.278 40.1539ZM513.68 50.8194C579.593 56.7921 651.052 79.4029 693.287 107.56C722.937 127.184 751.094 155.555 777.544 192.457C793.969 215.068 828.952 273.302 839.191 294.846C851.136 320.016 853.909 331.322 859.242 376.97C861.588 398.088 865.215 423.258 866.921 432.857C876.733 486.825 870.334 557.857 849.216 630.809C843.884 648.94 837.698 672.404 835.565 682.856C830.659 705.041 827.032 714.213 819.78 722.745C810.181 734.264 755.573 785.885 743.841 794.417C716.324 814.682 684.115 829.4 642.306 840.919C603.697 851.584 494.056 869.716 459.286 871.209C398.919 873.769 326.821 859.05 250.029 828.334C212.273 813.189 200.541 806.149 178.57 784.392C157.666 763.701 145.507 746.423 123.11 704.827C114.364 688.616 99.2191 664.512 89.4069 651.5C79.5946 638.275 69.7824 623.556 67.6493 618.65C59.5435 599.665 38.8525 480.639 41.1989 465.494C42.0521 460.801 45.2517 443.949 48.6647 428.164C52.0777 412.379 55.4906 393.608 56.1306 386.569C58.9036 362.892 64.023 344.12 77.8881 308.711C93.6731 268.822 107.965 238.532 119.91 220.827C137.188 194.59 167.265 163.874 208.647 130.171C263.681 85.3755 326.821 60.4183 406.812 51.6726C438.168 48.2596 482.11 47.8331 513.68 50.8194Z" fill="#E4542F"/>
<path d="M366.283 80.2562C360.951 82.3893 349.432 88.5753 340.686 94.3347C331.94 99.8807 309.543 112.039 290.772 120.998C253.442 138.916 231.045 154.915 192.436 192.031C171.745 211.655 165.985 220.401 165.985 232.346C165.985 239.172 165.132 240.025 157.88 242.158C134.416 249.198 91.5403 316.177 80.6615 362.678C78.5284 372.704 73.6223 388.062 70.2093 396.808C51.4381 443.736 59.9705 480.639 94.1 502.183L102.419 507.516L98.1529 511.995C91.1137 519.888 89.1939 525.434 89.1939 538.446C89.1939 557.004 93.4601 571.935 112.871 621.21C134.416 676.67 139.108 685.843 155.32 706.32C172.811 727.865 189.45 742.583 207.581 751.969C220.166 758.581 223.152 761.354 226.992 769.46C229.552 774.793 233.818 781.192 236.591 783.752C246.83 793.138 298.024 816.388 340.26 831.107C391.881 848.811 403.613 851.371 427.077 850.091C449.687 848.598 466.539 841.346 480.831 826.841C486.377 821.081 492.989 816.388 495.336 816.388C497.469 816.388 502.588 818.735 506.641 821.934C521.146 833.026 538.851 836.439 556.342 831.32C560.395 830.04 577.247 826.841 593.672 824.067C622.255 818.948 624.815 818.095 655.531 802.737C713.552 773.726 749.174 746.423 756 726.372C760.48 712.72 758.987 696.935 751.947 682.003L746.828 671.124L752.587 668.138C761.546 663.445 775.412 646.594 782.237 632.089C785.65 624.836 791.623 607.131 795.463 592.413C799.089 577.695 805.488 557.004 809.328 546.338C817.86 522.661 822.98 496.637 822.98 477.439C822.98 454.402 812.314 436.91 794.396 431.151L788.423 429.018L801.435 421.125C815.514 412.166 818.713 408.327 818.713 398.728C818.713 390.835 790.983 308.924 781.171 287.593C773.065 269.889 732.323 211.655 721.231 202.056C717.391 198.643 710.139 194.804 705.233 193.524C690.301 189.471 685.608 186.484 680.062 176.246C677.076 170.913 672.383 163.66 669.397 159.821C660.864 149.155 636.547 130.811 615.429 119.292C591.965 106.493 540.984 86.0156 517.093 80.0429C487.657 72.5771 464.193 78.1231 452.674 95.1879C449.687 99.8807 445.848 104.147 444.355 104.787C442.648 105.427 436.462 100.947 429.85 94.548C411.932 76.8433 388.468 71.5105 366.283 80.2562ZM412.998 93.0548C436.889 105.427 439.022 114.812 444.355 231.919C448.194 313.19 452.887 376.757 456.087 387.636C458.86 397.235 458.86 414.513 456.087 419.845C452.461 426.458 442.862 424.965 431.13 416.006C425.583 411.74 415.131 403.634 408.092 398.301C401.053 392.968 380.362 379.53 362.23 368.651C320.422 343.267 304.85 332.388 253.442 292.926C179.424 235.972 180.491 237.039 184.117 225.307C186.25 218.694 232.538 173.046 249.176 161.101C256.855 155.555 276.693 144.462 293.118 136.357C309.543 128.038 331.301 115.879 341.539 109.48C351.565 102.867 363.937 95.6145 369.056 93.2681C381.428 87.722 402.333 87.5087 412.998 93.0548ZM529.252 96.4678C557.836 105 599.218 123.131 623.322 137.423C632.707 143.183 647.852 154.915 657.025 163.66C670.89 176.886 673.663 180.725 673.663 186.271C673.663 194.804 672.81 195.87 604.977 269.462C543.33 336.441 523.279 360.119 506.001 386.996C499.815 396.381 492.563 405.767 489.79 407.687C482.964 412.593 475.925 411.953 472.298 406.194C469.099 401.287 464.193 369.504 460.353 326.842C458.646 306.791 451.821 162.594 450.967 127.611C450.754 116.519 450.967 116.092 461.42 106.493C484.03 86.0156 491.496 84.949 529.252 96.4678ZM711.205 207.389C724.217 215.921 758.347 264.556 773.918 296.979C789.063 328.762 807.195 387.422 804.635 397.235C803.995 400.221 800.155 405.127 796.103 408.113C780.744 419.845 749.814 426.031 655.531 436.697C634.414 439.043 596.445 444.376 571.274 448.429C507.281 458.881 501.308 458.454 496.616 443.949C494.269 436.91 494.696 434.99 503.655 416.432C508.988 405.34 517.307 390.835 521.786 384.009C548.237 345.4 670.676 214.641 689.021 205.682C696.487 201.843 703.526 202.483 711.205 207.389ZM192.223 259.863C197.129 262.423 227.205 284.18 258.775 308.284C322.981 357.132 345.806 373.344 373.962 389.769C405.746 408.327 415.131 415.366 421.957 425.605C428.996 436.057 430.063 443.309 425.37 447.149C423.664 448.429 413.851 450.562 403.613 451.842C379.935 454.402 362.017 457.175 342.179 461.441C316.369 466.774 222.939 481.279 177.291 486.825C110.312 495.144 99.0062 494.077 85.5677 478.719C75.7554 467.413 73.6223 458.668 74.9022 433.711C75.5421 417.072 77.2486 408.113 82.368 394.035C85.9943 384.009 91.1137 368.011 94.1 358.625C100.286 337.934 126.95 286.953 138.468 273.728C154.04 256.023 174.305 250.904 192.223 259.863ZM479.124 431.364C482.964 431.364 484.67 432.431 484.244 434.564C481.044 447.789 481.471 450.989 486.803 457.388C493.416 465.28 493.843 468.693 487.87 468.693C485.524 468.693 480.617 471.466 477.204 474.879C472.085 480.212 469.739 481.065 463.766 479.999C459.5 479.359 454.167 480.212 450.327 482.345L443.715 485.545L442.648 477.866C441.795 473.599 439.235 468.053 436.889 465.494L432.409 460.588L437.955 455.042C443.501 449.495 443.715 447.149 440.302 438.83C439.235 436.27 440.942 435.63 448.834 435.63C457.367 435.63 459.5 434.777 463.339 429.658C467.392 424.112 468.032 423.898 470.379 427.525C471.872 429.444 475.925 431.151 479.124 431.364ZM780.531 439.897C814.447 452.055 820.42 478.292 800.795 530.553C795.249 545.272 787.357 569.589 783.304 584.947C779.251 600.092 773.065 618.65 769.652 625.689C763.04 639.128 748.961 654.273 742.775 654.273C731.47 654.273 662.784 606.491 602.204 556.364C583.433 540.792 561.462 523.727 553.143 518.395C523.279 498.557 509.414 484.265 509.414 473.173C509.414 467.413 514.32 465.28 529.679 463.787C536.718 463.147 568.928 459.094 601.137 454.828C720.164 439.043 737.016 437.124 753.867 436.91C764.533 436.697 774.772 437.977 780.531 439.897ZM421.957 470.4C433.263 475.946 432.836 482.132 419.611 504.529C399.346 538.232 248.323 731.278 236.804 737.89C220.806 747.276 203.741 739.17 174.091 707.814C146.574 679.017 142.521 670.911 107.112 575.348C101.139 559.137 100.286 535.886 105.192 526.5C109.672 517.541 120.124 509.649 129.296 507.942C133.562 507.302 146.361 504.956 157.453 502.823C168.545 500.69 211.847 494.077 253.656 488.105C295.251 482.132 341.326 474.879 356.044 472.106C388.041 465.92 411.505 465.28 421.957 470.4ZM503.442 490.451C514.96 504.956 521.146 510.289 543.33 525.007C555.063 532.473 575.967 548.258 589.832 559.99C617.136 582.814 631.427 593.693 682.195 630.809C700.326 644.034 719.524 658.752 724.43 663.659C741.069 679.23 749.388 702.908 744.268 718.479C740.642 729.358 726.99 742.37 698.62 761.141C659.158 787.592 638.68 796.977 597.938 807.643C546.743 821.081 525.626 821.294 511.334 808.496C496.616 795.057 492.136 768.607 491.283 687.336C491.07 656.833 488.723 604.998 486.163 572.149C480.617 496.21 480.404 491.304 485.95 485.758C492.136 479.572 495.549 480.425 503.442 490.451ZM464.193 498.13C466.539 500.477 468.885 506.023 469.525 510.502C473.365 534.393 477.844 608.838 479.977 680.937C483.604 806.576 483.604 801.457 477.418 810.842C470.165 821.721 449.901 834.946 437.529 836.866C423.237 838.999 401.906 836.439 381.428 830.253C329.167 814.469 246.19 777.779 242.99 768.82C240.004 760.928 244.483 753.035 270.294 720.612C283.946 703.547 315.089 663.019 339.406 630.809C363.724 598.599 391.454 562.55 401.266 550.604C410.865 538.659 423.664 523.087 429.423 515.622C439.235 503.25 450.967 494.291 457.58 494.291C459.073 494.291 462.059 495.997 464.193 498.13Z" fill="#E4542F"/>
<path d="M379.508 136.783C376.308 140.622 373.748 161.527 376.521 161.527C378.228 161.527 385.694 140.836 385.694 135.93C385.694 132.943 382.281 133.37 379.508 136.783Z" fill="#E4542F"/>
<path d="M295.464 169.419C293.97 171.979 313.382 229.786 315.728 229.786C318.501 229.786 317.648 210.375 314.448 202.056C302.929 172.619 298.237 164.727 295.464 169.419Z" fill="#E4542F"/>
<path d="M390.174 177.312C388.681 179.019 385.055 189.257 382.068 200.35C374.176 229.36 373.963 230.426 377.376 229.36C381.215 228.08 397.427 178.805 394.654 176.032C393.587 174.966 391.881 175.392 390.174 177.312Z" fill="#E4542F"/>
<path d="M338.766 178.165C338.766 179.445 340.472 183.285 342.392 186.698C345.592 192.244 345.592 194.163 343.032 205.042C341.539 211.655 340.685 217.627 341.539 218.267C344.312 221.04 346.871 216.348 350.498 203.122C354.337 189.257 354.337 189.044 350.071 183.285C345.805 177.525 338.766 174.326 338.766 178.165Z" fill="#E4542F"/>
<path d="M414.705 208.028C415.345 214.641 416.411 222.534 416.838 225.52C417.904 230.639 418.118 230.639 421.104 226.8C426.65 219.121 423.877 199.709 416.838 197.15C413.851 195.87 413.638 197.363 414.705 208.028Z" fill="#E4542F"/>
<path d="M253.442 216.774C249.176 225.093 251.096 230.853 260.908 238.958C266.241 243.438 272 249.837 273.706 253.464C277.759 260.929 281.172 259.863 281.172 250.904C281.172 244.291 275.626 237.465 263.041 228.933C258.348 225.733 257.495 223.813 258.561 218.907C259.841 211.868 256.855 210.588 253.442 216.774Z" fill="#E4542F"/>
<path d="M413.638 258.157C409.585 263.276 408.731 273.515 411.291 285.887C412.571 292.499 414.491 298.472 415.344 298.899C416.197 299.539 416.837 289.94 416.837 277.781C416.624 265.409 416.411 255.384 416.411 255.384C416.197 255.384 414.917 256.663 413.638 258.157Z" fill="#E4542F"/>
<path d="M341.539 261.143C336.633 262.849 338.553 265.622 346.232 268.182C350.712 269.675 357.751 275.435 364.577 283.327C373.536 293.779 376.735 295.912 381.215 295.486C387.827 294.633 388.681 288.873 382.495 287.807C380.148 287.38 373.536 281.834 367.563 275.435C357.537 264.556 347.512 259.01 341.539 261.143Z" fill="#E4542F"/>
<path d="M311.035 301.032C311.035 305.938 346.871 327.909 354.977 327.909C360.736 327.909 362.23 327.055 362.23 323.642C362.23 320.23 360.736 319.376 355.404 319.376C350.284 319.163 344.311 316.177 334.499 308.711C320.847 298.259 311.035 295.059 311.035 301.032Z" fill="#E4542F"/>
<path d="M403.826 340.708C402.119 343.481 411.291 360.332 415.131 361.612C419.397 362.892 418.117 350.307 413.211 344.121C408.518 338.148 405.959 337.295 403.826 340.708Z" fill="#E4542F"/>
<path d="M482.537 138.276C479.763 141.263 478.27 146.809 477.844 157.048C476.99 170.06 477.417 171.979 482.537 177.952C488.936 185.631 500.028 190.324 502.374 186.484C503.014 185.205 502.588 183.711 501.308 183.285C500.028 182.858 495.762 180.512 491.922 177.739C485.949 173.899 484.883 171.766 484.243 163.234C483.816 157.688 485.096 150.008 486.803 145.529C492.135 132.944 490.216 129.744 482.537 138.276Z" fill="#E4542F"/>
<path d="M579.379 141.689C574.9 147.022 573.193 153.421 575.326 157.048C576.819 159.394 578.313 158.541 581.725 152.781C586.205 145.316 587.698 138.063 584.498 138.063C583.432 138.063 581.086 139.77 579.379 141.689Z" fill="#E4542F"/>
<path d="M527.972 164.94C524.559 168.353 526.692 178.165 532.024 183.071C540.557 191.177 546.316 202.056 549.942 216.774C554.209 234.266 559.755 237.679 557.835 221.68C555.915 204.402 551.862 194.164 543.97 184.991C540.13 180.298 536.077 173.899 535.224 170.699C533.731 164.94 530.531 162.38 527.972 164.94Z" fill="#E4542F"/>
<path d="M598.577 215.921C597.724 223.174 595.378 227.653 589.405 234.479C580.872 243.865 582.152 247.918 591.538 241.732C598.577 237.039 603.483 227.013 603.91 216.561C604.55 204.403 599.857 203.763 598.577 215.921Z" fill="#E4542F"/>
<path d="M503.441 234.692C498.108 240.238 497.255 246.851 501.734 246.851C503.228 246.851 505.787 245.358 507.28 243.651C512.827 236.825 516.879 240.025 523.065 256.236C526.265 264.982 530.958 273.941 533.091 275.861C536.931 279.274 537.144 279.274 537.144 274.368C536.931 271.595 533.518 260.503 529.038 250.05C521.786 232.346 520.719 230.853 514.746 230.213C510.054 229.786 506.854 231.066 503.441 234.692Z" fill="#E4542F"/>
<path d="M500.882 311.271C500.882 315.11 502.588 321.723 504.721 325.776C507.708 331.749 509.628 333.242 514.534 333.242C522.639 333.242 524.346 328.336 516.453 327.482C510.481 326.842 509.201 324.496 506.215 310.204C504.508 302.098 500.882 302.952 500.882 311.271Z" fill="#E4542F"/>
<path d="M655.318 275.008C644.013 292.499 641.453 298.898 646.572 296.765C649.772 295.699 667.263 270.528 670.036 263.276C670.89 260.929 670.463 259.649 668.33 259.649C666.623 259.649 660.864 266.689 655.318 275.008Z" fill="#E4542F"/>
<path d="M712.058 276.075C700.753 280.127 700.539 280.127 702.246 282.687C703.739 285.247 723.363 278.208 724.43 274.795C725.496 271.808 724.003 272.022 712.058 276.075Z" fill="#E4542F"/>
<path d="M680.488 326.415C670.249 331.535 652.331 348.6 652.331 352.866C652.331 357.132 656.171 356.279 664.703 349.666C668.969 346.253 678.142 339.427 684.967 334.521C691.58 329.402 697.126 324.496 697.126 323.429C697.126 320.229 690.087 321.509 680.488 326.415Z" fill="#E4542F"/>
<path d="M730.189 330.042C728.056 333.455 730.829 339.428 736.589 344.974C742.775 350.733 754.293 351.799 759.839 347.32C765.172 342.84 761.546 340.494 751.307 341.987C742.348 343.267 741.921 343.054 737.442 335.588C732.536 327.269 732.109 326.842 730.189 330.042Z" fill="#E4542F"/>
<path d="M584.712 356.492C577.459 361.825 570.207 368.224 568.287 370.997C562.527 379.103 560.181 390.621 562.954 397.661C565.087 403.207 565.514 403.42 567.007 399.367C568.073 397.021 568.927 392.328 568.927 388.915C569.14 382.729 574.473 376.756 594.311 359.692C603.27 352.012 605.616 347.106 600.497 347.106C599.003 347.106 591.964 351.372 584.712 356.492Z" fill="#E4542F"/>
<path d="M734.668 370.144C734.029 371.211 738.935 375.477 745.334 379.743L756.853 387.636V382.303C756.853 379.317 754.933 375.05 752.587 372.704C748.32 368.438 736.802 366.731 734.668 370.144Z" fill="#E4542F"/>
<path d="M668.117 383.583C665.557 387.635 682.408 390.835 702.033 389.982C705.446 389.769 707.366 383.583 704.166 383.156C697.127 381.876 668.97 382.089 668.117 383.583Z" fill="#E4542F"/>
<path d="M618.842 387.849C613.936 388.702 607.963 390.622 605.617 391.902C599.644 394.888 594.311 405.767 595.164 412.806C596.018 418.352 596.018 418.352 599.431 410.673C603.27 401.928 612.656 395.102 623.748 393.182C631.427 391.689 634.84 388.702 630.361 387.209C629.081 386.569 623.748 386.996 618.842 387.849Z" fill="#E4542F"/>
<path d="M156.386 305.938C142.521 313.19 125.456 334.095 125.456 343.907C125.456 351.159 131.855 346.467 137.188 335.375C143.374 322.149 149.987 317.03 167.691 311.91C174.517 309.777 178.784 307.431 178.784 305.511C178.784 301.245 164.705 301.458 156.386 305.938Z" fill="#E4542F"/>
<path d="M220.166 315.537C217.819 319.376 225.712 323.642 235.097 323.642C246.829 323.642 256.002 329.615 260.694 340.494C264.961 349.88 272 353.079 269.227 344.333C265.174 331.108 255.148 319.376 244.27 315.323C236.377 312.337 222.085 312.337 220.166 315.537Z" fill="#E4542F"/>
<path d="M184.33 346.893C181.557 351.372 184.97 352.866 199.901 354.146C218.246 355.639 232.111 361.611 238.724 370.357C244.27 377.823 247.043 378.676 247.043 372.917C247.043 366.517 238.937 357.985 227.418 352.226C215.26 346.04 186.89 342.413 184.33 346.893Z" fill="#E4542F"/>
<path d="M173.025 379.103C165.132 382.302 167.479 385.502 177.291 385.502C187.53 385.502 193.716 389.768 198.835 399.794C203.528 409.393 207.367 408.966 205.874 399.154C202.888 381.236 189.023 372.703 173.025 379.103Z" fill="#E4542F"/>
<path d="M266.24 387.635C266.24 388.702 270.72 391.901 276.052 394.461C282.025 397.234 288.211 402.353 291.624 407.046C297.597 416.005 299.943 417.072 301.65 412.166C303.783 406.62 298.023 396.167 289.918 390.621C282.238 385.502 266.24 383.369 266.24 387.635Z" fill="#E4542F"/>
<path d="M330.233 393.821C330.233 398.514 338.552 404.914 349.218 408.54C366.069 414.299 366.496 410.246 350.071 398.514C336.419 388.915 330.233 387.422 330.233 393.821Z" fill="#E4542F"/>
<path d="M125.029 401.927C113.084 414.299 109.458 420.912 113.084 423.045C114.577 423.898 116.923 422.618 118.843 419.845C120.763 417.286 125.882 410.886 130.362 405.554C134.628 400.221 137.828 394.888 137.188 393.822C135.481 391.262 135.908 390.835 125.029 401.927Z" fill="#E4542F"/>
<path d="M323.408 426.885C305.703 430.938 298.024 434.564 298.664 438.617C299.73 443.736 308.263 443.736 327.034 438.19C340.899 434.35 344.099 432.644 344.099 429.231C344.099 423.898 339.406 423.472 323.408 426.885Z" fill="#E4542F"/>
<path d="M164.065 431.364C149.347 436.696 145.294 439.683 144.227 446.082C143.161 452.481 147.64 452.268 156.386 445.229C164.918 438.403 166.838 437.763 183.69 435.63C191.795 434.563 193.928 433.497 193.289 430.724C192.222 425.178 179.637 425.391 164.065 431.364Z" fill="#E4542F"/>
<path d="M241.283 436.27C229.978 442.029 227.845 445.869 235.524 446.935C240.857 447.575 258.775 437.976 258.775 434.35C258.775 429.657 253.015 430.297 241.283 436.27Z" fill="#E4542F"/>
<path d="M610.522 479.145C604.336 481.918 601.137 485.118 599.43 489.811C596.657 497.916 599.217 500.049 604.55 493.863C611.589 485.971 621.614 483.198 637.186 484.691C650.411 486.184 651.051 485.971 647.851 482.558C644.438 479.145 631.853 475.092 623.534 475.092C621.188 475.092 615.215 477.012 610.522 479.145Z" fill="#E4542F"/>
<path d="M710.352 479.572C698.193 483.198 703.313 486.825 721.871 487.465C739.789 487.891 747.041 485.758 742.562 481.279C739.149 477.866 719.311 476.799 710.352 479.572Z" fill="#E4542F"/>
<path d="M734.455 511.142C732.749 514.128 742.988 525.007 745.761 523.301C749.387 521.168 748.96 518.395 744.054 513.488C739.361 508.796 736.375 508.156 734.455 511.142Z" fill="#E4542F"/>
<path d="M617.348 521.807C616.068 523.94 638.252 538.659 645.718 540.579C651.478 542.072 662.143 537.166 660.65 533.753C660.223 532.473 656.384 531.833 651.904 532.259C646.358 532.686 641.025 531.193 632.706 526.5C619.908 519.248 619.055 519.034 617.348 521.807Z" fill="#E4542F"/>
<path d="M694.993 547.191C694.993 553.164 721.444 564.683 725.283 560.843C728.909 557.217 724.003 552.737 712.698 548.898C701.819 545.058 694.993 544.631 694.993 547.191Z" fill="#E4542F"/>
<path d="M667.263 558.283C667.263 564.256 674.729 571.082 681.128 571.082C688.594 571.082 687.74 566.816 679.208 559.776C670.462 552.95 667.263 552.524 667.263 558.283Z" fill="#E4542F"/>
<path d="M697.126 598.599C697.126 602.012 709.925 609.478 715.897 609.478C722.51 609.478 729.122 605.851 729.122 602.225C729.122 600.305 726.349 599.452 720.163 599.452C715.044 599.665 707.791 598.812 704.165 597.959C699.259 596.679 697.126 596.892 697.126 598.599Z" fill="#E4542F"/>
<path d="M395.506 479.999C390.173 486.825 387.827 498.557 391.666 498.557C394.013 498.557 403.825 487.891 406.811 481.918C412.357 471.253 403.185 469.76 395.506 479.999Z" fill="#E4542F"/>
<path d="M317.862 497.064C305.276 500.477 297.81 507.516 298.664 514.982C299.517 523.301 305.703 523.941 308.476 515.835C311.249 507.942 315.515 505.596 330.447 503.676C343.459 501.97 350.071 499.197 348.365 496.21C346.658 493.651 329.38 494.077 317.862 497.064Z" fill="#E4542F"/>
<path d="M247.256 505.169C244.696 506.235 241.71 509.435 240.217 512.421C238.297 516.901 238.297 518.607 241.07 521.38C245.123 525.22 249.176 523.514 249.176 517.541C249.176 510.928 254.935 510.288 267.521 515.408C278.186 519.887 283.306 519.887 283.306 515.621C283.306 509.862 256.215 501.969 247.256 505.169Z" fill="#E4542F"/>
<path d="M376.095 517.755C370.336 526.927 357.964 536.953 346.872 541.219C333.86 546.338 328.1 554.017 337.273 554.017C353.698 554.017 391.027 522.874 386.974 512.422C385.054 507.089 381.855 508.796 376.095 517.755Z" fill="#E4542F"/>
<path d="M173.451 534.606C168.758 536.739 162.785 540.792 160.226 543.565C151.053 553.59 148.067 570.015 154.466 576.201C159.799 581.534 162.359 578.121 160.652 567.456C159.372 558.923 159.799 557.643 166.412 551.244C170.251 547.404 176.651 542.712 180.49 540.792C184.116 538.872 187.316 535.672 187.316 533.753C187.316 529.7 184.116 529.913 173.451 534.606Z" fill="#E4542F"/>
<path d="M201.608 549.324C199.688 551.457 196.488 559.563 194.568 567.455C191.369 580.041 191.369 582.6 193.929 589.64C195.635 594.119 198.621 597.959 200.754 598.385C203.954 599.025 204.167 597.532 203.101 583.454C201.821 570.015 202.248 566.389 206.3 558.923C208.647 554.017 210.78 548.897 210.78 547.618C210.78 544.205 205.447 545.058 201.608 549.324Z" fill="#E4542F"/>
<path d="M251.309 557.43C238.724 565.749 234.457 570.229 234.244 575.775C234.244 582.814 238.297 581.747 247.469 572.788C252.589 567.669 259.841 562.123 263.681 560.63C267.947 558.923 270.507 556.363 270.507 553.804C270.507 547.618 264.321 548.898 251.309 557.43Z" fill="#E4542F"/>
<path d="M296.531 575.561C291.838 581.321 282.666 586.013 270.72 589C264.748 590.493 260.908 592.626 260.908 594.333C260.908 598.385 271.36 600.945 278.826 598.812C287.572 596.466 301.864 586.867 305.917 580.681C311.889 571.722 303.783 567.029 296.531 575.561Z" fill="#E4542F"/>
<path d="M281.599 619.29C273.706 627.396 271.573 630.809 274.133 630.809C282.452 630.809 295.891 618.01 296.104 609.904C296.104 605.425 293.331 607.345 281.599 619.29Z" fill="#E4542F"/>
<path d="M203.741 626.116C198.835 631.449 195.635 641.474 197.128 646.167C198.835 652.14 202.888 649.793 205.021 641.474C206.087 637.421 208.22 632.302 209.927 629.956C211.633 627.609 212.913 624.836 212.913 623.983C212.913 620.997 207.154 622.276 203.741 626.116Z" fill="#E4542F"/>
<path d="M245.337 635.502C243.63 637.848 232.111 676.67 232.111 680.723C232.111 681.363 233.391 682.003 235.098 682.003C236.804 682.003 240.004 674.537 243.843 661.099C247.043 649.793 250.243 638.701 250.669 636.568C251.949 632.302 248.536 631.662 245.337 635.502Z" fill="#E4542F"/>
<path d="M523.066 532.9C519.653 537.166 510.694 574.282 512.187 578.121C512.827 579.828 516.453 581.961 520.079 582.814C526.692 584.307 526.905 584.52 525.625 593.266C521.999 618.01 521.786 624.409 523.919 624.409C527.332 624.409 533.305 602.225 533.731 589.427C533.944 579.188 533.518 578.335 527.119 575.561C519.226 571.935 518.799 569.802 523.492 554.23C527.332 541.219 526.905 527.993 523.066 532.9Z" fill="#E4542F"/>
<path d="M584.072 581.321C584.072 584.094 588.338 588.787 602.63 601.799C610.096 608.411 616.922 613.744 618.202 613.744C623.748 613.744 619.268 607.131 607.323 597.532C600.284 591.773 593.458 585.587 592.391 583.454C590.258 579.614 584.072 578.121 584.072 581.321Z" fill="#E4542F"/>
<path d="M563.808 594.546C563.168 595.613 563.168 597.746 564.021 599.239C564.874 600.732 565.728 610.544 565.728 621.21C565.941 636.781 566.581 640.408 569.14 640.408C571.7 640.408 572.553 636.781 572.98 622.063C573.62 604.145 571.274 592.413 567.221 592.413C566.154 592.413 564.448 593.266 563.808 594.546Z" fill="#E4542F"/>
<path d="M645.932 638.701C645.932 640.621 648.918 646.807 652.544 652.566C656.171 658.112 660.223 667.711 661.717 673.684C662.996 679.443 665.13 684.136 666.196 683.71C669.182 682.856 668.329 664.298 665.13 655.766C658.944 640.621 645.932 628.889 645.932 638.701Z" fill="#E4542F"/>
<path d="M609.67 657.686C609.67 658.326 614.576 663.445 620.335 669.204C627.588 676.244 631.001 681.15 631.001 684.989C631.001 691.602 633.987 693.735 637.4 689.469C641.88 684.136 637.827 674.111 627.375 664.938C618.842 657.472 609.67 653.633 609.67 657.686Z" fill="#E4542F"/>
<path d="M538.425 662.592C529.892 671.977 521.146 705.467 526.266 708.666C529.039 710.16 530.532 707.6 533.945 693.735C535.652 687.122 539.064 678.163 541.411 673.47C548.237 660.245 546.317 653.846 538.425 662.592Z" fill="#E4542F"/>
<path d="M584.072 671.977C584.072 673.684 589.192 680.51 595.591 687.549C604.763 697.361 607.75 699.494 609.883 697.574C612.869 694.588 610.096 689.682 598.791 676.67C592.178 669.204 584.072 666.644 584.072 671.977Z" fill="#E4542F"/>
<path d="M684.755 707.387C671.103 727.225 669.396 731.064 674.516 731.064C681.342 731.064 703.526 700.988 703.526 691.602C703.526 684.136 697.127 689.469 684.755 707.387Z" fill="#E4542F"/>
<path d="M574.474 714.426C572.554 719.332 583.006 738.104 591.965 745.996C600.924 754.102 612.016 756.235 619.482 751.329C627.161 746.209 624.815 742.583 614.149 743.436C606.043 744.076 604.337 743.223 597.298 735.757C593.031 731.278 586.419 723.812 582.579 719.119C577.033 712.293 575.753 711.44 574.474 714.426Z" fill="#E4542F"/>
<path d="M525.199 753.462C522.426 760.501 533.305 767.541 556.556 773.94C572.554 778.419 583.219 779.059 585.139 776.073C586.846 773.087 581.513 770.74 562.102 765.407C552.929 762.848 541.837 758.368 537.571 755.595C528.399 749.409 526.692 749.196 525.199 753.462Z" fill="#E4542F"/>
<path d="M423.236 560.63C418.757 567.882 413.424 589 414.917 594.973C415.557 597.746 419.823 603.932 424.303 608.838C428.996 613.957 433.049 620.783 433.688 625.263C434.542 629.742 436.462 632.942 438.168 632.942C447.127 632.942 442.434 615.237 430.062 601.799L421.743 592.84L426.436 576.415C429.849 564.896 430.489 559.563 428.996 558.07C427.289 556.364 425.583 557.217 423.236 560.63Z" fill="#E4542F"/>
<path d="M389.96 602.012C386.121 606.705 388.467 626.756 394.44 637.208C397.213 641.901 399.986 645.74 401.052 645.74C404.465 645.74 405.319 639.768 402.332 634.648C400.839 631.875 399.133 623.129 398.493 615.024C397.426 599.879 394.866 596.039 389.96 602.012Z" fill="#E4542F"/>
<path d="M453.1 653.846C451.18 656.832 454.806 682.216 457.153 682.216C459.712 682.003 461.205 668.564 459.286 659.179C458.006 652.353 455.446 650.22 453.1 653.846Z" fill="#E4542F"/>
<path d="M358.391 658.966C355.191 662.165 354.978 674.324 358.178 680.51C359.457 683.07 363.724 688.189 367.777 692.029C375.669 699.495 377.375 708.027 371.829 715.279C367.563 720.826 367.777 722.532 372.683 722.532C377.802 722.532 385.695 712.933 385.695 706.96C385.695 701.841 375.669 684.136 372.896 684.136C368.843 684.136 364.15 671.338 365.643 663.872C367.137 655.979 363.724 653.633 358.391 658.966Z" fill="#E4542F"/>
<path d="M427.716 669.631C426.01 672.404 423.45 678.377 421.957 683.069C420.464 687.762 415.984 695.441 411.932 699.921C404.252 709.093 403.612 710.8 407.452 713.146C413.851 716.986 434.756 684.776 434.756 671.124C434.756 665.151 430.916 664.298 427.716 669.631Z" fill="#E4542F"/>
<path d="M326.181 676.03C323.834 681.79 315.302 730.211 315.302 736.824C315.302 742.583 320.848 743.436 322.554 737.89C324.261 732.558 332.367 680.51 332.367 675.604C332.367 669.844 328.527 670.271 326.181 676.03Z" fill="#E4542F"/>
<path d="M348.578 732.771C347.085 735.33 354.977 750.902 361.163 757.515C367.562 764.34 375.455 766.474 383.561 763.061C391.666 759.648 389.747 756.661 379.294 756.661C370.335 756.661 363.296 750.475 358.177 737.677C355.404 731.277 350.924 729.144 348.578 732.771Z" fill="#E4542F"/>
<path d="M435.181 733.624C434.115 735.117 431.555 744.076 429.635 753.248C427.929 762.634 423.876 775.433 420.676 781.619C412.784 797.83 417.05 805.723 426.862 792.711C431.342 786.525 444.14 738.317 442.434 734.05C440.941 730.424 438.168 730.211 435.181 733.624Z" fill="#E4542F"/>
<path d="M303.996 756.022C301.223 758.581 302.503 760.928 311.035 770.313C323.194 783.539 350.071 793.991 357.964 788.658C360.737 786.738 360.523 786.098 357.11 783.325C354.764 781.619 350.498 780.126 347.725 780.126C339.406 780.126 329.167 774.153 319.781 763.914C311.675 754.955 307.196 752.822 303.996 756.022Z" fill="#E4542F"/>
</svg>
