<svg width="1148" height="1294" viewBox="0 0 1148 1294" fill="none" xmlns="http://www.w3.org/2000/svg">
<path d="M532.517 0.839722C434.517 4.97302 384.117 7.90637 344.517 12.0397C312.917 15.373 275.85 20.0397 269.584 21.373C266.517 22.173 262.117 22.7063 259.984 22.7063C257.717 22.7063 253.317 23.2396 250.25 23.9064C247.05 24.7063 238.784 26.173 231.85 27.373C224.917 28.573 216.784 30.0397 213.85 30.7063C210.917 31.373 204.917 32.573 200.517 33.5063C196.117 34.4397 188.384 36.173 183.184 37.5063C149.984 45.9064 141.584 48.8397 121.184 58.4397C105.584 65.9064 101.584 69.6396 99.1836 78.8397C95.1836 94.7063 93.9836 155.24 95.8503 258.04L97.4503 354.04L100.784 360.573C105.85 371.106 112.65 379.373 121.584 386.306C126.117 389.773 131.05 393.373 132.517 394.173C133.984 394.973 138.117 397.24 141.584 399.106C145.05 401.106 148.784 402.706 149.85 402.706C151.85 402.706 159.85 411.773 159.85 414.04C159.85 414.84 153.45 420.573 145.584 426.706C127.85 440.84 121.45 446.573 105.05 463.373C91.7169 476.973 88.2503 481.106 74.9169 498.706C58.1169 520.84 41.8503 549.106 28.2503 580.04C21.1836 595.773 11.1836 629.106 7.31694 649.373C1.05027 682.04 -0.549731 703.64 0.383602 740.706C1.31694 777.506 2.51694 792.44 5.31694 798.04C8.25027 804.173 14.9169 806.973 24.1169 805.906C29.9836 805.373 31.9836 805.506 32.5169 806.973C32.7836 807.906 33.7169 820.04 34.5169 834.04C36.3836 865.373 38.1169 892.306 39.1836 905.373C42.7836 951.373 44.1169 966.44 45.1836 977.373C45.8503 984.306 47.0503 996.973 47.8503 1005.37C50.1169 1029.24 53.0503 1054.71 54.5169 1062.84C55.3169 1066.84 55.8503 1072.04 55.8503 1074.31C55.8503 1076.57 56.3836 1081.37 57.1836 1084.97C57.8503 1088.44 59.3169 1097.11 60.5169 1104.04C67.4503 1145.51 74.3836 1160.44 96.5169 1182.04C107.05 1192.44 110.117 1194.97 121.584 1202.71C135.05 1211.64 153.45 1221.51 169.85 1228.71C172.784 1229.91 176.384 1231.51 177.85 1232.17C183.05 1234.44 195.317 1238.97 203.184 1241.64C207.584 1242.97 212.384 1244.71 213.85 1245.37C216.784 1246.57 233.984 1251.77 240.517 1253.51C242.784 1254.04 250.517 1256.04 257.85 1258.04C265.184 1259.91 273.584 1262.04 276.517 1262.57C302.917 1268.31 317.584 1271.24 323.184 1272.04C326.917 1272.57 335.85 1274.04 343.184 1275.37C358.784 1277.91 371.05 1279.64 385.85 1281.37C391.717 1281.91 398.917 1282.84 401.85 1283.24C439.184 1288.44 531.317 1293.37 589.184 1293.37C649.05 1293.37 736.65 1288.57 784.25 1282.71C831.45 1276.71 848.25 1274.17 880.517 1267.77C891.584 1265.51 902.917 1263.24 905.85 1262.71C908.784 1262.17 915.05 1260.71 919.85 1259.37C924.65 1258.17 930.65 1256.71 933.184 1256.04C935.717 1255.51 941.45 1253.91 945.85 1252.71C950.25 1251.51 955.717 1249.91 957.85 1249.37C963.45 1248.04 994.65 1237.51 997.85 1236.04C999.317 1235.37 1005.05 1232.97 1010.52 1230.84C1040.12 1219.24 1071.18 1200.84 1088.25 1184.71C1099.72 1173.91 1111.05 1157.51 1113.32 1148.71C1113.85 1146.44 1115.18 1141.37 1116.25 1137.37C1121.05 1119.11 1126.38 1079.37 1129.32 1039.37C1131.85 1006.57 1132.92 977.106 1134.65 901.106C1136.25 832.04 1135.45 751.906 1132.38 678.04C1131.45 652.306 1126.38 597.24 1123.85 583.373C1123.18 579.64 1122.25 573.373 1121.72 569.24L1120.92 561.773L1126.25 557.506C1129.18 555.24 1133.72 552.44 1136.38 551.373C1139.18 550.173 1142.52 547.24 1144.52 544.04C1147.98 538.44 1148.65 534.84 1146.65 530.973C1145.98 529.773 1144.38 525.373 1143.18 521.373C1139.05 507.106 1125.72 480.573 1112.25 459.64C1109.05 454.706 1106.52 450.44 1106.52 450.04C1106.52 449.373 1090.52 426.44 1089.18 425.373C1088.78 424.973 1085.32 420.706 1081.58 415.906C1073.85 406.173 1062.25 394.973 1054.38 389.773C1051.45 387.906 1049.18 385.64 1049.18 384.573C1049.18 382.173 1052.65 379.106 1058.92 375.906C1067.85 371.24 1077.72 360.306 1081.05 351.373C1085.98 338.44 1087.85 316.84 1087.85 275.373C1087.85 238.973 1086.65 208.04 1083.72 170.04C1079.32 114.573 1075.72 95.6396 1065.72 77.9064C1061.05 69.5063 1060.78 69.373 1045.98 62.0397C1037.72 58.0397 1030.52 54.7063 1029.98 54.7063C1029.45 54.7063 1027.05 53.9064 1024.78 52.8397C1021.05 51.1063 998.65 43.6396 987.184 40.173C978.517 37.5063 942.384 29.1063 929.85 26.7063C922.117 25.2396 918.25 24.573 900.517 21.373C884.517 18.573 864.117 15.7729 841.184 13.373C834.25 12.7063 827.05 11.7729 825.184 11.373C816.65 9.63965 773.184 6.4397 716.517 3.37305C680.117 1.50635 558.784 -0.227051 532.517 0.839722ZM718.517 23.9064C749.717 25.7729 779.85 28.173 782.65 28.8397C783.85 29.2396 785.184 30.7063 785.584 32.0397C786.384 35.2396 789.184 35.373 799.45 32.7063C808.517 30.3063 829.45 31.2396 831.85 34.0397C833.584 36.173 833.317 36.4397 823.184 39.373C813.85 42.173 810.517 44.573 812.784 46.8397C814.784 48.8397 823.717 46.973 843.85 40.573C853.45 37.5063 871.317 37.373 888.517 40.4397C895.85 41.7729 905.184 43.373 909.184 44.0397C922.517 46.3063 931.05 47.9064 940.517 50.0397C945.717 51.2396 952.25 52.7063 955.184 53.373C967.45 55.9064 1004.78 66.8397 1013.85 70.573C1015.32 71.2396 1019.18 72.8397 1022.52 74.173C1025.85 75.5063 1029.98 77.5063 1031.58 78.573L1034.78 80.4397L1030.12 82.7063C1027.58 83.9064 1024.38 85.2396 1023.05 85.6396C1021.58 86.0397 1015.45 88.173 1009.18 90.4397C1002.92 92.573 993.984 95.373 989.184 96.7063C984.384 97.9064 979.05 99.5063 977.184 100.04C975.317 100.573 970.25 101.773 965.85 102.706C961.45 103.64 956.117 104.84 953.85 105.373C948.117 106.973 921.85 111.64 898.517 115.24C866.917 120.173 818.517 124.84 768.517 128.04C745.984 129.373 668.65 132.173 652.25 132.04C642.917 132.04 642.517 131.906 642.517 128.84C642.517 127.106 641.717 124.973 640.65 124.173C639.05 122.84 637.85 123.506 634.384 127.24L630.117 132.04H615.317C587.984 132.04 529.984 129.373 528.65 128.04C527.85 127.24 527.85 126.706 528.517 126.706C529.317 126.706 530.65 126.173 531.717 125.506C533.317 124.44 533.317 123.906 531.984 122.173C529.584 119.373 526.517 119.506 524.384 122.306C523.317 124.04 523.184 125.24 524.117 126.306C526.384 129.106 521.984 129.773 505.45 128.973C430.917 125.24 425.184 124.706 424.25 121.906C423.984 121.106 429.45 115.906 436.517 110.04C449.317 99.5063 452.384 94.7063 446.25 94.7063C443.184 94.7063 439.717 97.5063 420.65 114.306C412.384 121.506 410.517 122.706 405.85 122.706C395.85 122.706 313.584 114.44 299.717 112.04C295.717 111.24 290.25 110.706 287.584 110.706C284.917 110.706 279.85 110.173 276.25 109.373C272.784 108.706 263.317 107.24 255.184 106.04C247.184 104.84 237.584 103.373 233.85 102.706C199.184 96.3063 189.184 94.4397 185.184 93.373C182.65 92.7063 176.384 91.2396 171.184 89.9064C166.117 88.7063 160.384 87.2396 158.517 86.7063C156.65 86.173 152.517 84.973 149.184 84.0397C139.05 81.2396 131.85 78.4397 131.85 77.2396C131.85 74.4397 161.45 63.9064 185.85 58.0397C191.05 56.8397 197.317 55.373 199.85 54.7063C202.384 54.0397 207.85 52.973 211.85 52.173C215.85 51.373 223.717 49.9064 229.184 48.8397C234.65 47.7729 243.717 46.3063 249.184 45.373C254.65 44.573 262.517 43.373 266.517 42.7063C275.05 41.373 299.45 38.0397 315.85 36.173C367.317 30.0397 407.584 27.1063 499.85 22.7063C531.45 21.2396 687.85 22.0397 718.517 23.9064ZM127.184 98.8397C128.65 99.373 134.25 101.24 139.584 102.84C145.317 104.44 149.717 106.573 150.517 108.04C151.184 109.373 152.117 113.906 152.517 118.173C153.317 125.373 155.184 136.04 156.784 141.64C157.05 142.973 158.65 144.04 160.117 144.04C162.65 144.04 162.784 143.506 161.984 135.64C161.584 131.106 160.65 123.906 160.117 119.64C159.45 115.506 159.45 111.24 159.984 110.44C160.917 108.84 168.65 110.173 185.85 114.706C188.117 115.373 192.65 116.173 196.117 116.706C199.584 117.106 202.917 118.306 203.45 119.106C203.984 120.04 204.517 128.44 204.517 138.04C204.517 153.24 204.784 155.373 206.784 155.773C209.584 156.306 209.85 154.973 211.45 135.773C212.117 127.906 213.05 121.106 213.45 120.706C213.85 120.306 216.784 120.44 219.984 121.24C223.184 121.906 230.117 123.106 235.184 123.906C240.384 124.706 250.25 126.173 257.184 127.24C271.317 129.506 284.384 131.24 301.184 133.24C307.45 134.04 319.717 135.64 328.65 136.706C337.45 137.773 346.784 138.706 349.45 138.706C354.25 138.706 357.45 140.573 354.384 141.64C349.45 143.24 341.317 188.173 345.184 192.706C348.117 196.173 350.25 192.573 351.184 182.973C352.384 169.506 354.517 158.84 357.45 150.973C359.717 145.373 359.85 143.64 358.517 142.04C357.05 140.173 358.65 140.04 372.65 140.84C381.45 141.24 389.984 142.04 391.85 142.706C393.717 143.373 405.05 144.306 417.184 144.706C429.317 145.24 442.25 146.04 445.85 146.573L452.517 147.373L453.45 155.373C454.917 167.506 457.05 184.04 457.984 189.773C458.917 195.506 463.317 199.106 464.784 195.373C465.184 194.173 464.784 188.173 463.85 182.306C462.917 176.306 461.85 166.04 461.584 159.506L460.917 147.64L483.317 148.44C514.917 149.773 515.184 149.773 517.184 156.573C524.517 181.906 529.45 194.706 532.517 195.64C533.317 195.773 534.65 195.506 535.717 194.84C537.317 193.773 537.184 192.44 534.65 186.573C529.85 175.773 523.584 154.706 524.384 152.706C524.917 151.106 537.317 150.973 602.117 151.506C644.517 151.906 679.85 152.44 680.65 152.706C682.65 153.373 685.184 167.906 685.184 178.84C685.184 194.706 687.184 200.173 691.85 197.373C693.317 196.573 693.317 192.44 691.984 175.24C689.984 149.64 689.317 150.706 707.45 150.706C721.85 150.706 722.517 151.24 722.517 163.773C722.517 168.04 722.917 176.306 723.45 181.906C724.117 191.373 724.517 192.173 727.05 191.773C729.717 191.373 729.85 190.706 729.85 171.373V151.373L741.85 150.44C748.517 149.906 764.917 148.84 778.517 148.173C828.784 145.24 878.784 139.773 925.184 132.04C929.984 131.24 935.984 130.306 938.65 129.773L943.317 129.106L944.917 136.173C945.717 140.173 947.05 151.106 947.85 160.706C948.65 170.173 949.85 178.573 950.517 179.24C951.184 179.906 952.65 180.04 953.717 179.64C956.517 178.573 956.517 169.773 953.584 146.44C952.25 136.44 951.584 127.906 951.984 127.506C952.384 127.106 955.984 126.04 959.984 125.24C971.85 122.84 984.117 119.773 997.184 115.906C1009.32 112.306 1011.05 114.706 1009.85 134.706C1009.32 142.44 1008.38 151.64 1007.58 155.106C1005.98 162.573 1007.58 165.773 1011.58 163.24C1013.98 161.64 1014.65 158.573 1017.32 136.573C1018.78 123.506 1018.65 121.64 1015.32 113.24C1014.65 111.64 1015.85 110.573 1020.78 108.84C1024.25 107.64 1028.25 106.04 1029.45 105.24C1030.78 104.573 1032.38 104.04 1033.18 104.04C1033.85 104.04 1037.72 102.44 1041.85 100.573C1045.85 98.7063 1049.98 97.373 1051.05 97.7729C1052.92 98.573 1055.98 110.44 1058.38 126.04C1063.58 161.64 1066.52 212.706 1066.52 271.64C1066.52 335.373 1065.05 344.973 1054.38 353.906C1052.12 355.906 1049.18 357.373 1048.12 357.106C1046.92 356.84 1044.78 353.24 1043.05 348.706C1037.72 333.64 1031.05 323.24 1018.65 310.306C1010.52 301.773 986.25 284.04 982.784 284.04C980.117 284.04 981.05 279.773 985.45 271.373C989.584 263.106 989.85 258.706 985.984 258.706C984.917 258.706 981.85 262.84 979.05 268.04C974.784 276.306 973.717 277.373 970.384 277.373C968.25 277.373 965.45 276.84 964.117 276.04C962.917 275.373 957.184 273.773 951.584 272.573C945.85 271.373 941.184 269.906 941.184 269.24C941.184 268.573 942.25 264.573 943.584 260.306C945.984 252.973 947.317 248.573 950.384 236.573C951.184 233.506 951.85 228.84 951.85 226.173C951.85 222.306 951.317 221.373 949.184 221.373C946.517 221.373 946.25 221.906 941.85 240.706C939.717 249.506 933.717 267.906 932.65 268.973C932.384 269.24 923.584 269.773 913.05 270.04C902.517 270.44 890.25 271.373 885.85 272.04C857.45 277.106 856.65 277.373 832.517 283.906C825.317 285.906 800.517 294.306 793.05 297.373C789.05 298.973 784.65 300.84 783.184 301.373C774.517 304.84 754.917 313.773 743.45 319.506C735.317 323.506 729.45 326.706 714.784 334.973C690.65 348.44 662.384 368.706 645.584 384.573C637.984 391.64 631.45 397.373 630.784 397.373C630.25 397.373 628.384 394.44 626.784 390.973C623.05 382.973 610.25 369.106 603.45 365.373C593.184 359.906 579.984 363.506 570.384 374.573C567.45 377.906 562.25 386.306 558.917 392.973C555.45 399.773 552.25 405.373 551.85 405.373C551.317 405.373 545.85 399.773 539.584 392.973C520.917 372.973 502.917 355.106 487.85 342.04C471.584 327.906 447.45 308.973 439.984 304.573C437.717 303.24 435.85 301.64 435.85 301.106C435.85 300.573 435.317 300.04 434.517 300.04C433.85 300.04 430.384 298.04 426.917 295.506C415.984 287.906 391.584 274.973 373.85 267.506C361.317 262.306 358.65 259.106 355.85 246.173C353.85 236.44 351.717 233.373 348.65 235.906C347.184 237.106 347.184 238.706 348.517 245.106C349.45 249.24 350.65 253.64 351.05 254.84C352.65 258.573 349.984 258.706 336.384 255.506C314.784 250.306 294.384 248.573 278.25 250.706C270.65 251.64 259.984 253.506 254.517 254.973C249.05 256.44 242.65 258.04 240.25 258.573C237.184 259.373 235.184 259.106 233.05 257.64C230.65 256.04 229.984 256.04 229.05 257.506C228.384 258.573 227.85 260.306 227.85 261.373C227.85 262.573 225.584 264.573 222.917 266.04C220.117 267.506 214.65 270.573 210.784 272.973C206.917 275.373 203.45 277.373 203.05 277.373C202.117 277.373 193.85 283.506 187.85 288.706C156.384 315.906 143.85 336.973 143.85 362.973C143.85 370.973 143.317 374.706 142.25 374.706C138.384 374.706 123.984 361.24 120.517 354.306C115.984 345.373 113.85 103.64 118.25 98.3063C119.984 96.3063 121.584 96.3063 127.184 98.8397ZM282.517 272.306C284.65 273.64 285.717 273.64 287.85 272.306C291.05 270.306 304.25 270.173 315.05 272.173C346.384 277.773 369.317 286.44 403.184 305.24C414.517 311.64 438.65 328.573 455.85 342.306C484.517 365.24 541.584 422.84 539.184 426.573C538.917 427.24 535.717 428.706 532.25 429.906C528.784 431.24 524.917 432.706 523.85 433.24C522.784 433.773 511.984 437.373 499.85 441.24C487.717 445.106 476.65 448.84 475.184 449.373C473.717 449.906 470.384 450.973 467.85 451.773C429.317 463.373 413.984 467.64 397.85 471.373C392.784 472.573 386.384 474.173 383.717 474.84C375.85 476.84 332.117 476.306 318.25 474.04C297.184 470.573 268.25 462.84 260.917 458.706C259.584 457.906 257.984 457.373 257.184 457.373C253.984 457.373 226.25 442.973 213.85 434.84C196.384 423.506 178.384 405.773 175.984 397.373C175.05 394.173 173.184 390.573 171.85 389.373C166.65 384.84 164.784 378.573 164.784 365.373C164.784 351.373 166.384 345.773 174.25 333.506C188.117 311.506 222.65 286.173 250.517 277.373C258.784 274.84 265.85 273.24 278.917 270.84C279.45 270.84 281.05 271.506 282.517 272.306ZM951.85 294.04C959.717 296.306 961.317 296.973 970.517 301.24C999.317 314.706 1018.78 336.706 1026.12 363.773C1028.65 373.64 1028.65 393.24 1025.98 403.373C1017.58 435.24 990.917 461.506 957.85 470.573C927.717 478.706 894.517 485.24 857.45 490.04C833.984 493.106 780.65 492.706 758.917 489.373C735.85 485.773 729.85 484.573 721.184 482.04C717.184 480.84 712.25 479.506 710.117 479.106C708.117 478.706 706.117 477.906 705.717 477.24C705.317 476.573 703.584 476.04 701.85 476.04C700.117 476.04 698.384 475.506 697.984 474.84C697.584 474.173 695.584 473.24 693.584 472.706C686.25 470.973 664.25 459.506 649.584 449.773C635.184 440.44 634.517 439.773 634.517 435.373C634.517 425.24 646.784 409.773 670.917 389.773C680.784 381.64 709.584 361.373 711.317 361.373C711.584 361.373 715.984 358.706 721.05 355.373C726.117 352.173 740.384 344.573 752.784 338.44C775.85 327.106 781.717 324.306 797.85 318.04C803.05 316.04 808.384 313.906 809.85 313.24C813.584 311.773 840.25 303.373 849.184 300.84C863.184 297.106 885.184 292.706 896.517 291.506C908.784 290.306 944.517 291.773 951.85 294.04ZM600.117 388.973C608.917 398.84 611.05 403.64 610.917 413.506C610.784 422.173 607.85 440.04 605.05 448.84C604.384 451.106 603.85 453.906 603.85 455.106C603.85 458.44 597.317 472.306 594.25 475.64C589.984 480.173 584.117 479.64 577.984 474.306C570.917 468.306 569.05 462.173 568.25 443.106C567.584 429.373 567.984 425.773 569.984 419.773C573.85 408.973 581.717 393.106 585.85 388.306C590.65 382.573 594.384 382.84 600.117 388.973ZM1059.58 422.306C1067.98 431.773 1088.78 460.04 1094.52 469.906C1107.18 491.906 1110.65 498.173 1115.05 507.373C1117.85 513.24 1120.65 519.106 1121.32 520.44C1121.98 521.64 1122.92 525.373 1123.32 528.44C1123.98 533.506 1123.85 534.306 1121.05 535.64C1111.05 540.04 1058.78 590.44 1019.98 632.706C1015.32 637.906 1007.85 645.906 1003.32 650.706C998.784 655.506 991.05 663.906 985.85 669.373C950.117 707.506 936.384 722.306 925.85 733.373C904.117 756.44 851.717 808.573 838.917 820.04C823.85 833.506 803.584 848.84 797.317 851.506C792.25 853.64 784.917 853.906 781.45 852.173C780.25 851.506 774.65 848.706 769.184 846.04C763.717 843.24 753.45 837.373 746.517 832.973C734.65 825.506 698.65 800.573 697.184 798.84C696.784 798.306 689.317 792.573 680.517 786.04C666.65 775.64 642.117 756.44 633.85 749.64C632.384 748.306 628.25 744.973 624.517 742.04C614.117 733.773 557.05 686.573 552.517 682.573C550.384 680.706 535.584 668.04 519.85 654.573C486.65 626.306 451.45 595.64 441.85 586.84C438.25 583.506 432.784 578.706 429.85 576.173C415.05 563.506 403.984 552.973 404.65 551.906C405.984 549.506 428.784 534.173 457.05 516.306C493.85 493.106 489.317 495.773 512.517 482.44C522.25 476.84 546.784 465.24 548.117 465.64C549.584 466.173 553.184 475.373 553.184 478.84C553.184 480.04 548.65 487.906 543.184 496.173C533.184 510.973 531.85 514.973 535.984 515.773C538.117 516.173 540.517 512.973 553.184 493.24C555.45 489.773 557.45 488.04 559.45 488.04C561.184 488.04 562.517 488.573 562.517 489.24C562.517 491.506 579.717 499.106 586.25 499.773C593.45 500.44 602.784 496.84 607.85 491.24C609.584 489.506 612.117 488.04 613.45 488.04C619.184 488.04 643.317 506.04 659.85 522.706C675.984 538.706 695.984 565.24 707.984 586.306C723.05 612.44 738.384 647.24 747.717 676.04C751.85 688.306 752.517 690.306 757.05 700.04C763.05 712.973 772.384 723.373 779.45 724.706C798.784 728.306 810.917 707.773 808.517 675.373C807.05 655.106 796.65 618.84 784.517 591.373C783.584 589.106 781.317 584.04 779.717 580.04C772.517 563.373 756.917 533.906 747.717 519.64C741.184 509.64 741.05 507.64 746.917 508.573C780.65 514.306 819.717 514.973 858.517 510.706C881.45 508.173 883.317 508.04 891.05 510.173C902.65 513.24 904.384 513.24 904.917 509.64C905.184 508.04 904.65 506.706 903.85 506.706C903.05 506.706 902.65 506.173 903.05 505.506C903.85 504.306 913.984 501.773 929.85 498.706C934.25 497.906 939.85 496.573 942.25 495.906C944.65 495.106 953.717 494.706 962.517 494.84C971.317 495.106 978.917 494.84 979.45 494.306C979.984 493.64 979.717 492.04 978.784 490.706C976.384 486.706 976.784 486.04 982.917 483.506C992.384 479.373 1009.45 467.373 1017.32 459.106C1029.58 446.573 1039.32 430.44 1044.38 414.306C1045.85 409.773 1050.25 412.04 1059.58 422.306ZM183.184 438.04C187.05 441.64 189.184 444.573 188.384 445.24C187.717 445.906 183.584 447.506 179.184 448.84C163.984 453.373 159.85 455.64 159.85 459.373C159.85 462.84 163.317 464.04 165.984 461.506C167.45 459.906 182.117 454.973 191.584 452.706C197.584 451.24 199.317 451.373 202.517 452.84C209.584 456.44 209.85 458.04 203.584 462.84C187.717 475.24 181.05 482.04 181.984 484.573C183.45 488.306 184.784 487.773 195.984 478.44C212.25 464.973 215.317 462.706 217.317 462.706C218.517 462.706 223.317 464.706 227.984 467.106C235.584 470.973 249.984 477.24 256.25 479.24C260.384 480.573 258.65 482.573 246.25 490.573C219.984 507.373 195.85 526.973 170.517 552.04C153.984 568.44 144.65 579.64 134.117 595.64C121.717 614.706 119.584 620.573 118.784 637.64C118.25 650.573 118.517 652.306 121.184 656.573C127.05 666.306 137.184 669.373 148.117 664.84C156.517 661.24 171.184 647.24 183.05 631.24C190.784 620.973 223.45 589.64 241.184 575.506C258.65 561.64 289.45 540.306 303.184 532.706C328.65 518.573 334.384 515.773 359.184 505.24C364.25 503.106 379.184 498.306 383.85 497.373C403.45 493.24 415.45 490.306 416.517 489.373C417.85 488.306 423.584 486.44 441.184 481.24C466.384 473.906 473.984 471.64 476.517 470.706C483.984 467.64 498.517 463.906 500.117 464.44C501.05 464.84 500.517 465.24 498.917 465.24C497.184 465.373 495.85 465.906 495.85 466.706C495.85 467.373 489.984 471.373 482.917 475.64C454.917 491.906 416.117 517.24 373.184 547.24C331.05 576.573 276.784 614.973 274.784 616.973C273.85 617.906 272.517 618.706 271.984 618.706C271.45 618.706 269.85 619.773 268.384 621.106C267.05 622.306 255.45 630.84 242.65 640.04C201.984 669.373 173.984 689.373 170.517 691.773C168.65 692.973 165.984 695.106 164.65 696.306C163.184 697.64 161.584 698.706 161.05 698.706C160.517 698.706 159.184 699.506 158.25 700.44C153.45 705.106 106.25 737.373 76.6503 756.306C58.9169 767.64 49.3169 773.24 37.8503 778.973C34.9169 780.573 31.4503 782.173 30.2503 782.84C26.3836 784.84 24.2503 784.173 23.3169 780.973C20.1169 770.306 20.3836 703.506 23.7169 677.373C30.2503 626.04 47.7169 578.173 76.2503 533.373C89.9836 511.906 103.184 495.24 122.384 475.506C138.65 458.973 170.784 432.04 174.384 432.04C175.584 432.04 179.584 434.706 183.184 438.04ZM637.984 467.373C651.184 475.906 670.384 486.04 681.85 490.573C703.584 499.24 708.517 502.306 716.25 511.64C723.717 520.973 732.517 534.04 739.717 546.706C746.384 558.306 766.517 600.173 766.517 602.173C766.517 602.573 767.317 604.84 768.384 607.106C771.717 614.573 777.45 630.573 779.85 639.373C780.517 641.506 782.117 647.506 783.584 652.706C787.184 665.506 789.717 684.173 788.65 688.84C785.45 702.173 785.184 702.84 782.784 701.506C779.05 699.506 773.184 686.573 765.717 664.306C756.117 635.506 741.184 602.04 728.384 580.44C725.184 574.973 722.517 570.306 722.517 570.04C722.517 569.64 718.384 563.24 713.317 555.773C688.25 518.706 660.784 491.106 630.65 472.706C626.117 470.04 622.517 466.973 622.517 466.04C622.517 463.24 623.984 460.04 625.317 460.04C625.984 460.04 631.717 463.373 637.984 467.373ZM314.25 494.173C318.784 494.706 322.517 495.506 322.517 496.173C322.517 497.506 318.65 501.373 317.184 501.373C315.05 501.373 287.184 517.64 270.517 528.706C226.117 558.04 192.917 586.84 166.784 618.706C153.184 635.24 144.117 644.04 140.65 644.04C138.384 644.04 138.25 643.24 139.05 635.906C140.517 623.373 146.784 611.373 162.25 592.04C174.517 576.706 202.384 549.373 220.917 534.706C226.517 530.173 232.65 525.24 234.517 523.773C241.85 518.04 264.784 503.373 273.317 499.106C282.384 494.573 295.584 491.773 302.517 492.84C304.384 493.106 309.584 493.773 314.25 494.173ZM394.117 572.173C401.184 578.573 401.584 580.173 397.317 585.506C380.65 605.906 376.25 616.173 383.85 617.106C386.784 617.506 388.517 615.906 395.584 605.773C400.117 599.373 405.184 592.306 406.917 590.306L410.117 586.573L417.317 592.973C421.317 596.44 424.784 599.64 425.184 600.04C425.584 600.44 430.384 604.573 435.85 609.373C441.317 614.173 446.917 618.973 448.117 620.04C449.317 621.106 454.25 625.373 459.05 629.373C463.85 633.373 467.717 637.773 467.717 639.106C467.85 640.44 466.384 643.106 464.517 645.106C460.65 649.106 460.517 654.306 464.117 656.573C465.984 657.773 467.45 657.106 471.584 652.973C474.384 650.306 477.45 648.04 478.517 648.04C479.584 648.04 482.65 649.906 485.184 652.173C501.45 666.573 505.717 670.173 507.317 671.106C508.517 671.773 509.184 673.906 508.917 676.573C508.517 682.84 509.984 684.306 515.717 683.506C520.25 682.706 521.317 683.24 533.184 693.373C540.117 699.24 545.984 704.706 546.25 705.373C546.517 706.04 545.45 708.44 543.984 710.573C540.65 715.24 540.517 717.773 543.184 720.04C545.584 722.04 551.45 720.04 552.65 716.706C553.45 714.706 559.317 713.906 560.117 715.64C560.384 716.306 565.317 720.573 571.184 725.373C577.05 730.173 583.05 735.106 584.517 736.306C585.984 737.506 594.25 744.306 602.917 751.373C611.45 758.44 618.517 764.84 618.517 765.506C618.517 766.173 617.584 768.173 616.517 769.906C615.317 771.64 614.784 774.04 615.317 775.24C616.384 777.906 622.917 778.04 625.184 775.373C626.117 774.306 627.584 773.373 628.517 773.373C629.85 773.373 642.384 782.44 645.184 785.373C645.584 785.773 648.25 787.773 651.184 790.04C654.117 792.173 656.784 794.306 657.184 794.706C658.384 796.04 700.384 827.373 701.85 827.906C702.517 828.173 703.45 828.84 703.85 829.373C704.25 829.906 706.65 831.773 709.317 833.506C711.984 835.24 717.45 838.973 721.584 841.64C725.717 844.306 729.984 848.173 731.317 850.04C732.784 852.173 734.65 853.373 737.05 853.373C739.05 853.373 741.184 853.906 741.984 854.573C742.65 855.24 747.45 858.04 752.517 860.706C764.784 867.24 764.917 867.373 761.45 871.106C758.117 874.573 757.717 877.373 760.117 879.773C762.784 882.44 765.45 881.64 770.784 876.44C775.584 871.773 775.85 871.64 780.917 873.106C783.85 874.04 787.984 874.706 790.25 874.706C795.717 874.706 796.65 876.706 793.184 880.306C787.184 886.573 786.917 893.373 792.517 893.373C794.517 893.373 798.117 890.706 803.05 885.106C809.184 878.44 810.517 876.173 810.25 872.84C809.85 869.24 810.917 868.173 821.85 860.44C842.65 845.773 853.317 836.04 897.184 792.173C925.05 764.173 967.45 720.306 975.717 710.84C977.05 709.373 981.85 704.04 986.517 699.106C991.184 694.04 1002.52 681.906 1011.72 672.04C1060.92 619.373 1098.65 581.24 1101.18 581.64C1102.52 581.906 1103.45 584.306 1103.98 589.373C1109.85 639.773 1110.92 655.106 1113.18 718.04C1117.18 826.04 1112.65 1027.91 1105.18 1074.17C1104.38 1078.57 1103.85 1084.71 1103.85 1087.77C1103.85 1090.71 1103.32 1096.04 1102.65 1099.64C1101.85 1103.11 1100.38 1111.77 1099.18 1118.71C1094.92 1143.24 1090.92 1152.04 1076.92 1166.57C1069.58 1174.17 1054.52 1185.77 1045.72 1190.84C1033.05 1198.04 1015.45 1206.57 1003.85 1211.24C996.917 1214.04 989.984 1216.84 988.517 1217.51C986.117 1218.44 967.584 1224.57 950.517 1229.91C947.184 1230.97 935.584 1233.91 924.517 1236.71C913.584 1239.37 902.384 1242.04 899.85 1242.71C893.584 1244.31 867.45 1249.51 859.184 1250.84C855.584 1251.37 848.65 1252.44 843.85 1253.24C827.45 1255.91 807.184 1258.84 797.184 1260.04C719.85 1269.11 668.384 1272.04 587.85 1272.04C490.917 1272.04 412.65 1266.04 329.85 1251.91C320.384 1250.31 310.117 1248.31 299.184 1246.04C294.784 1245.11 287.584 1243.51 283.184 1242.71C276.25 1241.24 262.65 1237.77 246.517 1233.37C232.117 1229.51 198.384 1218.31 189.85 1214.71C188.384 1214.04 184.25 1212.17 180.517 1210.71C159.984 1201.91 133.184 1186.84 122.784 1178.31C104.517 1163.11 94.3836 1150.04 88.9169 1134.71C83.8503 1120.31 77.9836 1087.11 72.6503 1041.37C71.5836 1032.17 70.2503 1021.64 69.8503 1018.04C69.3169 1014.31 68.3836 1005.37 67.7169 998.04C65.3169 971.106 63.9836 956.306 62.6503 939.373C61.7169 929.773 60.5169 916.573 59.8503 909.773C59.0503 903.106 58.5169 893.773 58.5169 889.106C58.5169 884.44 57.9836 874.44 57.1836 866.706C55.1836 845.106 52.9169 798.173 53.8503 795.773C54.2503 794.706 57.8503 792.04 61.5836 789.906C68.6503 786.173 107.984 761.506 109.184 760.173C109.584 759.64 112.517 757.64 115.85 755.506C123.584 750.573 197.717 698.04 226.517 677.24C238.65 668.44 249.984 660.306 251.85 658.973C253.717 657.773 259.317 653.506 264.517 649.64C269.584 645.906 274.25 642.706 274.784 642.706C276.784 642.706 275.717 647.373 273.184 650.706C268.384 656.84 271.317 666.706 276.784 663.24C279.984 661.24 297.184 633.506 297.184 630.44C297.184 626.84 302.384 622.306 322.917 607.64C345.984 591.373 344.384 592.173 343.317 596.573C342.784 598.573 340.917 602.573 339.184 605.506C335.184 611.64 334.917 615.506 338.384 617.24C340.25 618.306 341.717 618.04 344.384 615.906C346.25 614.44 347.85 612.573 347.85 611.906C347.85 611.106 351.45 605.106 355.85 598.44C360.784 590.973 363.85 584.84 363.85 582.573C363.85 579.506 365.584 577.64 374.117 571.64C385.584 563.506 384.517 563.506 394.117 572.173Z" fill="#E4542F"/>
<path d="M767.851 34.0396C765.584 36.8396 767.184 40.3063 770.651 39.773C774.784 39.2396 777.184 35.1063 774.517 33.373C771.717 31.5063 769.717 31.773 767.851 34.0396Z" fill="#E4542F"/>
<path d="M738.25 42.8396C734.65 44.8396 735.184 49.3729 739.05 49.3729C742.784 49.3729 745.85 46.1729 744.65 43.3729C743.85 41.1063 741.584 40.8396 738.25 42.8396Z" fill="#E4542F"/>
<path d="M796.917 48.1729C793.051 50.4396 793.984 53.3729 798.517 53.3729C803.051 53.3729 805.451 49.9063 802.384 47.9063C800.117 46.4396 799.717 46.4396 796.917 48.1729Z" fill="#E4542F"/>
<path d="M766.25 59.2396C762.383 62.0396 763.183 65.3729 767.717 65.3729C771.45 65.3729 773.183 63.5063 773.183 59.2396C773.183 56.8396 769.317 56.8396 766.25 59.2396Z" fill="#E4542F"/>
<path d="M525.183 61.3728C522.65 62.0395 515.717 63.5062 509.85 64.8395C486.517 69.7728 482.383 71.6395 485.183 76.0395C486.117 77.5062 488.517 77.2395 498.117 74.8395C514.783 70.7062 519.717 69.6395 526.65 68.7062C530.117 68.3062 533.983 67.1062 535.317 66.1728C537.317 64.5728 537.45 64.0395 535.983 62.1728C533.983 59.9062 532.25 59.7728 525.183 61.3728Z" fill="#E4542F"/>
<path d="M707.183 68.9729C693.983 71.7729 666.517 86.9729 666.517 91.3729C666.517 95.5062 670.383 94.7062 680.65 88.4396C686.517 84.9729 696.383 80.3062 702.783 78.1729C714.117 74.3062 717.717 71.3729 714.25 69.1062C712.383 68.0396 711.45 68.0396 707.183 68.9729Z" fill="#E4542F"/>
<path d="M469.45 78.1728C467.183 79.7728 466.783 80.7062 467.85 82.7062C468.65 84.1728 470.117 84.8395 471.717 84.4395C475.183 83.5062 476.383 80.0395 474.25 77.7728C472.783 76.3062 471.983 76.4395 469.45 78.1728Z" fill="#E4542F"/>
<path d="M653.983 100.84C652.517 104.706 653.183 106.706 655.85 106.706C658.65 106.706 661.85 102.173 660.517 100.04C659.183 97.9063 654.917 98.4396 653.983 100.84Z" fill="#E4542F"/>
<path d="M565.184 107.106C553.851 110.84 543.717 114.573 542.917 115.106C540.517 116.573 540.784 119.64 543.184 120.573C545.051 121.24 555.717 118.306 564.517 114.706C565.984 114.173 572.651 111.906 579.184 109.773C588.784 106.706 591.184 105.373 591.184 103.24C591.184 99.1064 587.051 99.6397 565.184 107.106Z" fill="#E4542F"/>
<path d="M716.517 109.906C711.05 110.84 708.384 112.04 708.117 113.506C707.85 114.706 708.517 116.04 709.45 116.306C710.384 116.706 722.25 116.306 735.85 115.506C759.85 114.04 760.517 113.906 760.917 110.973C761.317 108.04 761.317 108.04 742.917 108.173C732.784 108.306 720.917 108.973 716.517 109.906Z" fill="#E4542F"/>
<path d="M691.051 116.573C689.317 118.44 691.051 122.706 693.451 122.706C695.984 122.706 699.717 118.573 698.917 116.573C698.117 114.306 693.051 114.173 691.051 116.573Z" fill="#E4542F"/>
<path d="M160.783 154.306C159.183 155.773 159.85 159.64 161.983 161.373C163.583 162.84 164.383 162.84 165.983 161.106C167.717 159.506 167.85 158.44 166.65 156.173C165.05 153.373 162.517 152.573 160.783 154.306Z" fill="#E4542F"/>
<path d="M206.117 166.84C203.317 168.44 203.183 172.44 205.85 174.706C208.25 176.706 210.517 175.373 210.517 171.64C210.517 167.106 208.917 165.373 206.117 166.84Z" fill="#E4542F"/>
<path d="M1005.98 169.64C1004.78 171.24 1003.85 174.573 1003.85 176.973C1003.85 181.506 1000.65 199.773 998.517 208.173C996.384 216.173 996.784 220.04 999.851 220.04C1003.45 220.04 1004.38 217.506 1007.05 202.04C1008.38 194.706 1009.98 186.573 1010.65 184.04C1012.38 178.306 1011.72 167.773 1009.58 167.106C1008.78 166.84 1007.18 167.906 1005.98 169.64Z" fill="#E4542F"/>
<path d="M256.117 172.306C254.117 174.306 253.984 191.906 255.984 201.639C259.584 220.039 260.517 222.973 262.25 223.639C266.384 225.373 267.05 221.773 264.784 209.773C263.584 203.239 262.384 192.706 262.117 186.306C261.45 173.906 259.45 168.973 256.117 172.306Z" fill="#E4542F"/>
<path d="M169.717 184.573C168.917 186.706 182.383 214.84 188.917 224.573C190.917 227.506 193.45 230.04 194.517 230.04C197.983 230.04 197.45 225.506 192.917 217.773C190.517 213.506 185.583 204.04 181.85 196.706C175.317 183.773 171.583 179.906 169.717 184.573Z" fill="#E4542F"/>
<path d="M950.117 190.306C948.384 191.906 949.184 197.506 951.317 198.306C954.384 199.373 956.384 196.706 955.317 192.84C954.517 189.506 951.984 188.306 950.117 190.306Z" fill="#E4542F"/>
<path d="M209.184 198.04C207.717 199.773 207.717 201.506 209.05 207.106C211.984 219.906 215.717 232.573 219.45 242.306C221.05 246.84 222.25 248.04 224.65 248.04C226.384 248.04 227.85 247.506 227.85 246.706C227.85 245.64 224.917 236.04 217.184 211.24C216.384 208.973 215.85 205.64 215.85 203.773C215.85 201.906 214.784 199.506 213.317 198.173C211.184 196.173 210.784 196.173 209.184 198.04Z" fill="#E4542F"/>
<path d="M885.317 198.573C884.517 199.906 884.117 210.973 884.25 224.706C884.65 249.24 885.317 251.906 889.85 248.04C892.517 245.906 892.783 200.173 890.25 197.64C887.983 195.373 886.783 195.64 885.317 198.573Z" fill="#E4542F"/>
<path d="M725.184 203.373C722.784 206.306 724.784 210.973 728.251 210.44C733.184 209.773 732.651 201.506 727.717 201.373C727.184 201.373 726.117 202.306 725.184 203.373Z" fill="#E4542F"/>
<path d="M345.317 204.44C342.25 207.506 344.783 213.906 348.65 212.44C349.717 212.04 350.517 210.04 350.517 208.04C350.517 204.04 347.717 202.04 345.317 204.44Z" fill="#E4542F"/>
<path d="M538.117 204.973C536.25 206.706 537.184 210.573 539.717 211.906C541.584 212.973 542.65 212.84 543.85 211.373C546.65 207.906 541.184 201.773 538.117 204.973Z" fill="#E4542F"/>
<path d="M464.25 206.306C461.317 207.373 462.25 213.106 465.317 214.04C469.45 215.373 471.45 212.84 469.183 208.706C467.317 205.24 467.05 205.106 464.25 206.306Z" fill="#E4542F"/>
<path d="M688.384 209.906C687.05 213.373 688.384 216.706 691.184 216.706C693.317 216.706 693.85 215.773 693.85 212.706C693.85 208.306 689.85 206.173 688.384 209.906Z" fill="#E4542F"/>
<path d="M994.117 230.306C993.584 230.706 993.184 232.84 993.184 234.973C993.184 239.906 998.117 240.306 999.317 235.506C1000.52 230.573 997.05 227.24 994.117 230.306Z" fill="#E4542F"/>
<path d="M553.717 232.706C553.051 234.173 557.584 241.906 561.184 245.373C561.584 245.773 564.251 248.973 567.051 252.706C574.384 262.04 585.451 273.373 587.317 273.373C588.251 273.373 589.317 272.44 589.717 271.24C590.251 269.773 587.851 265.906 582.117 259.373C577.451 254.04 570.384 245.506 566.384 240.306C559.317 231.106 555.184 228.573 553.717 232.706Z" fill="#E4542F"/>
<path d="M266.517 237.373C266.517 241.773 269.717 244.04 272.117 241.64C274.383 239.373 272.25 233.373 269.183 233.373C267.05 233.373 266.517 234.306 266.517 237.373Z" fill="#E4542F"/>
<path d="M726.784 259.64C727.184 284.973 727.317 286.04 729.85 286.04C732.384 286.04 732.517 284.973 732.917 270.706C733.184 262.306 732.917 250.44 732.517 244.306C731.717 234.706 731.317 233.373 729.05 233.373C726.517 233.373 726.517 234.44 726.784 259.64Z" fill="#E4542F"/>
<path d="M473.184 237.373C471.051 238.706 470.517 237.106 481.184 258.706C491.317 279.106 495.451 284.573 499.317 283.106C501.717 282.173 500.784 278.706 496.117 271.506C491.851 264.706 479.851 240.706 479.851 238.973C479.851 238.306 478.917 237.24 477.717 236.84C475.184 235.906 475.584 235.773 473.184 237.373Z" fill="#E4542F"/>
<path d="M201.184 239.773C201.184 242.84 203.717 245.373 206.784 245.373C209.584 245.373 209.984 241.373 207.584 238.973C205.184 236.573 201.184 236.973 201.184 239.773Z" fill="#E4542F"/>
<path d="M687.717 242.173C686.117 246.44 686.25 247.24 688.117 249.106C690.517 251.506 694.517 248.573 694.517 244.173C694.517 238.84 689.584 237.506 687.717 242.173Z" fill="#E4542F"/>
<path d="M880.384 262.173C879.317 266.04 881.317 268.706 884.384 267.64C885.717 267.106 886.517 265.24 886.517 262.706C886.517 257.373 881.717 256.973 880.384 262.173Z" fill="#E4542F"/>
<path d="M596.25 278.306C594.117 279.106 593.984 282.973 596.117 285.106C598.917 287.906 602.517 286.973 602.517 283.373C602.517 280.04 599.05 277.24 596.25 278.306Z" fill="#E4542F"/>
<path d="M503.851 293.106C503.851 296.173 506.384 298.706 509.451 298.706C512.251 298.706 512.651 294.706 510.251 292.306C507.851 289.906 503.851 290.306 503.851 293.106Z" fill="#E4542F"/>
<path d="M727.45 296.973C726.917 297.373 726.517 299.506 726.517 301.64C726.517 306.573 731.45 306.973 732.65 302.173C733.85 297.24 730.383 293.906 727.45 296.973Z" fill="#E4542F"/>
<path d="M617.584 302.173C616.651 304.573 620.117 308.173 642.251 327.773C652.251 336.706 655.051 338.573 656.517 337.373C659.451 334.973 657.584 332.573 639.851 315.906C623.584 300.573 619.184 297.906 617.584 302.173Z" fill="#E4542F"/>
<path d="M663.851 346.44C663.851 349.24 666.251 352.04 668.651 352.04C671.051 352.04 672.117 348.04 670.384 345.906C668.117 343.24 663.851 343.506 663.851 346.44Z" fill="#E4542F"/>
<path d="M274.517 301.639C257.85 304.439 244.25 309.373 229.183 318.039C222.25 322.039 209.717 334.573 207.05 340.173C196.25 362.573 200.517 389.106 217.717 407.773C222.25 412.706 247.45 430.706 249.717 430.706C250.117 430.706 253.85 432.306 258.117 434.173C272.917 440.839 276.917 442.439 283.183 444.039C285.45 444.706 290.517 446.039 294.517 447.106C308.917 450.973 323.45 453.239 339.183 454.039C359.05 455.106 377.583 453.506 408.25 448.039C412.383 447.373 419.317 446.173 423.583 445.373C436.517 443.239 454.783 440.039 461.85 438.573C465.583 437.906 471.85 436.706 475.85 435.906C499.45 431.373 505.183 428.173 505.183 419.506C505.183 414.306 504.383 413.239 495.05 404.306C446.25 357.373 375.05 314.573 330.517 305.239C306.517 300.306 289.317 299.106 274.517 301.639ZM317.85 323.773C321.583 324.439 327.85 326.039 331.85 327.373C335.85 328.573 340.783 329.906 342.917 330.306C344.917 330.706 346.917 331.506 347.317 332.173C347.717 332.839 348.783 333.373 349.85 333.373C353.583 333.373 384.517 348.439 399.183 357.373C416.917 368.306 438.917 383.639 450.383 393.106C475.983 414.173 476.783 415.239 467.583 416.439C464.383 416.973 457.05 418.173 451.183 419.373C438.917 421.773 429.317 423.506 417.85 425.239C413.45 425.906 402.65 427.773 393.85 429.239C361.317 434.573 352.65 435.239 335.983 433.373C283.05 427.639 234.25 405.106 224.517 381.906C221.85 375.506 221.85 357.906 224.517 351.639C228.917 340.973 249.85 328.173 270.517 323.373C278.783 321.373 307.183 321.639 317.85 323.773Z" fill="#E4542F"/>
<path d="M877.85 320.306C866.517 322.44 851.317 325.64 847.183 326.706C806.25 338.173 783.983 346.84 745.183 365.773C737.45 369.506 727.983 374.573 724.117 376.973C720.25 379.373 716.783 381.373 716.383 381.373C713.983 381.373 683.85 404.44 678.25 410.573C661.183 429.373 663.05 444.44 683.85 453.773C690.783 456.973 705.183 461.64 711.183 462.706C719.05 464.306 749.85 469.24 759.85 470.706C764.65 471.373 772.783 472.573 778.117 473.373C805.983 477.373 886.517 471.906 916.517 463.906C924.25 461.906 944.117 455.64 946.517 454.573C977.05 440.44 991.717 426.706 1001.05 403.64C1003.05 398.706 1002.92 379.373 1000.92 373.506C992.783 349.906 966.25 329.24 932.917 320.706C923.983 318.44 889.45 318.173 877.85 320.306ZM930.783 341.24C959.717 352.44 970.783 360.04 978.65 374.04C980.917 378.173 981.583 381.506 981.583 388.706C981.583 398.44 979.85 402.973 972.25 412.973C968.917 417.24 951.05 429.906 943.85 432.973C934.25 437.106 929.317 438.84 916.517 442.573C905.983 445.64 883.05 449.106 852.517 451.906C833.983 453.773 784.517 453.773 774.65 452.04C770.517 451.373 763.05 450.173 757.85 449.506C737.717 446.573 721.583 443.906 716.917 442.706C697.85 437.773 689.183 434.173 689.183 431.373C689.183 427.906 698.65 418.706 711.983 409.24C719.05 404.173 725.183 400.04 725.717 400.04C726.25 400.04 729.717 398.04 733.583 395.64C737.45 393.24 749.183 386.973 759.85 381.773C806.383 358.973 857.05 342.84 892.517 339.506C900.783 338.706 927.317 339.906 930.783 341.24Z" fill="#E4542F"/>
<path d="M989.85 495.24C987.717 496.84 987.717 496.973 989.85 499.24C992.65 501.906 996.25 501.506 996.917 498.44C997.583 495.24 992.783 492.973 989.85 495.24Z" fill="#E4542F"/>
<path d="M1016.78 508.973C1014.92 510.706 1015.98 512.04 1023.58 517.64C1032.52 524.306 1036.52 527.64 1046.65 536.973C1054.38 544.306 1058.52 545.906 1058.52 541.64C1058.52 538.84 1043.72 523.773 1034.52 517.106C1031.18 514.706 1028.25 512.44 1027.85 511.906C1025.58 509.106 1018.52 507.106 1016.78 508.973Z" fill="#E4542F"/>
<path d="M914.917 515.506C913.717 518.706 918.117 521.64 921.45 519.906C923.983 518.573 923.983 518.306 921.717 515.906C918.917 512.84 915.983 512.573 914.917 515.506Z" fill="#E4542F"/>
<path d="M525.451 524.306C524.517 525.24 523.851 527.373 523.851 529.106C523.851 531.64 524.517 532.173 526.917 531.773C529.184 531.506 529.851 530.44 529.851 527.506C529.851 523.24 527.984 521.773 525.451 524.306Z" fill="#E4542F"/>
<path d="M940.783 531.64C938.65 533.64 940.25 536.44 946.65 542.44C953.183 548.44 964.25 560.84 969.85 568.44C973.183 572.973 977.183 573.24 977.183 568.973C977.183 564.44 958.117 541.906 947.317 533.64C943.183 530.573 942.117 530.173 940.783 531.64Z" fill="#E4542F"/>
<path d="M1063.98 551.24C1061.85 553.773 1066.25 559.24 1069.58 558.04C1072.52 556.84 1072.52 554.306 1069.45 551.64C1066.52 548.84 1065.98 548.84 1063.98 551.24Z" fill="#E4542F"/>
<path d="M510.917 553.64C510.117 554.573 509.184 556.573 508.784 558.04C504.25 573.773 504.117 574.573 505.85 576.04C508.117 577.906 511.85 576.306 511.85 573.506C511.85 572.306 513.05 567.773 514.517 563.506C515.984 559.106 517.184 554.84 517.184 553.773C517.184 551.64 512.65 551.506 510.917 553.64Z" fill="#E4542F"/>
<path d="M981.583 580.173C979.717 582.04 982.117 588.04 984.783 588.04C987.317 588.04 988.517 584.173 986.917 581.64C985.183 578.84 983.45 578.306 981.583 580.173Z" fill="#E4542F"/>
<path d="M579.984 628.84C573.984 635.24 569.184 641.106 569.184 641.906C569.184 644.573 572.25 646.706 576.25 646.706C578.517 646.706 579.717 647.24 579.184 648.173C578.117 649.906 582.25 654.706 584.784 654.706C587.584 654.706 615.717 634.44 616.65 631.773C617.45 629.106 615.05 624.04 613.05 624.04C612.25 624.04 605.984 628.04 599.184 632.84C587.584 641.106 585.717 642.04 584.917 640.973C584.65 640.706 587.584 636.973 591.184 632.84C599.717 622.973 600.384 621.64 598.517 619.24C594.917 615.106 590.917 617.106 579.984 628.84Z" fill="#E4542F"/>
<path d="M620.517 642.44C619.05 642.706 616.117 644.44 613.717 646.173C611.45 647.906 608.917 649.373 608.117 649.373C607.183 649.373 606.517 649.906 606.517 650.706C606.517 651.373 605.85 652.04 605.05 652.04C604.25 652.04 601.717 653.506 599.317 655.373C596.917 657.24 594.383 658.706 593.583 658.706C591.583 658.706 588.783 664.973 589.583 667.373C591.183 671.24 594.25 670.973 601.717 666.173C605.85 663.506 609.45 661.373 609.85 661.373C610.117 661.373 614.383 658.573 619.183 655.24C628.117 648.973 630.117 645.24 625.583 642.973C624.25 642.306 621.983 642.04 620.517 642.44Z" fill="#E4542F"/>
<path d="M630.517 656.573C628.651 657.506 625.051 659.64 622.517 661.106C619.984 662.706 616.917 664.44 615.851 664.84C612.117 666.573 607.851 671.106 607.851 673.64C607.851 676.706 613.717 678.173 617.584 676.173C624.384 672.84 636.117 665.64 638.517 663.64C645.317 657.906 638.651 652.173 630.517 656.573Z" fill="#E4542F"/>
<path d="M659.317 674.44C657.984 674.706 654.65 676.173 651.984 677.64C649.317 679.24 644.25 682.04 640.517 683.906C626.517 691.373 623.717 694.706 628.517 698.706C630.65 700.44 638.517 699.373 638.517 697.24C638.517 696.573 639.45 696.04 640.517 696.04C641.584 696.04 642.517 696.573 642.517 697.373C642.517 698.04 641.85 698.706 641.05 698.706C639.317 698.706 634.65 704.173 634.517 706.306C634.517 709.373 638.65 712.04 641.984 711.24C644.25 710.706 646.117 711.24 647.984 712.84C650.65 715.24 650.917 715.24 660.117 710.306C665.317 707.64 669.85 705.64 670.25 705.906C670.917 706.573 662.384 714.706 661.05 714.706C659.317 714.706 654.517 719.773 654.517 721.64C654.517 724.306 657.184 726.706 660.117 726.706C663.05 726.706 689.584 708.44 691.717 704.973C693.584 702.04 691.717 697.906 687.85 696.706C686.384 696.306 685.184 694.706 685.184 693.373C685.184 689.24 681.45 686.44 678.384 688.173C675.05 689.906 671.85 688.84 671.85 686.173C671.85 685.106 670.784 683.906 669.317 683.373C667.984 682.973 666.517 680.973 666.117 678.84C665.317 674.706 663.317 673.506 659.317 674.44ZM675.85 703.24C675.85 703.64 675.317 704.306 674.517 704.706C673.85 705.106 673.184 704.84 673.184 704.173C673.184 703.373 673.85 702.706 674.517 702.706C675.317 702.706 675.85 702.973 675.85 703.24Z" fill="#E4542F"/>
<path d="M687.984 718.84C670.117 730.84 667.584 734.173 673.451 737.906C675.851 739.373 681.717 737.24 687.184 732.84C688.651 731.64 694.251 727.64 699.584 724.04C709.051 717.373 710.917 714.306 707.584 710.973C704.784 708.173 702.251 709.24 687.984 718.84Z" fill="#E4542F"/>
<path d="M717.85 733.373C716.383 734.04 710.517 738.04 704.917 742.306C699.317 746.573 693.45 750.973 691.983 751.906C688.383 754.573 687.583 756.973 689.183 760.173C691.183 763.773 694.65 763.373 700.65 758.706C703.45 756.573 708.517 752.84 711.85 750.573C720.783 744.306 725.183 739.773 725.183 737.106C725.183 734.04 721.183 732.04 717.85 733.373Z" fill="#E4542F"/>
<path d="M729.183 754.04C713.583 765.24 711.45 768.04 715.183 772.04C717.983 775.24 718.783 774.84 737.183 761.64C748.25 753.64 749.85 752.04 749.85 748.573C749.85 741.506 744.917 742.84 729.183 754.04Z" fill="#E4542F"/>
<path d="M754.383 769.906C744.783 775.24 742.517 777.106 742.517 780.04C742.517 784.973 749.85 785.373 757.183 780.706C760.117 778.84 762.917 777.373 763.45 777.373C764.117 777.373 765.983 776.173 767.717 774.84C770.25 772.973 770.65 771.64 769.983 768.84C768.783 764.173 764.117 764.44 754.383 769.906Z" fill="#E4542F"/>
<path d="M773.85 782.44C773.05 783.106 769.85 784.706 766.517 786.04C763.184 787.373 758.517 789.906 756.117 791.64C752.517 794.306 752.117 795.24 753.184 797.506C755.184 800.973 760.384 800.706 768.384 796.706C771.984 794.84 775.717 793.373 776.517 793.373C777.45 793.373 779.717 791.773 781.584 789.906C784.517 786.973 784.784 786.04 783.45 783.906C781.85 781.373 776.117 780.44 773.85 782.44Z" fill="#E4542F"/>
<path d="M144.784 464.973C144.251 465.373 143.851 467.24 143.851 468.973C143.851 471.106 144.651 472.04 146.384 472.04C149.584 472.04 152.384 468.706 151.317 466.04C150.651 464.04 146.384 463.24 144.784 464.973Z" fill="#E4542F"/>
<path d="M119.317 486.44C115.317 490.706 114.917 492.706 118.117 493.906C119.45 494.44 121.583 493.506 124.117 491.106C128.517 486.973 128.65 485.906 125.317 484.173C123.45 483.106 122.117 483.64 119.317 486.44Z" fill="#E4542F"/>
<path d="M168.384 493.506C166.25 495.773 166.25 496.44 167.85 497.373C170.65 499.24 172.65 498.973 174.517 496.706C176.384 494.44 175.317 490.706 172.784 490.706C171.717 490.706 169.85 491.906 168.384 493.506Z" fill="#E4542F"/>
<path d="M138.384 522.306C121.851 539.373 115.851 546.706 115.851 550.173C115.851 554.84 119.851 554.173 123.851 548.973C127.051 544.84 133.184 538.173 146.917 523.506C153.184 516.84 154.384 513.106 150.517 512.306C149.451 512.173 143.984 516.573 138.384 522.306Z" fill="#E4542F"/>
<path d="M105.451 561.64C103.317 563.773 103.451 567.64 105.717 568.44C106.784 568.84 108.651 568.04 109.851 566.706C113.851 562.306 109.584 557.506 105.451 561.64Z" fill="#E4542F"/>
<path d="M419.051 628.706C405.451 643.106 403.851 645.773 407.051 649.24C409.851 652.306 412.651 651.64 417.051 646.84C418.917 644.973 424.651 638.84 429.984 633.24C437.584 625.373 439.584 622.573 438.917 620.306C438.384 618.04 437.184 617.373 433.984 617.373C430.517 617.373 428.117 619.106 419.051 628.706Z" fill="#E4542F"/>
<path d="M326.917 627.64C325.451 629.773 322.651 634.84 320.517 638.973C317.451 645.24 317.051 646.973 318.517 648.706C320.517 651.106 323.717 651.24 326.517 648.973C329.051 646.973 335.851 633.373 335.851 630.44C335.851 623.373 330.917 621.906 326.917 627.64Z" fill="#E4542F"/>
<path d="M369.85 625.773C366.783 629.239 363.716 637.639 364.516 640.039C365.583 643.373 370.783 643.506 373.316 640.306C377.316 635.373 379.983 629.239 379.183 626.706C378.25 623.639 372.116 623.106 369.85 625.773Z" fill="#E4542F"/>
<path d="M1079.32 630.173C1078.25 632.973 1078.52 650.706 1079.72 660.573C1080.78 668.973 1083.32 672.306 1087.85 671.106C1090.25 670.44 1090.52 669.24 1090.52 659.64C1090.52 648.173 1088.25 632.44 1086.12 629.64C1084.38 627.373 1080.25 627.64 1079.32 630.173Z" fill="#E4542F"/>
<path d="M1043.45 641.506C1039.98 643.506 1040.78 647.906 1045.58 653.906C1050.65 660.173 1054.52 669.106 1054.52 674.573C1054.52 679.373 1057.45 681.906 1061.85 680.839C1064.78 680.039 1065.18 679.373 1065.18 673.373C1065.18 669.773 1064.65 666.439 1063.85 666.039C1063.18 665.639 1062.52 664.039 1062.52 662.573C1062.52 658.039 1052.78 644.039 1047.85 641.373C1046.65 640.706 1044.78 640.839 1043.45 641.506Z" fill="#E4542F"/>
<path d="M310.783 662.306C309.05 662.973 302.517 676.306 302.517 679.239C302.517 682.039 306.117 684.306 309.183 683.373C312.117 682.439 317.183 672.573 317.183 667.773C317.183 666.039 316.517 663.906 315.583 662.973C313.85 661.239 313.45 661.239 310.783 662.306Z" fill="#E4542F"/>
<path d="M451.583 662.973C449.183 664.84 441.983 676.04 435.717 687.24C431.717 694.573 431.717 697.773 435.717 699.906C437.717 701.106 442.517 698.973 442.517 696.973C442.517 696.44 444.65 692.84 447.183 688.84C449.717 684.84 451.85 681.106 451.85 680.573C451.85 680.04 453.317 677.773 455.05 675.506C459.183 669.906 460.383 665.64 458.517 663.373C456.517 660.973 454.383 660.84 451.583 662.973Z" fill="#E4542F"/>
<path d="M262.117 671.24C258.384 675.24 251.851 687.906 251.851 690.973C251.851 694.306 256.784 696.706 259.317 694.573C263.317 691.24 270.784 676.04 269.984 672.84C268.784 668.173 265.584 667.506 262.117 671.24Z" fill="#E4542F"/>
<path d="M497.183 691.373C491.85 697.773 478.517 721.106 478.783 723.373C479.05 725.24 480.383 726.173 483.317 726.44C487.183 726.84 487.85 726.173 493.317 717.106C496.517 711.773 500.517 705.373 502.25 703.106C503.983 700.706 505.583 696.84 505.583 694.44C505.85 690.706 505.317 690.04 502.383 689.64C500.383 689.373 498.25 690.173 497.183 691.373Z" fill="#E4542F"/>
<path d="M532.783 727.106C530.383 728.973 520.383 744.706 515.85 753.773C512.383 760.839 513.05 764.306 518.383 765.106C520.383 765.506 521.85 764.439 523.583 761.373C524.783 758.973 529.05 752.039 532.917 745.773C536.65 739.639 539.85 733.106 539.85 731.373C539.85 727.239 535.717 724.839 532.783 727.106Z" fill="#E4542F"/>
<path d="M187.05 742.439C184.65 744.039 183.984 747.639 185.717 750.039C189.05 754.706 196.784 749.239 193.717 744.306C191.984 741.773 189.184 740.839 187.05 742.439Z" fill="#E4542F"/>
<path d="M575.45 753.64C569.584 762.44 561.184 778.706 561.184 781.506C561.184 784.44 564.517 787.106 567.317 786.44C568.517 786.173 571.85 781.506 574.784 776.04C577.717 770.573 581.85 763.24 583.984 759.906C588.25 753.24 588.65 750.706 586.25 748.306C583.184 745.24 580.25 746.706 575.45 753.64Z" fill="#E4542F"/>
<path d="M157.05 759.24C148.383 766.04 146.917 768.706 149.983 772.173C152.917 775.506 153.85 775.373 159.583 770.973C171.183 762.306 173.717 759.106 172.383 755.506C170.917 751.64 164.783 753.106 157.05 759.24Z" fill="#E4542F"/>
<path d="M130.65 783.64C117.717 796.84 113.184 802.973 113.184 806.84C113.184 809.506 113.984 810.84 116.117 811.506C118.517 812.173 120.25 810.973 126.384 803.906C130.517 799.373 136.384 792.84 139.584 789.64C145.317 783.506 146.384 780.44 143.584 777.64C140.65 774.706 138.25 775.906 130.65 783.64Z" fill="#E4542F"/>
<path d="M199.984 780.573C197.317 783.64 198.65 788.573 202.25 789.106C206.517 789.773 209.45 786.973 208.917 782.84C208.65 780.173 207.717 779.24 205.05 778.973C203.184 778.706 200.917 779.506 199.984 780.573Z" fill="#E4542F"/>
<path d="M604.65 784.84C601.584 787.906 594.517 798.306 594.517 799.773C594.517 800.44 593.717 801.773 592.784 802.573C591.717 803.373 589.584 806.706 587.85 810.173C584.384 816.84 585.05 820.306 590.25 821.106C593.317 821.64 593.984 820.84 605.184 802.44C613.45 789.106 614.25 786.973 611.584 784.306C609.45 782.173 607.184 782.306 604.65 784.84Z" fill="#E4542F"/>
<path d="M179.184 793.64C174.251 796.44 163.851 807.106 163.851 809.24C163.851 810.44 165.051 812.173 166.651 813.106C169.717 815.106 169.051 815.373 180.917 805.506C187.851 799.773 189.184 796.573 186.251 793.64C184.251 791.64 182.651 791.64 179.184 793.64Z" fill="#E4542F"/>
<path d="M650.517 813.24C649.317 813.64 642.517 819.106 635.451 825.24C624.384 834.706 622.384 836.973 622.784 839.906C623.451 845.373 628.251 845.106 635.584 839.24C647.317 829.773 657.184 819.64 657.184 817.24C657.184 814.306 653.317 812.04 650.517 813.24Z" fill="#E4542F"/>
<path d="M140.65 829.506C130.117 840.573 127.85 843.773 128.117 846.573C128.384 849.106 129.317 850.173 131.85 850.44C134.65 850.706 137.45 848.573 147.184 838.04C153.85 830.973 159.584 824.173 159.984 822.973C161.05 820.04 158.517 816.04 155.717 816.04C154.517 816.04 147.717 822.173 140.65 829.506Z" fill="#E4542F"/>
<path d="M221.983 822.306C218.383 823.239 208.383 828.973 199.45 835.106C193.183 839.506 191.85 841.106 192.117 843.773C192.917 850.173 195.983 850.173 205.85 843.639C211.05 840.439 218.517 835.906 222.517 833.773C230.117 829.639 231.983 826.706 229.183 823.373C227.45 821.373 226.383 821.239 221.983 822.306Z" fill="#E4542F"/>
<path d="M676.117 834.706C670.917 838.306 665.984 841.373 665.184 841.373C664.517 841.373 663.85 841.906 663.85 842.44C663.85 843.106 662.25 844.44 660.384 845.373C653.45 849.24 653.45 856.04 660.517 856.04C664.117 856.04 691.317 838.306 693.184 834.706C694.117 832.84 693.984 831.64 692.384 830.173C689.05 826.84 686.25 827.64 676.117 834.706Z" fill="#E4542F"/>
<path d="M173.317 855.506C165.184 861.24 159.851 867.373 159.851 870.973C159.851 874.173 160.384 874.706 163.717 874.706C166.784 874.706 169.717 872.84 175.984 866.706C184.251 858.973 184.251 858.706 181.851 856.04C178.917 852.84 177.451 852.706 173.317 855.506Z" fill="#E4542F"/>
<path d="M708.251 868.306C701.451 875.106 695.451 882.04 695.051 883.64C694.117 887.106 696.517 890.706 699.584 890.706C702.784 890.706 727.851 863.906 727.851 860.573C727.851 857.906 725.584 856.04 722.251 856.04C721.451 856.04 715.184 861.506 708.251 868.306Z" fill="#E4542F"/>
<path d="M238.517 869.906C232.251 873.106 230.517 876.173 233.184 879.373C235.584 882.173 238.651 881.906 246.384 877.906C253.317 874.173 254.651 871.906 251.317 868.573C248.651 865.906 245.451 866.306 238.517 869.906Z" fill="#E4542F"/>
<path d="M134.784 891.106C123.984 901.906 122.384 904.173 122.784 907.506C123.584 914.973 127.584 913.106 142.25 898.44C157.05 883.773 158.917 879.773 151.184 878.973C147.717 878.706 145.584 880.173 134.784 891.106Z" fill="#E4542F"/>
<path d="M214.517 883.773C212.65 884.973 210.917 886.306 210.517 886.706C210.117 887.106 207.45 889.24 204.517 891.373C196.25 897.373 189.184 904.306 189.184 906.706C189.184 907.773 190.384 909.506 191.85 910.44C194.384 911.906 195.85 911.24 206.917 902.973C213.717 897.906 220.517 892.973 222.117 891.906C225.584 889.906 226.65 886.573 224.917 883.506C223.45 880.84 218.784 880.84 214.517 883.773Z" fill="#E4542F"/>
<path d="M734.117 898.44C727.05 905.506 721.184 912.306 721.184 913.506C721.184 916.173 723.85 918.706 726.517 918.706C729.984 918.706 756.384 891.24 755.317 888.573C754.917 887.506 754.517 886.173 754.517 885.906C754.517 885.64 752.917 885.373 750.784 885.373C747.984 885.373 744.384 888.173 734.117 898.44Z" fill="#E4542F"/>
<path d="M773.317 903.906C754.65 923.64 750.783 930.706 757.45 932.84C759.717 933.506 761.717 932.173 767.717 925.906C783.983 908.84 788.65 900.306 783.05 898.173C779.85 896.973 779.85 896.973 773.317 903.906Z" fill="#E4542F"/>
<path d="M164.783 925.106C156.65 933.106 155.983 934.706 159.183 937.373C162.25 939.906 166.517 938.04 174.25 930.84C179.583 925.906 181.317 923.506 180.917 921.106C180.65 918.84 179.583 917.906 176.517 917.773C173.183 917.506 171.183 918.706 164.783 925.106Z" fill="#E4542F"/>
<path d="M251.583 926.306C250.383 926.573 248.917 928.173 248.383 929.64C246.517 935.64 256.65 937.773 260.783 932.44C262.25 930.573 262.117 929.773 260.25 927.773C258.117 925.373 256.117 925.106 251.583 926.306Z" fill="#E4542F"/>
<path d="M227.85 934.44C225.317 935.64 223.05 937.106 222.784 937.64C222.517 938.306 221.717 938.706 220.917 938.706C220.25 938.706 215.45 941.373 210.384 944.706C202.917 949.506 201.05 951.373 201.45 953.64C201.984 957.773 205.584 959.64 209.45 957.64C212.917 955.773 217.584 952.973 218.517 952.04C219.584 950.973 225.05 948.04 233.584 943.773C239.584 940.706 241.184 939.373 241.184 936.84C241.184 931.64 235.717 930.706 227.85 934.44Z" fill="#E4542F"/>
<path d="M145.184 943.64C140.384 947.106 119.851 968.04 119.851 969.506C119.851 972.44 122.784 976.04 124.917 976.04C127.451 976.04 154.517 949.506 154.517 946.973C154.517 945.373 150.784 941.373 149.451 941.373C148.917 941.373 146.917 942.44 145.184 943.64Z" fill="#E4542F"/>
<path d="M179.184 969.106C170.384 977.373 168.917 979.64 169.85 982.573C171.45 987.906 177.184 986.173 185.717 977.506C194.384 968.706 195.184 964.973 188.517 964.306C185.45 964.173 183.317 965.24 179.184 969.106Z" fill="#E4542F"/>
<path d="M248.65 967.373C244.784 970.973 244.517 972.173 246.784 974.44C249.584 977.24 255.317 976.306 257.85 972.573C259.984 969.373 259.984 968.973 257.717 966.573C254.65 963.24 252.917 963.373 248.65 967.373Z" fill="#E4542F"/>
<path d="M224.25 982.84C205.85 996.84 200.65 1003.64 206.25 1006.44C209.583 1008.17 211.183 1007.37 223.85 997.106C242.917 981.906 242.783 981.906 239.05 978.173C235.85 974.973 234.117 975.506 224.25 982.84Z" fill="#E4542F"/>
<path d="M153.584 997.24C144.917 1007.91 142.25 1011.77 139.717 1017.24C136.784 1023.24 137.85 1026.97 142.25 1026.44C144.784 1026.17 147.85 1023.11 154.25 1014.04C159.05 1007.51 164.117 1000.97 165.45 999.506C168.25 996.44 168.517 993.24 166.25 990.973C163.184 987.906 159.85 989.506 153.584 997.24Z" fill="#E4542F"/>
<path d="M265.851 998.706C263.851 1000.84 263.584 1002.04 264.651 1003.77C266.651 1006.84 269.851 1007.24 274.651 1005.24C277.851 1004.04 278.517 1002.97 278.251 1000.17C277.851 997.239 277.051 996.706 273.051 996.306C269.717 996.039 267.717 996.706 265.851 998.706Z" fill="#E4542F"/>
<path d="M240.384 1017.64C227.85 1029.77 224.517 1034.84 226.517 1038.71C227.317 1040.17 228.917 1041.37 230.25 1041.37C231.45 1041.37 238.65 1035.11 246.25 1027.37C261.05 1012.31 262.517 1008.97 254.784 1008.31C250.917 1007.91 249.184 1008.97 240.384 1017.64Z" fill="#E4542F"/>
<path d="M184.117 1020.84C176.65 1029.64 174.917 1032.97 176.783 1035.77C179.983 1040.97 183.05 1039.51 192.383 1027.77C198.25 1020.44 198.517 1015.64 193.05 1014.97C190.25 1014.71 188.383 1015.91 184.117 1020.84Z" fill="#E4542F"/>
<path d="M263.45 1037.91C254.25 1043.51 241.184 1055.64 241.184 1058.71C241.184 1061.37 243.717 1064.04 246.517 1064.04C247.584 1063.91 251.984 1060.71 256.384 1056.71C260.65 1052.71 264.65 1049.37 265.317 1049.37C265.85 1049.37 267.184 1048.57 268.117 1047.64C269.184 1046.84 271.184 1045.37 272.517 1044.57C275.717 1042.84 276.65 1038.04 274.517 1035.24C272.25 1032.71 272.117 1032.71 263.45 1037.91Z" fill="#E4542F"/>
<path d="M293.85 1040.57C282.65 1047.91 273.184 1057.24 273.184 1060.84C273.184 1063.91 274.384 1064.57 279.317 1064.44C280.117 1064.44 285.317 1060.71 290.784 1056.17C296.25 1051.77 301.317 1048.04 302.117 1048.04C302.784 1048.04 304.784 1046.57 306.384 1044.84C308.917 1042.17 309.184 1041.11 307.984 1038.84C305.85 1034.97 301.584 1035.37 293.85 1040.57Z" fill="#E4542F"/>
<path d="M163.584 1047.91C155.451 1059.37 147.851 1073.64 147.851 1077.37C147.851 1080.44 148.517 1081.51 151.317 1082.17C154.917 1083.11 156.251 1081.91 160.651 1073.51C161.984 1070.84 165.584 1064.57 168.784 1059.64C174.784 1050.31 175.584 1046.97 172.917 1044.31C170.117 1041.51 167.317 1042.57 163.584 1047.91Z" fill="#E4542F"/>
<path d="M207.584 1054.97C205.184 1058.17 202.117 1061.91 200.917 1063.24C196.917 1067.64 198.651 1073.37 204.117 1073.37C206.651 1073.37 219.851 1058.31 219.851 1055.37C219.851 1047.51 213.717 1047.24 207.584 1054.97Z" fill="#E4542F"/>
<path d="M315.183 1057.64C310.65 1060.17 309.85 1062.17 311.717 1065.24C312.783 1066.97 314.917 1067.51 320.917 1067.91C322.117 1068.04 322.25 1068.71 321.183 1070.57C319.317 1074.17 319.45 1075.51 321.983 1077.91C323.85 1079.77 324.517 1079.77 329.317 1077.24C335.85 1073.91 337.05 1071.37 333.583 1067.77C331.317 1065.51 330.383 1065.37 327.983 1066.57C324.117 1068.71 322.117 1067.24 324.25 1064.04C327.45 1058.71 321.05 1054.17 315.183 1057.64Z" fill="#E4542F"/>
<path d="M287.85 1078.17C272.117 1093.24 268.25 1101.37 276.784 1101.37C279.317 1101.37 283.584 1097.91 293.45 1087.91C306.117 1075.11 306.784 1074.31 305.05 1071.24C304.117 1069.51 302.25 1068.04 300.917 1068.04C299.584 1068.04 293.717 1072.57 287.85 1078.17Z" fill="#E4542F"/>
<path d="M225.184 1073.11C218.25 1080.84 213.184 1087.91 213.184 1089.77C213.184 1090.84 214.117 1092.84 215.317 1093.91C217.184 1095.91 217.717 1095.91 221.317 1093.77C223.45 1092.44 225.184 1091.11 225.184 1090.71C225.184 1090.17 227.317 1087.37 229.85 1084.44C234.784 1078.57 235.984 1072.84 232.384 1071.51C229.184 1070.31 227.317 1070.71 225.184 1073.11Z" fill="#E4542F"/>
<path d="M254.517 1078.71C243.85 1090.04 242.517 1096.04 250.383 1096.04C253.317 1096.04 255.05 1094.97 257.45 1091.64C259.05 1089.37 261.85 1085.91 263.45 1084.04C266.783 1080.44 267.45 1076.17 264.917 1073.64C262.383 1071.11 261.05 1071.64 254.517 1078.71Z" fill="#E4542F"/>
<path d="M188.25 1080.31C184.517 1084.71 173.85 1099.11 169.984 1105.11C166.25 1111.11 167.317 1114.71 172.917 1114.71C175.984 1114.57 178.117 1112.31 186.917 1100.04C197.584 1085.11 199.05 1081.11 194.65 1078.71C191.184 1076.97 191.45 1076.84 188.25 1080.31Z" fill="#E4542F"/>
<path d="M343.717 1086.17L339.584 1092.31L342.251 1094.97C345.851 1098.57 349.051 1097.24 353.451 1090.57C356.251 1086.31 356.784 1084.44 355.717 1082.57C353.317 1077.91 348.384 1079.51 343.717 1086.17Z" fill="#E4542F"/>
<path d="M377.45 1084.97C371.85 1091.91 371.85 1098.71 377.583 1098.71C381.85 1098.71 390.25 1087.37 388.25 1084.17C385.983 1080.57 380.783 1080.97 377.45 1084.97Z" fill="#E4542F"/>
<path d="M302.517 1088.31C301.184 1090.04 298.117 1093.51 295.984 1096.17C291.317 1101.64 290.651 1106.71 294.251 1108.97C297.317 1110.84 300.917 1108.04 308.517 1097.51C312.517 1092.04 313.317 1089.91 312.251 1088.17C310.117 1084.84 305.451 1084.84 302.517 1088.31Z" fill="#E4542F"/>
<path d="M1068.38 1095.11C1066.52 1097.37 1064.78 1110.97 1064.65 1125.37C1064.52 1136.04 1064.65 1136.71 1067.45 1137.11C1071.32 1137.64 1074.52 1131.51 1074.52 1123.51C1074.52 1120.17 1075.18 1113.24 1076.12 1108.04C1077.32 1101.24 1077.32 1097.91 1076.38 1096.31C1074.52 1093.51 1070.38 1092.84 1068.38 1095.11Z" fill="#E4542F"/>
<path d="M203.183 1101.77C199.717 1106.04 191.85 1117.51 187.183 1124.97C183.05 1131.91 182.383 1133.64 183.85 1135.37C187.583 1139.91 191.583 1137.77 198.117 1127.64C201.717 1122.44 205.317 1117.24 206.25 1116.31C209.317 1112.97 211.983 1106.57 211.583 1103.64C211.183 1100.31 205.45 1098.97 203.183 1101.77Z" fill="#E4542F"/>
<path d="M235.984 1103.64C231.451 1107.51 215.851 1130.97 215.851 1133.91C215.851 1138.04 217.851 1140.31 220.651 1139.77C221.984 1139.51 227.717 1132.71 233.451 1124.71C243.717 1109.91 245.984 1103.77 241.717 1102.17C238.917 1101.11 239.184 1101.11 235.984 1103.64Z" fill="#E4542F"/>
<path d="M326.784 1109.11C314.384 1122.04 312.117 1128.04 318.784 1130.17C321.717 1131.11 324.784 1128.31 332.25 1118.44C336.117 1113.11 336.784 1109.51 334.25 1106.97C331.85 1104.57 330.65 1104.97 326.784 1109.11Z" fill="#E4542F"/>
<path d="M353.85 1116.17C347.85 1124.44 347.184 1126.04 348.65 1129.91C350.65 1135.24 357.05 1130.84 365.45 1118.44C369.717 1112.17 368.784 1108.04 363.184 1108.04C360.65 1108.04 358.384 1110.04 353.85 1116.17Z" fill="#E4542F"/>
<path d="M420.517 1109.37C419.05 1109.91 416.384 1112.04 414.517 1113.91C411.05 1117.64 411.584 1120.31 416.117 1123.24C419.05 1125.11 429.184 1116.97 429.184 1112.71C429.184 1108.57 425.717 1107.11 420.517 1109.37Z" fill="#E4542F"/>
<path d="M258.65 1111.77C253.317 1116.31 245.184 1127.37 245.184 1130.17C245.184 1133.37 248.25 1135.11 251.85 1134.04C255.05 1132.97 266.517 1118.17 266.517 1115.11C266.517 1113.77 265.317 1111.91 263.984 1111.11C261.85 1109.77 260.917 1109.91 258.65 1111.77Z" fill="#E4542F"/>
<path d="M393.851 1114.57C389.051 1117.37 388.117 1120.71 391.184 1124.04C393.051 1126.04 393.984 1126.31 396.384 1125.11C397.851 1124.31 399.984 1123.24 401.051 1122.71C405.051 1120.97 405.851 1117.64 403.317 1114.84C400.251 1111.51 399.051 1111.51 393.851 1114.57Z" fill="#E4542F"/>
<path d="M1040.52 1116.57C1037.85 1122.84 1037.72 1150.44 1040.25 1153.91C1042.78 1157.37 1048.12 1156.17 1049.32 1152.04C1051.05 1146.04 1050.65 1119.64 1048.78 1116.04C1046.12 1110.84 1042.78 1111.11 1040.52 1116.57Z" fill="#E4542F"/>
<path d="M282.25 1116.31C279.317 1118.71 264.117 1143.11 263.183 1147.11C262.517 1149.64 262.917 1150.84 265.05 1152.04C268.783 1153.91 272.383 1152.04 274.517 1146.71C275.45 1144.57 276.65 1142.71 277.317 1142.71C277.983 1142.71 278.517 1142.04 278.517 1141.11C278.517 1140.31 279.983 1137.64 281.85 1135.24C283.717 1132.84 285.183 1130.44 285.183 1130.04C285.183 1129.51 286.383 1127.64 287.85 1125.77C291.05 1121.64 291.317 1116.57 288.383 1115.51C285.45 1114.44 284.65 1114.44 282.25 1116.31Z" fill="#E4542F"/>
<path d="M1014.78 1117.64C1014.12 1118.57 1013.18 1120.84 1012.92 1122.57C1012.65 1124.97 1011.32 1126.17 1008.25 1126.97L1003.85 1128.17V1146.04C1003.85 1165.77 1005.05 1170.71 1009.98 1170.71C1013.45 1170.71 1015.85 1167.24 1015.85 1162.31C1015.85 1157.77 1017.32 1156.84 1019.05 1160.44C1019.98 1162.31 1021.85 1163.37 1023.85 1163.37C1026.78 1163.37 1027.32 1162.44 1028.65 1156.71C1029.58 1152.97 1030.38 1143.64 1030.38 1135.91L1030.52 1121.91L1025.05 1118.97C1018.78 1115.64 1016.78 1115.37 1014.78 1117.64Z" fill="#E4542F"/>
<path d="M429.984 1125.91C426.651 1129.11 425.184 1131.37 425.717 1132.84C426.117 1133.91 426.517 1135.24 426.517 1135.51C426.517 1135.77 428.384 1136.04 430.517 1136.04C436.117 1136.04 442.784 1129.91 442.251 1125.37C441.584 1120.04 436.251 1120.31 429.984 1125.91Z" fill="#E4542F"/>
<path d="M453.317 1128.57C445.45 1136.44 444.383 1141.64 450.383 1142.44C455.05 1143.11 470.917 1127.37 469.05 1123.77C466.517 1119.11 461.05 1120.84 453.317 1128.57Z" fill="#E4542F"/>
<path d="M512.117 1131.37C509.984 1133.11 506.65 1136.97 504.65 1139.91C501.584 1144.31 501.184 1145.64 502.517 1147.91C504.917 1152.44 508.517 1151.24 515.05 1143.77C521.717 1136.17 522.65 1132.31 518.517 1129.77C516.384 1128.31 515.45 1128.57 512.117 1131.37Z" fill="#E4542F"/>
<path d="M398.517 1130.44C396.25 1131.24 395.717 1131.77 388.783 1139.91C383.583 1146.17 382.517 1150.71 385.85 1153.37C387.583 1154.71 388.517 1154.84 390.917 1153.51C394.783 1151.24 405.183 1137.51 405.183 1134.44C405.183 1131.77 401.45 1129.37 398.517 1130.44Z" fill="#E4542F"/>
<path d="M985.45 1132.31C984.517 1133.24 983.85 1134.97 983.85 1136.31C983.85 1138.31 983.184 1138.57 980.384 1137.91C975.85 1136.71 972.784 1141.11 971.584 1150.71C968.65 1175.51 968.65 1173.91 971.85 1175.77C974.384 1177.37 975.184 1177.24 977.984 1174.57C980.784 1171.91 981.584 1171.77 984.384 1173.24C986.117 1174.17 988.784 1174.57 990.384 1174.04C993.05 1173.24 993.184 1172.44 993.184 1152.71C993.184 1135.37 992.917 1132.17 991.05 1131.51C988.117 1130.44 987.317 1130.44 985.45 1132.31Z" fill="#E4542F"/>
<path d="M373.05 1133.64C371.85 1134.57 368.65 1138.17 365.984 1141.64C360.117 1148.97 359.717 1155.11 364.917 1155.77C368.384 1156.31 369.984 1154.97 377.717 1144.17C381.85 1138.71 382.65 1136.57 381.584 1134.84C379.85 1132.04 375.717 1131.51 373.05 1133.64Z" fill="#E4542F"/>
<path d="M303.184 1138.97C297.984 1145.37 297.184 1146.44 289.45 1156.84C282.384 1166.57 281.717 1169.91 286.65 1171.37C289.85 1172.44 292.517 1170.84 296.25 1165.77C304.25 1154.71 311.184 1146.04 312.117 1145.64C313.717 1144.97 313.45 1138.17 311.584 1136.31C309.05 1133.77 307.05 1134.44 303.184 1138.97Z" fill="#E4542F"/>
<path d="M467.184 1141.64C459.584 1149.11 457.984 1153.51 462.117 1155.91C465.184 1157.64 469.717 1155.11 476.917 1147.64C483.717 1140.57 484.25 1135.64 478.25 1134.97C475.45 1134.57 473.05 1136.04 467.184 1141.64Z" fill="#E4542F"/>
<path d="M328.517 1149.51C314.65 1167.64 313.85 1168.97 316.25 1171.37C319.45 1174.57 323.317 1173.77 326.917 1168.97C345.85 1144.84 345.717 1145.11 345.317 1139.64C345.184 1138.04 344.117 1137.37 341.45 1137.37C338.384 1137.37 336.25 1139.37 328.517 1149.51Z" fill="#E4542F"/>
<path d="M233.05 1143.64C228.517 1148.84 213.184 1170.44 213.184 1171.91C213.184 1173.37 217.717 1177.37 219.584 1177.37C220.384 1177.37 223.717 1173.91 226.784 1169.77C229.984 1165.51 232.917 1161.51 233.584 1160.71C242.384 1149.24 243.984 1146.57 243.584 1143.77C242.917 1139.11 237.184 1138.97 233.05 1143.64Z" fill="#E4542F"/>
<path d="M955.184 1141.11C953.451 1142.31 951.051 1149.77 949.851 1156.97C948.784 1163.37 946.517 1164.71 946.517 1158.97C946.517 1154.71 944.384 1152.04 940.784 1152.04C936.517 1152.04 934.384 1159.91 934.784 1175.11L935.184 1188.71H939.184C943.051 1188.71 943.584 1188.04 945.984 1178.97C946.251 1178.17 948.517 1177.37 951.051 1177.37C955.984 1177.37 956.917 1176.17 958.517 1167.37C959.051 1164.44 960.251 1158.57 961.184 1154.17C961.984 1149.91 962.384 1144.97 961.984 1143.24C961.184 1140.04 957.851 1139.11 955.184 1141.11Z" fill="#E4542F"/>
<path d="M521.584 1148.97C517.05 1154.04 515.85 1156.17 516.117 1159.37C516.384 1162.31 517.317 1163.51 519.584 1163.77C522.784 1164.31 523.717 1163.51 530.25 1155.24C534.784 1149.24 535.45 1146.84 532.917 1144.31C530.117 1141.51 527.584 1142.57 521.584 1148.97Z" fill="#E4542F"/>
<path d="M409.184 1144.97C409.184 1145.64 406.784 1148.71 403.851 1152.04C397.717 1158.84 396.117 1163.24 398.517 1166.04C401.051 1168.97 403.051 1168.44 407.851 1163.64C418.917 1152.44 421.184 1144.04 413.051 1144.04C410.917 1144.04 409.184 1144.44 409.184 1144.97Z" fill="#E4542F"/>
<path d="M551.583 1146.84C544.783 1151.91 548.25 1161.11 555.45 1157.24C560.65 1154.44 563.05 1150.17 561.183 1146.84C559.317 1143.37 556.25 1143.37 551.583 1146.84Z" fill="#E4542F"/>
<path d="M886.517 1150.17C885.05 1153.51 883.85 1157.64 883.85 1159.37C883.85 1161.11 883.317 1163.91 882.65 1165.64C880.384 1171.77 878.384 1182.17 879.317 1184.44C880.25 1187.11 887.717 1187.64 888.384 1184.97C888.65 1184.17 889.45 1180.97 890.25 1178.04C891.05 1175.11 892.517 1169.37 893.717 1165.24C897.317 1152.84 896.384 1144.04 891.717 1144.04C889.85 1144.04 888.25 1145.91 886.517 1150.17Z" fill="#E4542F"/>
<path d="M435.584 1149.11C432.517 1152.31 415.851 1178.84 415.851 1180.57C415.851 1181.37 416.784 1183.24 417.851 1184.57C419.584 1186.84 420.251 1186.97 423.184 1185.37C425.051 1184.44 426.517 1182.97 426.517 1182.31C426.517 1181.51 427.984 1178.97 429.851 1176.57C431.717 1174.17 433.184 1171.77 433.184 1171.37C433.184 1170.84 435.851 1166.71 439.184 1162.17C442.517 1157.51 445.184 1153.11 445.184 1152.44C445.184 1150.84 440.784 1146.71 439.051 1146.84C438.384 1146.84 436.917 1147.91 435.584 1149.11Z" fill="#E4542F"/>
<path d="M831.45 1147.64C830.917 1148.04 830.517 1157.11 830.517 1167.64C830.517 1184.84 830.783 1186.71 832.917 1186.84C836.783 1187.11 839.183 1186.57 840.117 1184.97C841.717 1182.57 841.317 1152.17 839.85 1149.24C838.517 1146.84 833.183 1145.77 831.45 1147.64Z" fill="#E4542F"/>
<path d="M908.65 1150.04C907.45 1151.77 906.517 1155.24 906.517 1157.64C906.517 1160.04 905.583 1165.64 904.517 1170.04C901.85 1181.11 901.983 1188.84 904.65 1189.91C907.05 1190.84 915.317 1189.64 918.65 1187.91C921.183 1186.57 922.25 1180.97 923.317 1164.04L923.983 1152.71L918.25 1149.64C911.183 1146.04 911.317 1146.04 908.65 1150.04Z" fill="#E4542F"/>
<path d="M869.584 1150.31C868.651 1150.57 867.851 1151.77 867.851 1152.84C867.851 1153.91 867.317 1155.77 866.651 1157.11C865.184 1160.04 859.984 1175.24 858.117 1181.77C856.517 1187.77 859.051 1191.64 863.451 1190.17C865.984 1189.37 870.517 1180.97 870.517 1177.24C870.517 1176.17 871.051 1174.71 871.584 1173.91C872.251 1173.24 874.117 1168.31 875.851 1163.11C878.251 1155.24 878.517 1152.97 877.184 1151.37C875.584 1149.37 872.651 1148.97 869.584 1150.31Z" fill="#E4542F"/>
<path d="M489.583 1159.24C480.117 1171.91 472.383 1183.24 471.717 1185.77C470.65 1189.64 472.65 1193.37 475.717 1193.37C477.05 1193.37 480.117 1190.57 482.65 1186.97C487.717 1179.91 487.983 1179.51 492.383 1174.04C498.783 1165.91 501.05 1161.11 499.717 1158.44C497.85 1154.97 492.517 1155.37 489.583 1159.24Z" fill="#E4542F"/>
<path d="M587.05 1157.11C580.517 1161.64 571.05 1184.17 571.717 1193.51C571.984 1198.44 581.184 1196.97 581.184 1192.04C581.184 1190.71 581.85 1189.11 582.517 1188.71C583.317 1188.31 583.85 1186.71 583.85 1185.24C583.85 1183.91 586.25 1178.04 589.317 1172.44C592.917 1165.51 594.384 1161.11 593.85 1159.11C593.184 1156.04 589.85 1155.11 587.05 1157.11Z" fill="#E4542F"/>
<path d="M565.183 1160.84C559.717 1165.51 560.117 1169.91 565.983 1170.44C573.05 1171.11 577.983 1162.04 572.65 1158.44C570.383 1156.84 569.717 1157.11 565.183 1160.84Z" fill="#E4542F"/>
<path d="M373.584 1161.64C370.25 1165.37 359.184 1182.71 356.25 1188.84C354.384 1192.57 354.384 1193.64 355.85 1195.37C358.917 1198.97 362.917 1197.11 368.117 1189.37C370.784 1185.37 373.05 1181.64 373.05 1181.11C373.184 1180.44 375.317 1177.11 377.85 1173.51C382.25 1167.51 384.117 1160.04 381.317 1160.04C380.65 1160.04 379.184 1159.77 378.25 1159.37C377.184 1158.97 375.184 1160.04 373.584 1161.64Z" fill="#E4542F"/>
<path d="M349.317 1165.51C347.183 1167.77 344.65 1171.24 343.717 1173.11C342.65 1175.11 339.85 1179.51 337.583 1182.84C332.25 1190.44 330.783 1196.17 333.717 1198.57C337.45 1201.64 340.383 1198.84 350.25 1183.24C359.983 1167.64 361.45 1163.64 357.717 1162.17C354.25 1160.84 353.183 1161.24 349.317 1165.51Z" fill="#E4542F"/>
<path d="M446.917 1166.31C440.25 1174.71 430.784 1189.91 430.517 1192.71C429.984 1197.37 430.384 1198.44 433.317 1199.11C436.384 1199.91 440.784 1196.04 443.984 1189.64C445.05 1187.64 448.784 1181.64 452.517 1176.31C457.717 1168.57 458.784 1166.04 457.584 1164.31C455.05 1160.17 451.05 1160.84 446.917 1166.31Z" fill="#E4542F"/>
<path d="M535.717 1164.17C531.05 1168.84 518.917 1188.57 517.984 1192.84C516.517 1199.77 523.584 1202.84 527.05 1196.71C527.85 1195.24 531.584 1189.11 535.45 1183.24C544.517 1168.71 545.317 1167.24 544.384 1164.97C543.184 1161.64 538.517 1161.37 535.717 1164.17Z" fill="#E4542F"/>
<path d="M499.984 1177.11C497.051 1181.51 493.717 1186.04 492.517 1187.11C491.451 1188.31 490.517 1189.51 490.517 1190.04C490.517 1190.44 489.051 1192.84 487.184 1195.24C483.317 1200.31 482.917 1203.37 485.984 1205.11C490.251 1207.51 493.317 1204.97 504.117 1189.77C515.584 1173.37 516.384 1170.57 508.784 1169.64C505.984 1169.24 504.517 1170.44 499.984 1177.11Z" fill="#E4542F"/>
<path d="M598.784 1172.04C595.717 1174.97 587.85 1190.57 587.85 1193.91C587.85 1194.97 587.317 1196.31 586.517 1196.71C585.85 1197.11 585.184 1200.17 585.184 1203.37C585.184 1208.04 585.717 1209.37 587.85 1210.04C591.984 1211.37 594.117 1208.84 597.317 1198.44C598.917 1193.37 602.25 1185.77 604.784 1181.77C608.917 1174.71 609.05 1174.17 607.05 1171.77C604.117 1168.71 602.384 1168.71 598.784 1172.04Z" fill="#E4542F"/>
<path d="M386.651 1175.51C382.651 1180.17 367.851 1204.17 367.851 1206.04C367.851 1207.91 372.117 1212.04 373.984 1212.04C375.317 1212.04 393.851 1184.71 395.451 1180.57C395.851 1179.51 395.717 1177.24 395.317 1175.37C394.251 1170.97 390.517 1171.11 386.651 1175.51Z" fill="#E4542F"/>
<path d="M544.651 1183.11C531.984 1200.84 528.251 1211.77 534.117 1213.91C537.051 1215.11 538.517 1213.51 546.651 1199.91C550.651 1193.24 554.917 1186.71 556.251 1185.37C558.917 1182.44 559.184 1178.57 556.917 1176.31C553.717 1173.11 550.651 1174.84 544.651 1183.11Z" fill="#E4542F"/>
</svg>
