<svg width="958" height="1080" viewBox="0 0 958 1080" fill="none" xmlns="http://www.w3.org/2000/svg">
<path d="M505.301 12.2003C499.577 18.4447 487.609 42.3815 478.763 65.2777C469.916 88.6943 456.387 118.876 449.102 132.405C430.889 166.229 374.689 218.266 302.358 268.741C177.99 354.602 119.709 408.72 71.3149 481.572C20.8393 557.025 0.544922 621.03 0.544922 706.891C0.544922 766.213 7.3097 799.516 29.1651 846.35C50.5002 892.662 80.6815 930.129 121.791 961.351C167.583 996.215 205.049 1011.31 299.756 1035.24C464.192 1076.35 624.466 1090.92 697.837 1070.63C823.246 1036.8 907.546 955.106 942.41 833.34C958.021 778.702 962.184 687.637 951.256 634.56C933.564 550.26 894.536 473.246 833.133 404.037C818.042 386.865 773.291 341.073 734.263 302.565C694.715 264.058 655.167 220.868 645.801 207.338C622.905 172.994 608.855 130.844 606.253 87.1331C601.569 20.5261 600.008 16.3632 580.755 8.03735C553.175 -3.41077 518.311 -1.32935 505.301 12.2003ZM578.673 16.3632C600.529 28.3315 582.836 40.3 557.859 30.4131C542.768 24.6891 542.768 24.6891 553.696 18.4446C568.786 10.1188 567.225 10.6392 578.673 16.3632ZM550.573 38.2186C552.655 41.8612 557.338 69.4406 560.981 99.1016C568.786 170.392 591.682 217.225 650.484 286.954C764.965 421.209 792.024 457.635 826.368 526.844C865.916 606.98 878.405 687.117 864.355 772.978C857.07 818.25 844.061 860.399 838.337 856.757C835.735 855.196 834.694 857.277 836.255 861.44C840.418 871.848 812.318 923.364 785.78 954.586C759.241 985.808 710.326 1020.67 666.615 1039.41C634.873 1053.46 628.629 1054.5 567.746 1053.98C513.627 1053.46 494.894 1050.85 455.867 1039.41C430.369 1032.12 404.35 1024.84 398.626 1023.27C392.902 1022.23 379.893 1018.59 370.006 1015.99C353.354 1010.79 353.354 1010.79 367.404 1012.35C376.25 1013.39 387.698 1015.99 392.902 1018.07C400.187 1021.19 401.748 1020.67 399.146 1016.51C397.065 1012.87 397.585 1010.27 400.708 1010.27C403.309 1010.27 406.952 1012.35 408.513 1014.95C411.115 1019.11 432.45 1026.92 432.45 1023.27C432.45 1022.23 421.002 1015.47 406.432 1008.18C385.617 997.256 374.169 994.654 348.15 995.695L315.367 996.215L352.834 999.338C405.391 1003.5 403.83 1008.18 350.232 1006.1C211.814 1001.42 132.198 968.636 74.9575 893.183C35.4095 841.146 20.3189 797.435 17.1967 725.624C14.0745 654.854 23.4411 607.501 52.0613 549.22C90.5685 470.124 163.42 388.426 247.72 330.145C273.738 312.452 305.48 289.556 319.01 279.149C332.539 268.741 346.069 261.977 349.191 263.538C352.313 265.619 353.875 264.058 353.354 259.895C352.313 256.253 355.956 253.13 360.639 253.13C365.323 253.13 371.047 251.049 373.648 248.447C376.25 245.845 374.689 245.325 370.006 247.927C363.241 252.09 363.241 251.569 369.486 243.764C377.811 233.356 388.219 231.795 382.495 241.162C380.413 245.325 380.934 246.366 383.535 243.764C386.137 241.162 388.219 237.519 388.219 235.438C388.219 233.356 403.83 217.225 423.604 199.012C458.468 166.229 466.794 152.179 509.464 56.4315C518.311 37.1779 523.514 31.9741 533.401 31.9741C540.686 31.9741 547.972 35.0964 550.573 38.2186ZM593.764 42.3815C593.764 44.9834 591.682 47.5852 588.56 47.5852C585.958 47.5852 583.357 50.187 583.357 53.3092C583.357 55.9111 585.958 56.9518 588.56 55.3907C591.682 53.3092 593.244 59.0333 592.723 70.4814C591.682 82.9702 588.04 89.2146 581.795 91.2961C572.949 93.3776 572.429 91.2961 573.99 73.6036C575.031 58.5129 573.47 52.2686 567.746 49.6666C562.022 47.0648 563.062 44.9834 572.949 42.3815C591.682 36.6575 593.764 36.6575 593.764 42.3815ZM591.162 112.631C590.642 119.916 592.203 125.64 594.805 125.64C597.406 125.64 598.447 127.722 596.366 130.324C594.805 132.925 596.366 137.088 599.488 138.65C602.09 140.731 603.651 145.414 602.09 149.057C600.529 153.22 601.569 156.862 604.171 157.903C608.334 159.464 612.497 172.994 614.058 189.646C614.579 192.247 617.18 192.247 619.782 190.686C624.986 187.564 625.506 188.084 627.588 206.818C628.108 212.542 639.556 229.193 653.086 242.723C666.615 256.773 675.982 271.343 674.941 274.466C673.38 278.108 676.502 280.19 681.186 279.149C694.195 277.067 698.878 281.751 692.113 290.077C687.43 295.801 684.308 295.801 679.104 291.638C665.575 280.71 671.819 290.077 685.869 303.086C693.674 309.85 696.797 311.412 693.154 306.728C687.43 298.923 687.43 296.841 695.236 294.239C700.439 292.158 707.204 294.239 712.408 299.964C720.734 308.81 720.734 308.81 711.887 306.208C706.163 304.126 703.562 304.647 705.643 307.769C707.204 310.891 706.163 312.973 703.041 312.973C699.919 312.973 698.878 315.575 700.96 318.697C703.562 322.86 705.643 322.86 708.245 318.176C710.847 313.493 712.928 313.493 715.53 317.656C717.611 320.778 722.295 321.819 725.417 320.258C729.06 318.176 730.1 318.176 728.019 320.778C722.295 326.502 766.526 372.815 775.893 371.254C782.137 370.213 782.137 370.734 776.933 374.376C771.73 378.019 772.25 380.62 779.015 386.345C784.218 390.507 786.82 391.028 784.739 387.385C782.657 384.263 783.698 379.58 786.82 377.498C790.983 375.417 791.504 375.937 789.422 379.58C787.341 383.222 788.381 385.824 791.504 385.824C794.626 385.824 795.667 387.906 794.105 391.028C792.544 394.15 796.187 396.232 802.952 396.232C813.879 396.752 813.879 397.272 805.554 401.956C800.87 405.078 797.748 409.241 799.309 412.363C801.391 414.965 800.35 417.046 797.748 417.046C794.626 417.046 791.504 413.404 789.422 409.241C787.861 405.078 782.657 401.435 778.494 401.435C773.811 401.435 771.73 399.354 773.291 396.232C774.852 393.109 772.77 392.589 768.087 394.15C761.322 396.752 762.883 399.354 775.893 407.159C784.739 412.883 790.463 419.648 788.902 422.25C787.341 425.372 787.861 427.454 790.983 427.454C793.585 427.454 797.748 424.852 799.309 422.25C801.391 419.128 805.554 418.607 808.676 420.689C812.318 422.77 818.042 424.852 821.165 424.852C828.97 424.852 830.011 434.739 822.726 435.779C820.124 436.3 816.481 436.82 814.92 437.341C809.716 438.381 804.513 435.259 805.554 431.617C806.594 429.535 803.472 429.015 799.309 431.096C792.544 433.698 792.544 434.739 800.35 440.463C805.554 444.105 811.798 445.666 814.92 444.105C823.766 438.381 848.224 439.422 847.183 445.666C846.663 448.268 848.744 450.35 852.387 449.829C856.55 448.789 857.59 451.911 855.509 457.115C853.427 462.318 854.468 464.4 857.59 462.318C861.233 459.716 862.794 463.359 861.753 471.685C860.713 482.092 861.753 483.653 867.477 478.97C872.681 474.807 874.762 474.807 874.762 478.97C874.762 490.418 873.722 492.5 869.038 490.938C865.916 490.418 865.916 493.54 869.038 499.785C872.161 504.988 872.681 511.233 870.599 513.835C868.518 516.436 871.12 514.875 875.803 511.233C887.772 502.386 894.016 507.07 898.179 527.885C900.26 536.731 904.423 547.659 907.546 551.301C911.188 555.984 910.147 560.147 902.862 565.351C894.536 572.116 894.016 572.636 902.342 570.034C910.668 566.912 915.351 575.238 907.546 579.921C904.944 580.962 906.505 580.962 910.147 580.442C913.27 579.401 916.392 582.003 916.392 586.166C916.392 590.329 914.31 593.971 911.188 593.971C908.586 593.971 905.984 596.053 905.984 599.175C905.984 601.777 909.107 602.817 912.749 601.777C915.871 600.216 922.116 603.858 925.758 610.103C932.003 619.469 932.003 622.071 925.758 625.714C921.075 628.836 917.953 626.754 915.351 618.429C912.749 608.021 912.229 608.542 911.708 621.551C911.188 634.04 912.749 635.601 921.596 632.999C932.523 629.356 932.003 628.315 934.084 672.026C934.084 680.873 937.207 689.719 939.808 691.8C946.053 696.484 949.175 708.452 943.451 708.452C936.166 708.452 923.677 698.045 930.962 698.045C935.645 698.045 935.125 694.923 928.881 685.556C918.994 669.945 918.994 666.823 927.84 661.099C933.044 657.456 933.044 656.415 927.84 656.415C924.197 656.415 922.116 654.334 924.197 651.732C925.758 649.13 924.197 644.967 921.075 642.886C916.392 640.284 915.871 646.528 917.953 667.343C920.034 682.954 921.596 705.85 921.596 718.859C921.596 734.47 923.157 739.674 926.279 734.991C928.881 730.828 930.442 723.022 929.401 717.819C927.32 707.411 930.962 706.371 942.41 713.656C948.655 717.819 948.655 718.859 939.808 718.859C930.962 719.38 930.442 719.9 937.727 724.063C943.971 727.706 946.053 736.552 946.053 753.724C946.053 767.774 945.012 774.539 943.971 769.855C940.329 754.765 933.044 759.448 935.645 774.539C937.727 785.987 936.686 787.548 932.523 781.304C927.84 774.539 926.799 774.539 926.799 782.344C926.799 787.548 924.718 791.711 921.596 791.711C918.994 791.711 916.392 793.792 916.392 796.915C916.392 799.516 920.555 800.037 925.758 798.476C933.564 795.354 933.564 795.874 927.32 803.679C923.677 808.363 921.596 815.648 923.157 820.331C925.238 824.494 924.197 829.177 921.075 830.739C918.473 832.82 917.433 836.463 918.994 839.064C921.075 841.666 920.034 843.748 916.912 843.748C913.79 843.748 912.749 847.39 914.831 852.074C916.912 857.277 914.831 863.522 909.627 866.644C905.464 870.286 901.822 876.531 902.342 880.694C902.862 893.183 894.536 921.803 889.853 921.803C887.251 921.803 887.772 915.558 890.373 907.233C895.057 894.744 894.536 894.223 888.292 902.029C884.649 907.233 878.925 911.395 875.803 911.395C870.599 911.395 859.151 927.007 859.151 934.292C859.151 935.853 864.355 937.414 871.12 936.893C882.048 936.893 882.048 936.373 872.161 932.21C862.274 928.047 862.274 927.527 873.722 927.527C879.966 927.007 885.17 928.568 885.17 930.649C884.649 937.934 869.559 955.106 869.559 948.862C869.559 945.219 864.355 942.618 858.111 943.138C846.663 943.138 846.663 943.658 856.55 947.821C865.396 951.464 864.875 952.505 851.346 953.025C841.979 954.066 839.377 955.106 845.102 956.667C864.355 961.871 850.826 984.247 827.929 984.247C817.522 984.247 816.481 985.288 822.726 989.451C829.49 993.614 829.49 994.654 822.205 994.654C812.839 994.654 800.35 982.686 804.513 978.003C806.074 976.441 800.87 976.441 793.065 978.003L779.015 980.604L791.504 964.473C803.472 949.382 811.278 946.26 834.174 946.26C838.857 946.26 844.061 943.658 845.102 940.016C848.224 932.731 833.133 931.69 823.766 938.975C820.124 941.577 815.961 942.618 813.879 940.536C812.318 938.975 813.359 937.414 817.002 937.414C820.644 937.414 821.685 934.812 820.124 932.21C818.563 929.088 819.603 927.007 822.205 927.007C825.328 927.007 827.409 925.445 826.889 922.844C825.328 917.12 845.102 874.97 849.264 874.97C851.346 874.97 851.866 879.653 850.305 885.377C848.744 891.622 850.305 895.784 853.427 895.784C857.07 895.784 858.111 893.183 856.029 889.54C853.427 885.897 854.468 885.377 859.151 887.979C864.355 891.101 865.396 890.06 862.794 883.816C861.233 878.612 861.753 874.97 864.875 874.97C867.998 874.97 868.518 872.368 866.957 869.766C864.875 866.644 861.233 865.603 858.631 867.164C851.346 872.368 852.907 859.359 861.233 851.033C865.396 846.87 872.161 843.748 875.803 843.748C880.486 843.748 881.007 842.187 876.844 839.585C873.722 837.503 869.559 830.218 867.477 822.933C864.875 813.566 865.396 812.005 868.518 817.209C873.722 824.494 878.925 792.752 882.048 732.389C883.088 718.859 886.731 705.85 889.853 703.248C895.057 700.647 894.536 698.565 888.292 696.484C878.925 692.841 876.844 677.23 885.69 677.23C888.292 677.23 889.853 679.312 888.292 681.913C886.211 684.515 889.853 685.556 895.577 683.995C904.423 681.393 905.984 683.995 906.505 701.167C906.505 712.615 907.546 729.787 908.586 739.674C909.627 749.561 908.066 759.448 904.423 761.53C899.74 764.131 900.26 765.693 905.984 765.693C912.749 765.693 912.749 766.213 905.984 770.896C899.22 775.58 899.22 776.1 905.984 776.1C910.668 776.1 911.708 777.661 908.066 780.263C905.464 782.344 898.699 799.516 893.496 818.77C886.211 846.35 882.568 853.114 875.803 850.512C868.518 848.431 867.998 848.951 874.762 853.114C885.69 861.44 861.753 911.395 846.663 911.916C840.418 911.916 838.857 913.477 842.5 915.038C854.468 919.721 879.446 904.11 888.292 885.377C892.975 875.49 900.781 860.399 904.423 852.594C908.586 844.268 910.668 836.463 909.107 834.901C907.546 832.82 905.984 834.381 905.984 838.024C905.984 841.666 903.903 842.707 900.781 841.146C894.536 837.503 893.496 827.616 899.74 828.657C911.188 830.739 921.596 827.616 918.994 822.933C916.912 819.811 913.27 819.29 910.147 820.852C905.984 823.453 905.464 821.372 907.546 815.648C909.627 810.444 909.107 807.842 905.984 809.924C902.862 811.485 900.781 810.444 900.781 807.842C900.781 804.72 902.862 802.118 905.984 802.118C908.586 802.118 909.627 798.476 908.066 794.313C905.984 789.109 908.066 786.507 913.79 786.507C918.473 786.507 920.555 783.905 918.994 780.783C916.912 778.181 921.596 769.855 929.401 762.57C936.686 755.806 940.849 750.082 937.727 750.082C935.125 750.082 928.881 753.724 924.718 758.407C916.912 765.693 916.392 764.652 915.871 743.837C915.871 731.348 914.831 717.298 913.79 712.095C912.749 706.891 910.668 686.597 909.107 667.863C904.944 622.071 901.822 606.46 892.975 587.206L885.17 570.555L888.292 586.686C890.373 598.655 888.812 603.858 883.088 605.94C877.885 608.021 874.762 606.46 874.762 601.777C874.762 597.614 872.161 593.971 869.038 593.971C866.437 593.971 865.396 591.369 867.477 588.247C869.559 584.084 872.161 584.605 875.283 589.288C884.129 603.858 883.609 590.329 874.242 570.555C867.477 555.464 865.396 553.903 867.477 563.79C869.559 573.157 868.518 578.36 864.355 578.36C861.233 578.36 860.192 575.758 861.753 573.157C863.314 570.034 862.794 567.953 860.192 567.953C857.07 567.953 856.029 562.749 858.111 556.505C860.192 548.699 859.151 546.618 853.948 549.74C849.785 552.342 848.224 551.301 849.785 546.618C851.346 542.455 856.55 539.333 862.274 539.333C867.477 539.853 876.324 535.17 881.527 529.446C895.057 514.355 892.455 509.672 878.405 523.722C871.64 530.486 869.038 528.925 859.672 509.672C853.948 497.703 850.826 485.735 852.387 482.613C854.468 479.49 851.866 480.011 847.183 483.653C839.377 490.418 839.898 492.5 851.346 511.233C858.631 522.16 864.355 532.047 864.355 533.088C864.355 534.649 848.744 534.129 838.337 532.047C836.776 531.527 839.377 528.925 843.54 526.323C850.305 522.16 850.305 521.12 843.02 521.12C838.337 521.12 832.092 514.875 828.97 507.59C825.328 500.305 824.807 495.622 827.929 497.703C831.052 499.264 831.572 497.183 830.011 493.02C828.45 488.337 824.287 486.255 821.165 488.337C818.042 489.898 817.522 488.857 819.603 485.214C821.685 482.092 819.603 477.929 815.441 476.368C810.757 474.807 808.155 471.164 809.716 469.083C811.278 466.481 808.155 462.318 803.472 459.196C798.268 456.074 796.187 453.472 798.268 453.472C803.472 453.472 772.77 412.363 760.802 403.517C755.598 399.354 755.078 396.752 759.241 394.15C762.883 392.069 765.485 387.906 765.485 384.783C765.485 381.661 763.924 380.62 761.843 382.182C760.282 384.263 754.037 382.182 748.833 376.978C738.946 368.132 735.824 356.684 744.671 362.408C754.037 368.132 750.395 361.887 738.426 351.48C728.539 343.674 728.019 343.154 733.743 350.439C748.313 369.693 734.263 358.245 704.082 327.023C665.054 286.954 619.782 228.673 622.905 223.469C624.466 221.388 623.425 219.307 620.303 219.307C617.701 219.307 610.416 212.021 604.171 203.695C594.805 190.686 593.764 186.003 598.968 179.759C604.692 173.514 604.171 172.994 596.366 175.596C589.601 178.197 588.04 177.677 590.642 173.514C592.723 169.872 592.203 167.27 589.081 167.27C586.479 167.27 584.918 162.586 585.958 156.862C586.999 151.138 586.479 146.455 584.397 146.455C580.234 146.455 577.112 110.55 580.755 100.663C584.918 89.2146 592.723 98.5812 591.162 112.631ZM895.577 614.786C895.577 617.388 893.496 619.99 890.373 619.99C887.772 619.99 885.17 622.071 885.17 625.193C885.17 627.795 888.812 628.836 893.496 626.754C899.74 624.673 901.301 625.714 899.74 630.917C898.179 635.08 893.496 638.723 889.333 639.764C879.966 641.845 873.201 616.347 882.048 612.704C891.935 608.542 895.577 609.582 895.577 614.786ZM902.342 660.058C905.464 678.271 899.74 681.913 885.17 671.506C878.405 666.823 878.925 666.302 886.731 668.904C892.455 670.465 895.577 668.904 895.577 663.701C895.577 659.538 893.496 657.456 890.373 659.017C887.772 660.578 885.17 659.017 885.17 654.334C885.17 650.171 888.292 646.008 891.935 644.447C900.26 641.325 899.22 640.804 902.342 660.058ZM886.211 874.97C878.925 889.54 872.161 900.468 871.12 899.427C868.518 896.305 886.731 857.277 891.935 855.196C894.016 854.155 894.016 850.512 892.455 847.911C890.373 844.788 890.894 843.748 894.016 845.309C897.138 847.39 894.536 858.838 886.211 874.97ZM809.196 994.134C815.961 1001.42 816.481 1005.06 811.798 1008.18C807.635 1010.79 806.594 1009.74 809.716 1005.06C812.839 999.858 811.798 998.817 805.554 1001.42C800.87 1002.98 795.667 1002.46 794.105 999.858C792.024 996.736 787.861 994.654 784.739 995.175C780.056 995.175 780.576 996.215 785.259 998.297C788.381 999.338 790.463 1002.98 788.381 1005.58C786.82 1008.18 789.943 1010.27 794.626 1010.27C808.676 1010.27 800.87 1014.43 781.096 1018.07C763.924 1021.19 763.404 1020.67 773.291 1013.39C779.535 1008.7 781.096 1005.58 776.933 1005.06C773.291 1005.06 771.73 1002.46 773.811 998.817C775.893 995.175 775.372 994.654 771.209 996.736C768.087 998.817 766.526 1002.46 768.087 1005.06C769.648 1007.14 767.567 1011.83 763.404 1014.95C758.2 1019.11 755.078 1019.11 750.395 1013.39C745.711 1007.66 745.711 1005.06 750.395 1001.94C754.557 999.338 755.598 1000.38 752.996 1005.58C750.915 1009.74 754.037 1006.62 760.282 998.297C773.811 981.645 796.187 979.564 809.196 994.134ZM348.671 1021.19C356.997 1020.15 359.599 1021.71 356.476 1026.4C353.875 1031.08 355.436 1032.12 361.16 1029.52C365.843 1027.96 371.047 1028.48 372.608 1031.08C374.169 1033.68 379.372 1034.72 384.576 1033.16C392.382 1030.56 392.382 1031.08 385.097 1035.76C374.689 1042.53 327.336 1031.6 324.214 1021.19C322.652 1015.99 324.214 1015.47 328.897 1018.59C333.06 1021.19 341.906 1022.23 348.671 1021.19ZM759.241 1021.71C771.73 1022.75 765.485 1031.6 749.874 1034.2C741.028 1036.28 735.824 1039.93 737.906 1043.05C739.467 1046.17 738.426 1046.69 735.304 1044.61C732.182 1042.53 722.815 1044.09 715.01 1048.25C707.204 1052.42 697.317 1054.5 694.195 1053.46C690.552 1051.89 687.43 1053.46 687.43 1056.58C687.43 1059.7 683.788 1060.22 678.584 1058.66C672.339 1056.06 671.299 1057.1 674.421 1062.82C677.543 1068.55 677.023 1068.55 671.819 1063.86C667.656 1059.7 661.412 1059.18 653.086 1062.3C635.393 1069.07 637.475 1064.38 656.728 1055.02C665.054 1050.85 675.982 1048.77 680.665 1050.33C685.869 1052.42 687.951 1051.37 685.869 1048.25C680.665 1040.45 705.643 1030.56 712.928 1037.84C717.091 1042.01 720.213 1042.01 725.417 1036.8C728.539 1033.16 729.58 1031.08 726.458 1032.12C723.856 1033.16 721.254 1031.08 721.254 1028.48C721.254 1025.36 724.376 1023.79 727.498 1023.79C731.141 1024.32 732.702 1022.23 730.621 1019.11C728.539 1015.47 731.661 1014.95 739.987 1017.55C746.752 1019.63 755.598 1021.71 759.241 1021.71Z" fill="#E4542F"/>
<path d="M554.737 165.188C557.339 187.044 577.113 238.56 577.633 225.551C578.153 221.908 575.551 213.582 571.909 207.338C568.787 201.094 562.542 183.921 558.9 169.871C552.655 144.894 552.135 144.894 554.737 165.188Z" fill="#E4542F"/>
<path d="M471.998 170.912C469.917 173.514 465.754 175.075 462.631 175.075C459.509 175.075 456.387 179.238 455.346 184.442C454.826 189.645 449.622 199.012 444.419 205.257L435.052 216.705L447.541 206.297C459.509 195.89 481.885 167.27 477.722 167.27C476.681 167.27 474.08 168.831 471.998 170.912Z" fill="#E4542F"/>
<path d="M585.958 221.909C588.04 227.633 590.121 237.52 590.642 243.244C592.203 255.212 635.393 309.851 639.556 305.167C640.597 304.127 632.271 292.158 620.303 278.629C608.855 265.62 600.529 252.61 601.569 250.009C603.13 247.927 599.488 238.04 593.243 228.673C586.999 219.307 583.877 216.185 585.958 221.909Z" fill="#E4542F"/>
<path d="M450.663 276.547C448.581 279.669 442.857 280.71 438.174 279.149C432.97 277.588 425.685 280.19 422.043 284.873C412.676 295.801 381.974 310.891 359.599 315.054C349.712 316.615 333.06 324.941 323.173 333.267C313.286 341.073 297.154 351.48 288.308 356.684C278.942 361.367 271.136 367.611 271.136 370.213C271.136 372.815 260.208 382.702 246.679 392.069C218.579 411.322 161.859 463.879 161.859 471.164C161.859 473.766 156.655 481.051 150.411 487.296C129.596 507.59 107.741 548.179 104.098 572.636C102.017 585.645 96.2926 606.98 91.6092 619.99C86.9259 632.999 82.763 650.171 83.2834 659.017C83.2834 697.524 91.0889 743.317 99.4148 755.285C104.098 762.57 109.822 776.1 111.383 785.466C113.465 795.353 121.27 809.403 129.076 817.729C137.402 825.535 152.492 841.146 163.42 852.074C193.601 883.296 211.814 895.784 227.946 895.784C252.403 896.305 303.919 927.006 312.245 946.26C317.969 958.749 323.693 963.432 333.06 964.473C353.354 965.514 356.476 966.034 363.241 970.197C366.363 972.278 372.608 972.278 377.291 970.717C381.974 969.156 385.617 969.677 385.617 971.758C385.617 981.125 423.604 979.043 441.296 968.636C453.785 961.351 468.355 958.229 489.69 958.229C524.555 958.229 532.881 951.984 510.505 942.618C502.179 938.975 496.455 933.771 498.537 930.649C500.098 927.527 499.057 927.006 495.935 929.088C492.292 931.169 489.69 935.853 489.69 940.016C489.69 944.179 487.089 948.862 484.487 950.423C476.161 955.627 453.265 938.455 453.265 928.047C453.265 922.844 449.622 913.997 445.459 908.273C434.011 893.183 435.572 909.834 447.541 933.771C456.907 951.984 456.907 953.025 448.061 953.025C436.093 953.025 425.165 939.495 430.369 931.69C432.45 927.527 431.93 927.006 428.287 929.088C421.002 933.251 420.482 930.649 419.961 868.205C419.441 829.177 420.482 822.933 428.287 822.933C432.97 822.933 438.174 818.77 440.256 813.046C443.898 801.598 435.052 776.1 427.246 776.1C424.645 776.1 422.043 770.896 422.043 764.131C422.563 753.724 423.083 753.724 427.767 761.53C434.011 772.457 447.541 774.018 451.183 763.611C452.744 759.448 458.989 757.887 466.794 759.448C477.202 761.53 479.283 759.968 479.283 748.52C479.283 741.235 481.885 733.43 484.487 731.869C489.17 729.267 491.772 749.041 491.252 774.539C490.731 778.181 492.813 780.263 494.894 778.702C506.863 771.417 502.7 813.566 489.69 833.34C485.528 840.105 483.966 840.105 479.803 833.861C476.161 828.137 474.079 829.177 469.396 838.024C465.233 845.309 465.233 848.951 468.876 848.951C471.478 848.951 474.079 846.35 474.079 842.707C474.079 838.544 475.641 838.024 479.283 841.666C481.885 844.268 484.487 861.44 485.007 880.173C485.528 898.907 487.089 910.875 488.65 907.233C490.211 902.549 492.813 902.029 497.496 906.192C506.863 913.997 520.913 907.233 520.913 894.744C520.913 878.092 505.302 853.114 496.976 856.236C489.17 859.359 487.609 854.675 493.333 840.625C496.455 832.3 496.976 832.3 500.618 841.666C503.22 848.431 504.781 845.309 504.781 829.698C505.302 817.729 507.383 802.118 510.505 794.313C513.107 787.028 513.627 781.824 511.026 783.385C508.424 784.946 505.302 782.865 503.22 778.702C501.659 773.498 503.74 770.896 510.505 770.896C515.709 770.896 522.994 766.733 525.596 761.53C530.279 754.244 530.8 755.806 531.32 769.855C531.32 782.865 533.922 788.068 543.809 791.711C560.46 797.955 568.786 814.087 567.225 835.942C566.185 845.309 568.786 857.277 572.949 861.961C580.234 870.286 579.714 870.807 569.307 867.685C559.94 864.562 557.859 866.644 554.736 879.653C551.094 896.825 558.899 916.599 569.827 916.599C573.47 916.599 580.755 921.282 585.958 927.006C597.927 940.536 623.945 944.699 643.199 936.893L658.81 930.649L643.199 926.486C634.873 923.884 624.466 922.844 620.303 924.405C616.66 925.966 610.416 924.925 606.773 921.803C603.131 918.681 596.886 917.12 593.244 917.64C588.04 918.681 586.479 914.518 587.52 905.151C588.56 897.346 586.479 886.418 583.877 880.694C579.714 873.409 579.714 869.246 584.397 866.644C588.04 864.042 588.56 865.083 585.958 869.766C583.357 874.449 583.877 875.49 587.52 872.888C591.683 870.286 592.723 871.848 590.642 877.051C588.56 882.255 590.121 885.377 594.284 885.377C597.927 885.377 598.968 886.938 597.407 888.499C592.203 893.703 603.651 911.395 611.977 911.395C616.14 911.395 619.782 908.794 619.782 906.192C619.782 903.07 624.986 900.988 631.751 900.468C642.679 899.947 642.158 899.947 629.669 896.305C608.855 889.54 593.244 880.173 596.366 875.49C599.488 869.766 586.479 858.318 581.796 862.481C577.112 867.685 571.388 839.585 574.51 827.096C576.592 819.811 574.51 812.005 569.307 806.281C562.542 798.996 562.022 795.353 566.705 790.67C570.347 787.028 572.949 779.742 573.47 773.498C573.99 765.693 575.031 766.733 578.153 777.661C587.52 807.842 610.936 818.77 615.619 794.833C618.221 783.385 607.294 773.498 587.52 767.774C584.918 767.254 581.796 766.213 579.714 765.693C577.112 765.172 573.99 764.652 571.909 765.172C569.307 765.172 567.746 763.091 567.746 760.489C567.746 757.367 564.103 755.285 559.42 755.285C555.257 755.285 552.655 753.204 554.216 750.602C555.777 748.52 551.614 747.48 544.849 748.52C536.524 750.081 528.198 746.439 519.351 737.593C512.066 730.308 502.179 724.063 497.496 724.063C493.333 724.063 489.69 721.982 489.69 719.9C489.69 712.095 518.311 716.258 525.075 725.104C528.718 730.308 538.605 734.47 547.451 734.47C556.818 734.47 567.746 739.154 575.551 746.959C584.918 756.326 588.56 757.367 590.642 752.163C592.203 748 591.683 745.398 589.601 745.919C582.316 748 562.542 731.869 562.542 724.063C562.542 717.819 566.705 716.258 580.234 717.819C598.447 719.9 606.773 711.054 598.968 698.045C594.284 690.239 563.583 689.719 556.298 697.004C551.094 702.208 526.116 699.085 526.116 692.841C526.116 690.76 532.881 689.719 541.207 690.76C550.573 691.8 559.94 688.678 566.705 682.434C577.633 672.026 591.683 667.863 586.479 676.71C582.316 682.954 603.651 695.963 622.905 699.085C636.954 701.167 638.516 699.606 639.556 686.597C641.117 668.384 622.384 656.936 605.212 666.302C590.642 674.108 585.958 673.587 593.764 664.221C601.57 654.854 597.927 648.61 577.633 638.723C565.144 632.478 563.062 632.478 567.746 637.682C572.429 643.406 571.388 646.008 562.542 648.61C547.972 653.293 535.483 642.365 546.931 635.601C557.338 629.877 577.112 613.225 569.827 616.867C566.705 618.428 559.94 615.306 555.257 610.103C548.492 602.817 547.972 599.695 553.175 598.134C562.542 594.492 570.868 595.532 568.786 600.736C568.266 603.338 569.827 603.858 572.949 601.777C576.072 600.216 577.112 596.573 575.551 593.971C573.99 591.369 575.551 587.727 579.194 585.125C585.958 580.962 588.56 580.442 605.732 579.401C610.936 578.881 614.058 576.279 612.497 573.677C610.416 571.075 621.343 572.116 635.914 575.758C658.81 582.003 665.054 582.003 677.023 575.758C694.715 566.912 708.245 539.333 708.245 512.273L708.765 492.5L723.856 509.672C732.702 519.038 739.467 531.527 738.947 538.292C738.426 547.658 737.385 546.618 733.222 533.088C725.417 509.672 716.05 508.111 715.53 529.446C715.53 539.333 710.326 554.423 703.562 562.749C697.317 571.595 694.715 578.36 697.317 578.36C699.919 578.36 706.163 573.156 710.847 566.392L719.693 554.944L716.05 567.432C713.969 574.197 711.887 583.043 711.367 586.686C709.806 595.532 703.041 602.817 703.041 595.532C703.041 592.41 696.276 588.768 687.951 587.727C679.104 586.686 673.38 587.206 674.941 589.808C676.502 591.89 675.462 593.971 672.339 593.971C669.217 593.971 662.973 600.216 658.29 607.501C651.004 617.908 650.484 621.551 655.688 625.193C659.851 627.275 650.484 630.397 632.792 632.999C616.66 634.56 604.692 637.682 606.253 639.243C607.814 640.804 629.149 638.723 654.127 635.08C686.389 630.397 702.521 625.193 710.847 617.908C716.571 611.664 718.132 609.582 713.449 612.704C693.675 627.275 692.634 624.673 710.326 599.175C720.734 584.084 729.06 568.473 729.06 564.31C729.06 560.147 731.141 558.066 734.263 560.147C747.272 567.953 724.376 630.397 705.643 637.162C703.041 638.202 706.163 638.202 712.408 637.162C721.254 635.601 723.856 637.162 720.734 641.845C717.611 647.049 718.652 647.049 725.417 641.325C730.1 637.682 732.702 632.478 731.661 629.877C730.1 627.795 733.743 623.112 739.987 619.99C749.354 614.786 750.915 610.623 748.313 589.808C746.232 568.473 746.752 566.912 752.476 575.238C760.802 586.166 759.241 628.836 749.874 645.488C746.752 651.732 745.711 656.415 746.752 656.415C751.956 656.415 766.006 624.673 764.965 615.827C763.404 598.134 766.006 590.849 770.169 601.777C774.332 612.704 763.404 653.813 754.558 659.538C751.956 661.099 749.874 664.741 749.874 667.863C749.874 670.986 753.517 670.465 758.2 666.302C766.006 660.058 766.526 660.578 762.883 672.026C759.241 683.474 759.761 683.995 767.567 677.75C774.852 671.506 775.893 671.506 772.77 679.832C770.169 686.597 770.689 688.158 775.372 685.556C778.495 683.474 776.413 690.76 770.689 702.208C760.802 721.461 748.834 729.787 711.367 744.357C703.041 748 697.838 752.163 699.919 753.724C701.48 755.285 717.091 750.081 734.263 741.235C751.435 732.909 767.046 727.706 768.607 730.308C770.169 732.389 773.811 733.43 776.413 731.869C779.015 729.787 781.096 730.828 781.096 733.95C781.096 740.195 745.191 762.57 741.548 758.928C739.987 757.367 744.671 752.163 751.956 747.48C759.241 742.276 765.485 736.552 765.485 733.43C765.485 730.828 756.119 736.032 745.191 745.398C718.652 766.213 686.389 770.896 660.891 757.367C651.004 752.163 640.597 748.52 636.954 749.041C633.832 749.561 629.669 748 627.588 744.878C625.506 741.756 628.108 741.235 633.312 743.317C640.077 745.919 641.117 744.878 637.475 739.154C634.873 734.991 632.792 727.185 632.792 721.461C632.792 714.697 628.629 710.534 620.823 709.493C607.814 707.411 606.773 717.298 619.782 727.706C623.945 730.828 626.027 735.511 623.945 737.593C621.864 739.674 616.66 738.633 613.018 735.511C608.855 731.869 604.692 730.828 602.61 732.389C601.049 733.95 594.805 732.909 589.081 729.787C580.234 724.583 578.673 725.104 581.275 731.869C583.357 736.032 590.642 739.674 598.968 739.674C616.14 739.674 623.425 747.48 610.936 752.163C603.651 755.285 604.692 757.887 617.181 770.896C625.506 779.742 635.914 786.507 640.597 786.507C650.484 786.507 668.177 803.679 664.014 808.883C662.453 810.965 662.973 811.485 665.054 809.924C670.778 805.24 682.227 818.77 682.227 830.218C682.227 836.463 679.104 844.788 675.982 848.431C670.258 853.635 671.819 854.155 683.788 851.553C692.634 848.951 697.838 849.992 697.838 853.635C697.838 856.757 705.643 858.838 716.05 857.798C726.978 857.277 734.263 854.155 734.263 849.992C734.263 846.35 731.141 843.748 728.019 844.268C706.684 846.87 687.43 843.227 687.43 835.942C687.43 830.218 690.032 829.698 700.96 833.34C719.173 840.625 746.232 840.105 741.548 832.82C739.987 829.698 731.661 828.137 723.336 829.177C715.53 830.738 710.326 829.177 711.887 826.576C713.449 823.974 710.326 823.453 704.602 825.014C697.838 827.096 690.552 823.974 682.227 815.127C666.095 797.955 670.778 794.313 698.878 803.679C710.847 807.842 728.019 810.444 735.824 809.924C750.395 808.883 761.843 798.476 757.159 791.191C756.119 789.109 757.159 785.987 760.282 783.905C770.169 777.661 766.006 816.689 755.598 823.974C750.395 827.616 745.711 832.82 744.671 835.942C743.109 842.707 738.947 854.675 735.824 864.562C733.743 870.286 732.182 870.807 730.621 865.603C729.06 862.481 725.417 860.92 722.295 863.001C719.173 865.083 703.562 868.205 687.43 870.286C671.819 872.888 658.29 877.051 657.249 879.653C656.208 882.775 651.525 885.377 646.841 885.377C639.556 884.857 640.597 882.775 650.484 874.97C657.249 869.246 660.371 864.562 657.249 864.562C654.127 864.562 647.882 868.205 643.199 872.888C639.036 877.572 631.751 879.653 627.588 878.092C623.425 876.531 618.742 877.572 617.181 879.653C613.018 886.938 646.841 890.581 669.217 885.377C697.317 878.612 708.765 879.653 692.113 886.938C684.308 890.581 678.064 895.264 677.543 898.386C677.543 900.988 667.136 904.11 655.167 905.151C623.945 907.233 620.823 913.477 648.923 915.558C662.453 916.599 675.982 914.518 680.665 910.355C684.828 907.233 693.154 903.59 698.358 902.549C710.847 900.468 744.671 867.685 744.671 857.277C744.671 853.114 750.395 843.227 757.159 834.901C764.965 825.535 770.169 811.485 772.25 794.313C773.291 779.742 779.535 754.244 785.78 737.593C797.748 703.248 799.309 679.311 790.983 651.732C787.861 641.325 782.657 624.673 780.056 614.786C776.933 604.899 769.128 588.247 762.363 578.36C755.598 568.473 748.313 549.74 745.191 537.251C742.589 524.762 733.743 507.59 724.897 498.224C716.571 489.377 705.643 474.807 701.48 466.481C697.317 457.635 668.697 426.933 638.516 397.793C607.814 368.132 580.755 338.471 578.153 331.186C575.031 323.38 569.307 318.176 563.062 318.176C557.859 318.176 552.135 314.534 550.053 310.371C548.492 306.208 543.809 302.565 539.646 302.565C536.003 302.565 531.32 298.923 529.238 294.76C527.677 290.597 520.392 286.954 513.107 286.954C505.822 286.954 500.098 284.352 500.098 281.23C500.098 277.588 494.374 277.067 485.007 279.149C476.161 280.71 468.355 280.19 466.274 277.067C462.111 269.782 454.826 269.782 450.663 276.547ZM466.274 286.954C469.396 287.475 473.559 287.995 476.161 287.475C478.242 286.954 478.763 292.678 477.202 299.964C475.12 308.81 475.641 312.452 478.763 310.371C481.885 308.81 482.926 310.371 481.365 314.534C479.803 318.697 481.365 323.9 484.487 325.982C489.17 328.584 490.211 323.9 488.65 308.289C487.609 296.321 489.17 287.995 492.292 288.515C495.415 289.036 496.976 296.841 495.935 306.208C494.894 315.054 499.057 333.267 504.781 346.276C511.026 358.765 515.709 374.896 515.189 381.661C515.189 393.109 514.668 393.109 509.985 383.222C505.822 374.376 505.302 374.896 506.863 386.865C508.424 395.191 506.342 401.956 501.659 403.517C498.016 405.078 495.415 409.241 495.935 412.883C496.976 416.005 493.333 420.168 488.129 421.209C479.283 422.77 478.763 421.209 481.885 406.639C485.007 393.109 483.966 390.508 478.763 393.63C472.518 397.272 472.518 396.232 478.242 390.508C481.885 386.345 487.609 383.222 491.252 383.222C498.537 383.222 496.455 349.919 488.65 340.032C480.844 331.186 469.917 332.226 466.794 342.634C463.672 352 464.713 363.448 471.998 403.517C475.641 422.77 475.12 423.291 464.192 416.526C453.785 409.761 451.704 410.802 442.337 421.73C433.491 432.137 432.45 438.902 435.052 459.196C437.133 474.287 436.613 484.694 432.97 487.296C427.246 490.418 425.685 481.051 426.206 448.268C426.206 436.82 426.206 436.3 424.124 446.707C422.563 452.952 416.839 459.716 411.635 461.277C399.147 465.44 394.984 476.888 399.147 498.744C402.269 514.875 403.309 515.916 410.595 509.151C417.359 501.866 419.441 502.907 427.246 518.518C432.45 528.405 437.654 542.975 439.215 550.781C441.817 563.27 440.256 565.871 431.93 565.871C423.604 565.871 422.043 563.27 424.645 552.342C428.287 535.69 416.319 517.998 404.35 522.681C399.667 524.762 396.024 529.966 396.024 534.129C396.024 544.536 383.015 558.586 378.332 553.383C376.25 551.821 376.25 554.423 378.332 559.627C381.454 567.953 380.413 568.473 371.047 563.27C362.2 558.586 359.599 552.342 360.119 537.771C360.119 527.364 361.68 522.16 363.241 526.323C364.282 530.486 366.884 537.771 368.445 541.934C370.006 547.658 372.608 546.618 377.811 536.731C381.974 529.446 385.097 520.079 385.097 515.916C385.097 511.753 382.495 514.875 379.373 523.201L373.648 538.292L364.282 512.794C351.793 480.531 351.793 480.531 366.884 494.581C374.169 501.346 381.974 504.988 385.097 502.907C392.382 498.744 392.382 470.644 385.617 466.481C383.015 464.92 381.974 459.716 383.535 454.513C385.617 449.309 384.576 447.748 381.974 450.87C379.893 453.472 374.689 456.074 371.567 456.594C355.956 457.635 354.395 459.196 353.875 472.726C353.875 485.214 352.313 483.653 341.906 461.277C335.141 446.707 328.377 423.291 326.295 408.72C323.693 385.824 324.734 380.1 333.58 369.693L344.508 357.204L341.906 383.222C340.345 397.793 340.865 405.078 342.947 399.874C346.589 391.028 347.63 391.028 353.875 398.313C357.517 402.996 363.762 406.639 367.404 406.639C376.771 406.639 381.974 382.182 374.689 369.693C371.567 363.969 370.006 358.245 371.047 357.204C378.332 349.919 429.328 318.176 430.889 319.737C431.93 321.299 426.206 328.063 417.359 334.828C399.667 350.439 384.056 378.019 387.178 389.987C388.219 395.711 390.821 392.589 393.943 381.661C400.187 358.765 409.554 360.326 407.993 383.743C406.952 394.15 410.595 409.761 414.758 418.607L423.604 434.739L432.97 422.77C447.02 405.078 445.98 386.865 429.848 380.62C422.563 378.019 416.839 374.896 416.839 373.335C416.839 372.295 415.278 367.091 413.196 361.887C410.595 355.122 411.635 354.082 416.839 357.204C421.522 360.326 422.563 359.285 419.441 355.122C417.359 350.96 422.563 341.073 434.011 329.624C454.826 307.249 466.794 286.954 458.468 286.954C455.346 286.954 450.663 292.678 448.061 299.443C443.378 312.973 432.45 322.339 432.45 313.493C432.45 310.891 435.052 306.728 437.654 305.167C444.939 300.484 443.898 292.678 436.093 294.24C432.97 294.76 424.124 298.923 416.839 304.126C397.065 317.656 393.943 314.534 411.635 298.402C426.726 285.393 445.98 281.23 466.274 286.954ZM512.587 312.973C510.505 324.941 511.546 336.389 514.668 340.032C517.79 343.674 522.474 355.122 525.596 365.009L531.32 383.222L528.718 365.009C523.514 329.624 520.913 294.76 524.035 301.004C525.596 304.647 530.279 307.769 534.442 307.769C538.605 307.769 543.288 311.412 544.849 315.575C546.931 319.737 552.135 323.38 556.818 323.38C562.022 323.38 568.786 329.104 571.909 335.869C575.031 343.154 583.357 352.521 590.642 357.204C598.447 362.408 602.61 368.652 600.529 373.335C598.968 377.498 599.488 380.62 602.09 379.58C604.692 378.539 616.66 385.824 628.629 395.711C650.484 412.883 664.534 436.82 660.371 449.309C658.81 452.952 656.208 448.789 654.127 440.463C652.045 431.617 644.24 420.168 635.914 414.965C627.588 409.241 617.701 399.354 613.538 392.069C607.294 382.182 605.212 381.141 602.61 387.385C601.049 392.069 604.171 400.394 609.895 407.159C615.099 413.404 619.782 423.291 620.303 429.535C620.303 440.463 620.823 440.463 624.466 430.055C628.108 420.689 629.669 422.25 637.475 439.942C642.158 451.391 644.76 465.44 643.199 471.164C640.597 479.49 641.117 480.531 645.28 474.287C649.443 468.042 651.525 469.603 655.688 481.051C658.81 489.377 661.412 497.703 661.412 499.785C661.412 504.468 627.068 504.468 622.905 499.785C620.823 498.224 618.221 485.735 616.66 471.685C615.099 457.635 609.375 434.739 604.171 420.689C598.968 406.639 595.325 392.589 596.886 388.426C598.447 384.783 595.845 380.62 591.162 378.539C586.479 376.978 584.397 373.335 585.958 370.213C587.52 367.611 586.479 365.009 583.357 365.009C580.234 365.009 574.51 357.724 570.868 348.878C565.664 336.389 563.583 334.828 560.981 341.073C557.338 350.439 567.225 376.458 572.949 372.815C578.153 369.693 593.764 402.996 596.886 423.811C600.008 442.544 588.04 481.051 573.99 497.703L565.144 508.111L577.633 497.703C586.479 489.898 589.081 489.377 588.56 495.101C585.958 510.712 588.56 526.323 593.764 526.323C596.366 526.323 603.131 521.12 609.375 514.875C615.099 508.631 620.823 504.988 621.864 506.029C625.506 509.672 594.284 541.934 586.999 542.455C583.357 542.975 571.388 544.016 559.94 545.057C548.492 546.097 541.727 545.057 544.849 542.975C547.972 540.894 552.135 535.17 553.696 529.966C558.379 517.998 570.868 521.64 568.786 534.129C567.746 539.333 569.307 541.414 572.429 539.333C582.316 533.609 578.673 514.875 567.746 512.273C562.022 510.712 558.899 507.07 560.981 503.427C562.542 500.305 563.062 498.744 560.981 500.305C559.42 501.866 558.379 504.468 558.899 506.029C559.42 508.111 555.777 513.835 551.094 519.038C546.411 524.762 540.687 535.69 538.605 544.016L534.962 559.107L556.818 555.984C576.072 553.383 578.673 554.423 575.031 561.708C573.47 566.912 571.909 575.238 571.909 580.962C572.429 591.369 572.429 591.369 563.583 580.442C550.573 564.31 537.564 561.188 531.32 573.156C528.198 578.881 522.474 582.003 518.831 580.442C507.383 576.279 489.69 587.727 489.69 599.175C489.69 610.623 489.17 611.143 477.202 606.46C469.917 603.858 469.917 601.777 477.722 588.247C489.17 568.994 481.885 554.423 461.591 555.464C450.143 555.984 448.061 553.903 448.061 541.414C448.061 531.007 450.663 526.323 456.387 526.323C462.631 526.323 464.192 529.446 461.591 539.853C458.989 548.699 460.03 551.821 463.672 549.74C473.039 544.016 469.396 525.283 458.468 522.681C450.663 520.599 449.102 516.957 451.183 508.111C452.744 501.346 451.704 494.581 448.581 493.02C444.939 490.418 442.857 495.101 442.857 504.988C442.857 513.835 440.776 521.12 437.654 521.12C431.409 521.12 430.889 499.264 437.133 492.5C443.898 484.694 448.581 453.472 442.857 453.472C434.532 453.472 437.133 439.942 447.541 426.933C461.07 410.281 467.835 418.607 456.387 437.861C451.704 446.707 449.622 453.472 451.704 453.472C454.305 453.472 455.867 462.318 454.826 472.726L453.785 492.5L457.948 474.287C463.672 447.748 472.518 434.218 488.65 425.893C496.455 422.25 502.179 416.005 501.139 412.363C500.618 408.72 502.179 407.159 504.781 409.241C511.546 413.404 520.913 395.191 520.913 378.019C520.913 370.734 517.79 358.245 513.627 350.439C505.822 334.308 499.577 299.964 503.74 295.28C512.066 286.954 515.709 294.24 512.587 312.973ZM429.848 307.249C424.124 317.136 364.282 354.602 359.599 352C356.997 350.439 353.875 351.48 351.793 354.082C350.232 357.204 345.549 358.245 341.906 356.684C332.019 353.041 312.765 385.824 312.765 405.598C312.765 414.965 323.173 442.024 336.182 467.001C359.599 511.233 362.721 529.446 346.589 523.201C342.426 521.12 335.141 523.201 330.458 526.844C321.091 534.649 324.214 563.27 336.702 580.442C345.028 592.93 346.069 599.175 338.784 599.175C336.182 599.175 333.58 596.053 333.58 591.89C333.58 588.247 329.938 582.003 325.775 578.36C321.612 574.718 319.01 570.034 320.571 567.953C322.132 565.351 320.571 561.708 317.449 560.147C314.327 558.066 313.286 551.301 314.847 545.057C316.408 538.812 314.327 527.364 310.164 519.559C306.001 511.753 304.96 506.549 307.041 508.111C309.643 509.151 314.327 507.07 317.969 502.907C325.775 493.54 335.662 492.5 330.458 501.346C328.377 504.988 328.377 506.549 330.978 504.468C333.06 502.387 338.263 504.468 341.906 509.672C345.549 514.355 350.232 516.436 352.834 513.835C354.915 511.233 353.875 508.111 350.232 507.07C347.11 505.509 345.549 501.866 347.11 499.264C349.191 496.142 348.671 495.101 345.549 496.662C339.304 500.305 322.652 483.653 311.204 461.277C306.521 452.431 302.878 448.789 302.358 452.431C302.358 456.074 300.277 457.635 297.154 456.074C291.951 452.952 293.512 413.924 299.756 389.987C301.838 381.661 306.001 376.978 309.123 379.059C311.725 380.62 312.765 380.1 311.204 376.978C305.48 368.132 323.173 349.919 349.191 336.389C381.974 319.737 388.219 319.737 363.241 336.389C352.834 343.674 343.988 350.96 343.988 352C343.988 356.163 392.902 328.063 411.635 312.973C429.848 298.923 436.613 296.321 429.848 307.249ZM487.609 351.48C489.17 355.643 488.129 363.448 485.528 368.132C480.844 376.458 479.803 375.937 474.6 365.53C468.355 354.082 470.957 344.195 479.803 344.195C482.405 344.195 486.048 347.317 487.609 351.48ZM309.643 356.163C308.603 359.806 299.756 367.091 290.39 372.295L273.738 381.661L290.91 365.53C309.123 347.837 313.806 345.756 309.643 356.163ZM370.006 383.743C370.006 390.508 367.924 396.232 364.802 396.232C357.517 396.232 348.15 375.417 351.273 366.571C355.956 355.122 370.006 368.132 370.006 383.743ZM290.91 398.313C292.471 405.598 290.91 407.159 281.543 404.037C260.729 397.272 246.158 423.811 262.81 437.861C276.34 448.789 267.493 457.115 246.158 453.992C232.108 451.39 226.384 447.748 225.344 440.463C223.783 428.494 241.995 396.232 250.842 396.232C253.964 396.232 251.362 402.476 245.638 409.761C234.71 423.811 231.068 443.065 239.394 443.065C241.995 443.065 245.638 435.259 247.199 425.893C253.444 393.63 286.227 372.815 290.91 398.313ZM434.011 394.15C438.694 399.354 427.767 418.087 421.522 414.444C414.237 409.761 415.798 391.028 423.604 391.028C427.767 391.028 432.45 392.589 434.011 394.15ZM283.625 414.965C288.308 426.413 287.267 443.065 282.584 443.065C274.779 443.065 265.932 430.576 265.932 418.607C265.932 405.078 278.942 402.476 283.625 414.965ZM206.61 444.105C209.212 447.748 208.172 448.268 203.488 445.666C198.285 442.544 197.244 443.585 199.846 450.35C201.927 455.553 201.407 458.155 198.285 456.074C195.162 454.513 191.52 456.074 189.959 460.237C186.837 469.083 201.927 508.631 207.131 503.948C208.692 501.866 213.896 503.427 218.059 507.07C224.823 512.273 225.344 511.753 221.701 506.029C219.099 500.825 219.62 499.785 223.783 502.387C226.905 504.468 228.466 508.111 227.425 510.192C224.303 515.396 252.923 525.803 259.168 521.64C265.932 517.477 272.177 498.744 265.932 502.907C262.81 504.468 260.729 502.387 260.729 498.224C260.729 487.816 236.792 472.205 226.905 476.368C222.742 477.929 219.099 484.174 219.099 490.418C219.099 501.346 218.579 501.866 208.692 492.5C198.805 483.653 193.601 465.44 202.968 471.164C205.049 472.726 209.733 468.042 213.375 460.757C218.579 448.789 220.66 448.268 227.946 453.992C232.629 458.155 240.955 460.757 246.158 459.716C251.882 458.676 268.534 464.4 283.105 471.685L310.164 485.735L289.349 467.001C276.34 455.033 272.697 449.829 279.462 452.431C285.186 454.513 297.675 464.4 306.521 474.807C320.051 490.418 321.612 495.101 316.408 499.785C310.684 503.948 306.521 502.387 297.154 492.5C285.186 479.49 251.362 461.277 247.199 465.44C245.638 466.481 251.882 470.644 260.729 474.287C269.055 477.929 274.779 483.133 272.697 486.255C271.136 488.857 271.656 489.898 274.779 488.337C277.38 486.775 285.186 488.857 292.471 494.061L304.44 502.387L291.951 505.509C266.453 511.233 273.738 536.21 307.562 558.066L320.051 566.392L302.878 568.994C288.308 571.075 286.227 570.034 288.308 562.229C289.869 557.025 289.349 553.383 287.267 553.903C285.186 554.423 276.86 547.658 269.055 539.333C255.005 523.722 255.005 523.722 263.851 537.771C272.177 551.821 272.177 552.342 261.769 552.342C255.525 552.342 249.801 557.025 247.72 563.27C244.077 573.677 237.312 572.636 237.312 561.188C237.312 557.545 235.231 554.944 232.108 554.423C215.457 553.903 193.081 545.057 185.796 537.251C180.072 531.007 179.551 527.885 183.714 527.885C187.357 527.885 196.724 525.803 205.049 523.722C217.018 520.599 218.579 521.12 215.977 528.405C210.773 541.414 222.222 550.781 239.914 548.179C248.24 547.138 255.525 544.536 255.525 542.455C255.005 528.405 224.303 513.314 205.049 518.518C191.52 521.64 180.072 506.029 185.275 489.898C186.837 484.174 186.316 475.327 183.194 470.644C179.031 463.359 177.99 466.481 177.47 485.735C177.47 499.264 180.072 511.753 182.674 513.314C189.959 517.998 188.918 526.323 181.633 524.762C170.705 522.681 167.063 514.355 167.063 490.938C167.063 472.205 169.664 465.44 183.194 452.952C201.407 435.779 201.407 435.779 206.61 444.105ZM697.317 470.124C705.643 493.54 704.082 524.762 694.195 543.496C689.512 552.862 685.869 561.708 686.389 563.79C686.91 565.871 684.308 566.392 680.145 564.831C675.982 563.27 671.299 564.31 669.217 567.432C667.656 570.555 659.851 573.156 652.565 573.156H639.036L653.606 560.668C661.932 553.383 670.258 548.699 671.819 549.74C673.901 550.781 680.145 546.618 685.869 539.853C696.797 527.885 697.838 509.672 690.552 475.327C683.788 445.666 675.982 462.839 680.145 499.264C683.267 531.007 683.267 533.088 673.901 529.446C666.095 526.323 665.054 526.844 670.778 532.047C679.625 541.414 678.584 549.74 669.217 541.934C662.453 536.21 659.33 538.292 660.371 547.658C660.891 549.74 656.208 550.26 650.484 548.699C641.117 546.097 640.597 545.057 647.882 540.894C658.29 535.17 667.136 501.346 664.014 478.97C661.932 463.879 662.453 463.359 666.095 474.287C668.697 481.572 671.299 483.653 671.299 479.49C671.819 475.327 673.38 465.961 675.462 459.196C677.543 450.35 677.023 447.748 672.86 450.35C669.217 452.431 666.615 450.87 666.615 445.666C666.615 432.137 691.073 451.39 697.317 470.124ZM601.57 482.613C588.04 489.898 586.999 488.857 593.244 473.766C595.845 467.001 600.008 456.594 602.09 450.87C605.212 442.024 606.253 443.585 608.855 458.676C611.456 473.246 609.895 477.929 601.57 482.613ZM379.373 482.092C381.454 497.703 381.454 497.703 370.526 487.816C356.997 475.848 355.956 462.318 368.965 464.92C374.169 465.961 378.332 472.205 379.373 482.092ZM422.043 475.848C422.043 479.49 418.4 487.296 414.237 493.02C406.952 502.387 406.952 501.866 406.432 485.735C406.432 474.287 409.034 469.083 414.237 469.083C418.4 469.083 422.043 472.205 422.043 475.848ZM252.403 496.142C255.005 500.825 256.045 506.549 254.484 508.111C249.281 513.314 229.507 500.825 229.507 491.979C229.507 481.572 244.597 484.694 252.403 496.142ZM614.579 491.979C614.579 496.142 609.895 504.468 604.171 511.233C594.284 523.722 594.284 523.722 593.764 512.273C593.764 506.029 595.325 497.703 596.886 493.02C601.049 482.613 614.579 482.092 614.579 491.979ZM157.696 496.142C155.094 499.785 148.85 515.916 144.166 531.007C137.922 552.342 137.402 561.188 141.565 564.831C146.248 568.994 146.768 568.473 144.166 563.79C142.085 560.668 142.605 557.545 145.207 557.545C148.329 557.545 151.972 551.821 153.533 544.536C157.176 529.966 167.583 527.885 177.47 539.333C182.674 545.577 182.153 547.138 173.307 547.138C160.818 547.138 154.053 561.188 162.379 571.075C169.144 579.401 194.642 591.369 213.896 596.053C221.181 597.614 231.068 601.777 236.271 605.419C244.597 611.664 244.077 612.184 232.629 612.184C225.864 612.184 221.181 610.623 222.742 608.021C223.783 605.94 217.018 604.379 207.651 603.858C182.674 603.338 148.85 591.369 150.411 584.084C150.931 580.442 149.89 578.881 147.289 580.442C142.605 583.043 125.433 551.821 125.433 540.894C125.433 531.007 151.452 489.898 157.696 489.898C161.339 489.898 161.339 491.979 157.696 496.142ZM299.236 519.038C303.919 523.201 307.562 532.047 307.562 537.771C307.562 548.179 307.041 548.699 297.154 539.333C291.43 534.129 286.747 525.803 286.747 520.079C286.747 508.631 288.829 508.111 299.236 519.038ZM649.443 519.559C652.045 526.844 632.792 537.771 621.864 535.69C615.619 534.649 616.14 532.047 624.986 522.16C636.434 510.192 646.321 509.151 649.443 519.559ZM245.118 534.129C250.842 540.894 249.281 541.934 237.833 541.934C229.507 541.934 224.303 539.333 224.303 534.129C224.303 529.966 227.425 526.323 231.588 526.323C235.231 526.323 241.475 529.966 245.118 534.129ZM353.354 548.699C351.793 555.984 350.232 555.984 341.906 549.74C335.662 545.057 333.58 539.333 335.662 533.609C338.784 525.283 339.825 525.283 347.11 532.568C351.793 537.251 354.395 544.536 353.354 548.699ZM418.4 541.934C422.043 555.984 413.717 560.147 406.952 547.658C399.667 534.129 399.667 531.527 408.513 531.527C412.156 531.527 416.839 536.21 418.4 541.934ZM616.66 550.781C611.456 554.944 602.09 561.188 596.366 565.351C586.479 572.636 586.479 572.636 595.845 569.514C602.61 567.432 604.692 567.953 602.09 572.116C598.447 578.36 578.153 578.36 578.153 572.636C578.153 570.555 583.877 561.708 591.162 553.383C600.529 541.934 607.294 538.292 615.619 540.894C626.027 543.496 626.027 544.016 616.66 550.781ZM118.668 560.147C117.107 570.555 117.628 577.319 120.229 575.758C122.311 574.197 130.116 577.84 136.361 584.084C143.126 589.808 145.207 593.451 141.044 592.41C136.881 591.369 128.035 591.89 122.311 594.492C111.904 598.134 110.863 596.573 110.863 579.401C110.342 558.586 113.985 541.934 118.668 541.934C120.229 541.934 120.229 550.26 118.668 560.147ZM193.081 562.229C200.366 576.279 199.846 578.36 188.918 578.36C177.99 578.36 167.063 568.994 167.063 559.107C167.063 548.699 186.837 551.301 193.081 562.229ZM405.391 572.116C406.432 581.482 404.871 588.768 401.748 588.768C398.626 588.768 396.024 593.451 396.024 599.175C396.024 604.379 391.861 611.664 387.178 614.266C378.332 619.469 379.373 620.51 396.024 622.071C401.228 622.591 403.83 627.795 403.309 636.641C402.789 644.447 404.871 649.651 406.952 648.089C409.554 646.528 411.635 648.089 411.635 650.691C411.635 653.813 405.391 656.415 398.106 656.415C390.3 656.415 386.137 654.334 388.219 651.212C390.3 648.089 388.739 642.365 385.617 638.202C381.974 634.039 380.934 630.397 383.535 630.397C385.617 630.397 379.373 621.551 369.486 610.623C348.671 588.768 331.499 563.27 335.141 559.107C339.825 554.944 358.558 569.514 355.956 575.758C354.915 579.401 361.68 588.768 371.047 596.573L387.698 610.623L391.861 596.573C393.943 588.247 393.422 577.84 390.3 572.116C387.698 566.912 386.658 560.147 388.219 557.025C394.463 547.138 403.83 555.464 405.391 572.116ZM222.222 568.994C230.547 575.238 234.19 576.799 230.547 572.116C225.344 565.871 225.344 562.749 230.027 559.627C233.67 557.545 234.71 558.066 233.149 561.188C229.507 566.912 256.566 594.492 275.299 603.858C285.706 609.582 291.951 625.193 283.105 625.193C275.299 624.673 224.303 590.329 227.425 587.206C228.986 585.645 227.425 583.043 223.783 580.442C219.62 578.36 218.579 578.881 221.181 582.523C223.262 586.166 221.701 588.768 217.018 588.768C212.335 588.768 208.692 584.605 208.692 579.401C208.692 574.197 206.09 567.432 202.448 563.79C191.52 552.862 206.09 557.025 222.222 568.994ZM276.34 565.351C282.064 572.116 280.503 573.156 269.055 573.156C260.729 573.156 255.525 570.555 255.525 565.351C255.525 561.188 258.647 557.545 262.81 557.545C266.453 557.545 272.697 561.188 276.34 565.351ZM479.283 565.351C479.283 571.595 466.794 593.971 462.631 593.971C457.428 593.971 456.907 571.075 462.111 566.392C465.754 562.229 479.283 561.708 479.283 565.351ZM381.454 580.962C384.576 588.247 385.617 595.532 384.056 597.614C379.893 601.777 365.323 584.084 364.802 574.197C364.802 563.27 375.21 567.432 381.454 580.962ZM319.01 582.003C329.938 591.89 330.978 599.175 321.612 599.175C310.164 599.175 295.073 585.645 299.236 579.401C304.44 571.075 307.562 571.595 319.01 582.003ZM439.215 592.41C437.654 596.573 432.97 598.655 428.807 597.093C423.083 594.492 421.522 598.134 422.563 611.143C423.604 620.51 422.563 630.917 419.961 634.56C417.88 638.202 419.441 640.804 424.124 640.804C433.491 640.804 434.011 641.845 429.328 653.293C427.767 657.976 423.604 660.058 421.002 658.497C417.88 656.415 416.839 659.538 419.441 666.302C423.083 678.791 419.441 680.352 409.034 669.945C402.789 663.7 402.789 662.139 409.034 659.538C417.88 656.415 419.441 640.804 411.115 640.804C406.952 640.804 406.952 638.202 411.635 632.999C415.798 627.795 417.359 616.347 415.278 600.216C414.237 586.686 413.717 579.921 415.278 584.605C417.88 595.532 432.45 590.849 432.45 578.881C432.45 572.116 433.491 572.116 437.133 577.84C439.735 582.003 440.776 588.247 439.215 592.41ZM552.135 579.921C552.135 587.206 541.727 599.175 535.483 599.175C529.238 599.175 530.279 586.686 537.564 579.401C545.89 571.075 552.135 571.595 552.135 579.921ZM286.747 583.564C286.747 592.93 303.919 604.379 318.49 604.379C328.897 604.379 333.58 606.98 333.58 613.225C333.58 617.908 337.223 626.234 342.426 631.438C349.191 638.723 349.191 640.804 343.467 640.804C337.743 640.804 337.743 641.845 343.988 646.008C350.752 650.691 350.752 651.732 343.988 656.415C339.825 659.017 330.978 661.619 324.734 661.619C318.49 661.619 311.725 664.221 309.643 667.343C306.521 672.547 296.114 671.506 269.575 663.7C264.371 662.139 260.729 662.66 261.249 665.262C263.851 680.873 260.208 688.678 250.321 686.076C244.077 684.515 240.955 685.556 243.036 688.678C245.118 691.8 243.557 693.361 239.394 691.8C235.231 690.239 226.384 693.361 219.62 698.565C212.855 704.289 202.448 708.452 196.724 708.452C188.398 708.452 190.479 705.33 206.61 692.841C247.72 661.619 248.76 658.497 221.701 653.293C192.561 648.089 173.827 672.026 199.325 681.913L210.773 686.076L197.764 694.402C178.511 706.891 160.298 709.493 143.646 702.728C130.116 697.524 129.596 695.963 138.442 694.402C156.655 690.76 177.47 681.393 177.47 676.71C177.47 669.945 155.094 656.415 143.646 656.415C137.402 656.415 130.116 659.017 126.474 662.66C118.148 670.986 118.668 687.637 126.994 688.158C131.678 688.158 131.678 689.198 126.474 691.28C123.352 692.321 121.27 695.443 122.311 697.524C123.872 699.606 121.791 701.687 117.628 701.687C113.465 701.687 111.383 697.524 112.944 691.28C113.985 685.556 112.424 677.75 109.302 674.108C106.18 669.945 105.659 662.139 107.741 655.375C109.822 648.61 111.383 640.284 110.863 636.641C109.822 633.519 111.904 630.397 114.505 630.397C117.628 630.397 118.668 626.234 116.587 621.03C113.985 613.745 115.026 613.225 120.75 618.428C127.515 625.193 172.266 627.795 172.266 621.551C172.266 619.99 168.624 614.266 164.461 609.582C157.176 601.256 157.176 600.736 169.664 602.817C176.429 604.379 181.112 607.501 179.551 610.103C177.99 612.704 180.592 613.225 185.275 611.664C192.561 608.542 239.914 627.275 239.914 632.999C239.914 634.56 232.629 635.601 223.783 635.601C212.335 635.601 207.131 632.999 205.049 625.193C203.488 619.469 200.366 616.347 197.244 617.908C194.642 619.469 194.122 625.193 195.683 630.917C198.285 639.243 196.203 640.804 181.633 640.804C172.266 640.804 155.094 638.202 144.166 635.601C132.718 632.999 120.75 632.478 118.148 634.56C104.618 642.886 221.701 650.691 242.516 642.886C249.801 639.764 249.801 638.202 239.394 627.275L227.946 615.306L240.434 616.867C262.81 619.469 271.136 625.193 266.453 635.08C259.688 647.049 269.055 661.619 283.105 661.619C303.919 661.619 317.449 655.895 314.327 648.089C312.765 643.406 315.367 640.804 322.652 640.804C332.019 640.804 332.539 639.243 327.336 627.795C324.214 620.51 315.367 613.225 308.082 611.143C291.951 607.501 255.525 588.247 255.525 583.564C255.525 581.482 262.81 579.921 271.136 579.401C279.982 579.401 286.747 580.962 286.747 583.564ZM518.831 598.655C516.75 601.777 510.505 606.98 504.781 609.582C491.772 616.867 490.731 603.858 503.22 591.369C512.587 582.523 525.075 588.247 518.831 598.655ZM693.675 605.419C691.593 614.786 668.697 624.153 662.973 617.908C657.769 612.704 677.023 594.492 686.91 595.532C693.154 596.053 695.756 599.175 693.675 605.419ZM148.85 605.94C155.094 611.143 156.655 614.266 151.972 616.867C143.646 622.071 125.433 615.306 125.433 606.46C125.433 597.093 136.361 597.093 148.85 605.94ZM106.18 624.673C97.8537 637.682 91.0889 685.036 98.374 680.352C101.496 678.271 102.537 680.873 100.976 687.117C98.374 698.045 106.18 704.81 125.433 707.411C210.773 717.298 210.773 717.298 228.986 704.81C248.76 691.28 252.403 690.76 265.932 698.045C276.34 703.248 302.358 695.443 302.358 687.117C302.358 684.515 306.521 684.515 311.204 686.076C324.214 691.28 277.901 710.013 255.525 708.972C232.629 707.411 213.896 724.063 223.783 736.552C231.068 744.878 227.425 748.52 202.968 755.285C194.122 757.887 188.918 757.887 190.479 755.285C192.04 752.683 186.316 746.959 177.47 742.276C163.42 734.991 160.298 734.991 146.248 742.276C135.32 748 130.637 754.244 130.637 763.091C130.637 775.059 134.8 777.661 154.574 777.661C157.696 777.661 156.655 784.426 151.972 794.313C142.605 813.566 141.565 813.566 138.442 796.915C136.881 790.15 133.759 782.344 130.637 779.222C128.035 776.62 125.433 769.855 125.433 764.652C125.433 759.448 123.352 755.285 120.229 755.285C117.628 755.285 116.587 758.928 118.148 763.091C122.831 775.059 116.067 772.457 109.302 759.968C105.139 752.163 105.139 750.081 109.302 752.163C112.424 754.244 115.026 753.204 115.026 750.081C115.026 746.959 112.424 739.154 109.302 733.43C105.139 725.624 105.139 723.543 109.302 726.145C116.067 730.308 116.587 728.226 111.904 716.778C110.342 712.095 105.659 708.452 102.017 708.452C91.0889 708.452 86.9259 667.343 94.2111 632.999C98.8944 611.143 102.017 604.899 106.18 609.062C110.863 613.745 110.863 617.388 106.18 624.673ZM361.68 615.827C374.169 632.999 371.567 636.641 354.395 627.795C338.784 619.99 335.662 614.266 342.426 608.021C348.15 601.777 353.354 603.858 361.68 615.827ZM438.694 615.827C439.735 622.071 445.459 630.397 452.224 633.519C462.631 638.723 463.152 640.284 455.867 646.008C449.622 651.212 448.061 651.212 448.061 643.926C448.061 639.243 444.419 635.601 439.735 635.601C435.572 635.601 433.491 632.999 435.052 630.397C436.613 627.275 435.572 625.193 432.97 625.193C429.848 625.193 427.246 620.51 427.246 614.786C427.246 600.736 436.613 601.777 438.694 615.827ZM484.487 622.591C484.487 626.234 490.211 630.917 497.496 632.478C506.342 634.56 510.505 639.243 510.505 646.528C510.505 654.854 512.587 656.415 519.872 653.813C534.442 648.089 537.564 648.089 540.166 654.854C543.288 663.7 521.953 668.904 513.107 661.619C508.944 657.976 505.302 651.732 505.302 647.569C505.302 642.365 500.618 640.804 491.252 641.845C478.242 643.406 476.681 645.488 478.242 659.017C479.283 667.343 483.446 676.71 487.609 678.791C499.057 685.036 496.455 692.321 483.446 689.719C476.681 688.678 474.6 688.678 478.242 690.76C489.17 695.963 485.007 702.208 470.957 700.647C461.591 699.606 458.468 701.687 460.55 706.371C462.631 711.574 458.989 713.656 448.061 713.656C429.848 713.656 429.328 713.656 442.857 698.045C452.744 686.597 452.744 677.23 442.337 677.23C439.735 677.23 437.654 680.873 437.654 685.036C437.654 689.198 435.572 692.841 433.491 692.841C426.206 692.841 427.246 663.7 435.052 653.293C441.817 644.447 442.337 644.447 442.857 652.252C442.857 657.456 440.256 661.619 436.613 661.619C433.491 661.619 435.052 664.741 440.256 668.904C445.98 673.067 452.744 675.149 455.346 673.587C457.948 671.506 458.989 675.669 456.907 681.913C455.346 688.678 456.387 692.841 459.509 691.8C462.111 690.76 463.672 688.678 463.152 687.637C462.631 686.076 464.713 679.832 468.355 673.067C474.079 662.139 474.079 661.619 461.591 664.741C445.459 668.384 442.857 658.497 458.468 653.813C464.192 652.252 468.876 647.049 468.876 642.886C468.876 638.723 470.957 635.601 473.559 635.601C478.763 635.601 478.242 622.071 472.518 616.867C470.437 614.786 468.876 617.388 468.876 622.591C468.876 630.397 467.315 630.917 462.631 626.234C457.428 621.03 457.428 618.428 463.152 615.306C472.518 609.582 484.487 613.745 484.487 622.591ZM317.969 622.591C321.612 627.275 323.173 631.958 321.091 634.039C316.928 638.723 291.951 626.754 291.951 619.99C291.951 612.184 310.684 613.745 317.969 622.591ZM549.533 619.99C553.175 625.714 527.677 639.243 522.994 634.039C518.311 629.356 530.8 614.786 539.646 614.786C543.288 614.786 547.972 616.867 549.533 619.99ZM788.902 706.371C786.82 719.9 783.178 727.706 778.495 727.706C772.77 727.706 772.25 725.104 776.413 717.298C784.219 703.769 786.82 676.71 781.617 669.945C779.535 666.823 777.454 653.813 776.933 640.804C776.413 618.428 776.933 618.949 784.219 651.212C788.381 669.945 790.463 694.402 788.902 706.371ZM298.716 641.325L309.643 647.569L298.195 651.732C284.145 656.936 271.136 652.773 271.136 642.886C271.136 634.039 283.625 633.519 298.716 641.325ZM500.098 662.66C500.098 665.262 496.976 665.782 493.853 664.221C490.211 662.139 491.772 664.221 497.496 668.904C516.75 683.474 520.913 688.158 520.913 693.361C520.913 695.963 512.587 691.8 502.7 683.995C491.252 674.628 484.487 664.741 484.487 656.936C484.487 646.528 485.528 646.008 492.292 651.212C496.455 654.854 500.098 660.058 500.098 662.66ZM588.56 655.895C588.56 659.017 586.479 662.139 583.877 663.7C577.112 667.863 562.022 661.619 565.664 655.895C569.307 649.651 588.56 649.651 588.56 655.895ZM222.222 669.424C209.212 679.311 198.285 679.311 198.285 669.424C198.285 664.221 203.488 661.619 215.457 661.619C231.068 662.139 231.588 662.139 222.222 669.424ZM364.802 682.434C360.119 685.556 359.599 687.637 363.241 687.637C366.363 687.637 370.526 685.556 372.608 682.434C377.291 674.628 390.821 682.434 390.821 693.361C390.821 698.565 393.422 703.248 396.545 703.248C399.147 703.248 400.187 700.647 398.106 697.004C396.024 693.882 396.545 692.841 400.187 694.923C403.309 696.484 407.472 695.963 409.034 692.841C411.635 688.678 414.758 689.198 419.961 693.361C430.889 702.208 428.807 707.411 415.798 704.81C399.147 702.208 390.821 709.493 394.463 723.543C396.545 732.389 398.626 733.95 402.269 728.226C405.911 723.022 406.432 723.543 404.35 730.308C402.789 735.511 403.83 739.674 406.432 739.674C409.554 739.674 411.635 737.593 411.635 734.991C411.635 732.389 413.196 726.145 415.278 720.941C417.359 714.697 416.839 713.135 412.676 715.737C409.034 717.819 406.432 716.778 406.432 714.176C406.432 707.932 412.156 706.891 424.124 711.574C428.807 713.135 432.45 718.859 432.45 723.543C432.45 730.828 431.409 730.828 426.726 724.063C422.563 718.339 422.043 720.421 423.604 733.43C425.165 746.439 423.604 750.081 418.4 748C407.993 743.837 390.821 756.326 390.821 767.774C390.821 774.539 389.26 776.62 385.617 772.978C378.332 765.693 385.617 743.837 393.943 746.959C398.106 748.52 401.228 747.48 401.228 744.878C401.228 741.756 399.147 739.674 396.024 739.674C393.422 739.674 390.821 734.991 390.821 729.267C390.821 723.543 387.178 718.859 383.015 718.859C374.689 718.859 374.689 708.452 383.015 702.208C386.137 699.606 385.617 698.045 381.454 698.045C377.811 698.045 376.25 694.923 377.811 691.28C379.893 688.158 378.332 688.678 374.169 693.361C370.006 698.045 363.762 700.126 358.037 698.565C349.712 695.443 349.712 693.882 356.476 685.036C362.2 677.23 362.721 672.547 358.037 666.823C354.915 662.66 356.997 663.18 362.721 668.384C371.047 676.189 371.567 678.271 364.802 682.434ZM565.144 677.75C560.981 684.515 543.288 683.474 538.605 676.71C537.044 673.587 538.085 668.904 542.248 666.823C550.573 661.619 569.307 670.465 565.144 677.75ZM160.818 671.506C166.022 674.628 163.42 677.75 151.452 682.434C140.003 687.117 133.759 687.637 129.596 683.474C117.107 670.986 143.646 660.578 160.818 671.506ZM339.304 672.026C341.906 672.026 343.988 674.108 343.988 677.23C343.988 679.832 337.223 682.434 328.377 682.434C313.286 682.434 308.603 677.75 316.408 669.945C318.49 668.384 323.173 667.863 327.336 669.424C330.978 670.986 336.702 672.026 339.304 672.026ZM629.149 676.71C634.353 679.832 634.353 681.913 628.629 687.117C622.905 691.28 617.181 691.8 606.253 687.637C594.284 682.954 593.244 680.873 598.968 677.23C608.334 670.986 620.303 670.986 629.149 676.71ZM297.154 682.434C297.154 688.158 272.177 695.443 268.014 691.28C265.932 689.719 266.453 686.076 268.534 682.954C272.697 675.669 297.154 675.669 297.154 682.434ZM331.499 716.778C322.652 723.022 314.847 727.706 313.806 726.665C311.204 724.583 325.254 695.963 330.458 691.8C333.58 689.719 338.263 692.321 341.906 697.004C347.11 704.289 345.549 707.411 331.499 716.778ZM309.643 713.656C300.797 728.226 287.788 737.593 283.105 732.389C277.901 727.185 287.788 709.493 298.716 704.289C316.928 695.443 319.01 697.004 309.643 713.656ZM591.162 702.728C592.723 705.33 592.203 708.972 589.601 710.534C583.357 714.176 562.542 708.452 562.542 702.728C562.542 696.484 586.999 696.484 591.162 702.728ZM554.736 714.176C557.338 717.298 557.338 720.941 553.175 725.104C547.972 730.308 543.809 728.226 532.361 716.778L518.311 702.208L533.922 705.85C542.768 707.411 551.614 711.574 554.736 714.176ZM364.802 712.615C364.802 719.38 349.191 739.674 343.467 739.674C335.141 739.674 338.263 719.38 348.15 714.176C359.078 707.411 364.802 706.891 364.802 712.615ZM273.738 727.185C281.543 736.552 288.829 739.674 295.073 737.593C300.797 736.032 306.521 734.991 308.082 736.032C309.643 736.552 314.847 733.95 319.01 730.308C325.775 725.104 327.336 725.624 329.938 734.47C333.06 747.48 351.273 748 360.639 735.511C368.965 724.583 385.617 722.502 385.617 732.909C385.617 737.072 383.535 739.154 380.413 737.072C373.648 732.909 354.395 753.204 354.395 765.693C354.395 770.896 358.037 777.661 362.2 779.742C368.965 783.385 366.884 787.028 353.354 796.915C343.988 804.2 334.621 809.924 332.539 809.924C330.978 809.924 327.336 812.005 324.734 814.607C322.652 817.209 323.173 817.729 326.815 815.648C331.499 813.046 332.019 817.209 329.938 830.738C327.856 844.788 328.897 849.472 335.662 852.074C341.906 854.675 342.947 857.277 338.263 862.481C335.141 866.123 333.58 873.409 335.141 878.612C336.702 885.897 338.784 883.816 343.988 870.807C350.752 852.074 359.599 848.431 359.599 864.042C359.599 877.051 339.304 892.142 330.978 885.377C327.336 882.255 321.091 883.296 313.286 888.499C307.041 893.183 298.716 895.264 295.073 894.223C290.91 892.662 282.584 895.264 275.819 899.947C263.851 907.753 263.851 907.753 271.136 898.907C278.421 889.54 277.901 889.54 265.932 893.183C253.444 896.825 253.444 896.305 261.769 887.459C268.534 880.694 272.697 879.653 276.86 883.816C280.503 887.459 287.788 887.979 298.716 884.857C319.01 879.133 326.295 872.368 317.449 867.164C313.806 864.562 312.245 865.083 314.847 868.725C316.928 872.368 311.204 875.49 299.756 878.092C285.706 880.694 278.421 879.133 270.616 871.848C262.29 864.562 260.729 864.042 263.331 870.807C267.493 880.694 254.484 886.418 244.597 879.133C238.873 874.97 238.873 874.449 245.638 876.531C250.321 878.092 253.964 876.01 253.964 872.888C253.964 868.205 246.679 866.644 232.629 867.164C221.181 868.205 206.61 866.644 200.886 864.042C192.561 859.879 193.601 859.879 205.049 861.961C213.375 863.522 218.579 863.001 217.538 860.92C215.977 858.838 221.701 856.757 230.027 856.236C237.833 855.716 243.557 857.798 241.995 859.879C240.434 862.481 243.036 863.001 247.72 861.44C251.882 859.359 258.127 853.635 261.249 847.911C265.412 840.105 265.412 838.024 261.249 840.625C251.882 846.87 255.005 835.422 264.892 826.576C270.095 821.372 276.34 819.29 278.421 821.372C280.503 823.453 280.503 821.372 278.421 816.168C276.86 810.965 277.901 807.322 281.543 807.322C284.666 807.322 286.227 805.24 284.666 802.639C283.105 800.037 286.747 791.711 292.992 783.385C299.756 775.58 301.317 770.896 297.675 772.978C287.267 779.742 295.073 750.081 306.521 740.715C311.204 736.552 308.603 737.072 300.797 742.276C291.43 747.48 279.982 750.081 272.177 748C264.371 746.439 260.729 746.439 264.371 748C268.014 749.561 265.412 755.285 257.607 763.091C246.679 774.018 245.638 777.661 250.321 787.028C255.005 794.833 260.208 797.435 269.055 795.353C281.023 793.272 281.023 793.272 272.177 808.363C267.493 816.689 256.045 830.218 247.199 839.064C231.068 854.675 230.547 854.675 211.294 846.87C200.366 842.187 188.398 838.544 184.235 838.544C172.266 838.544 182.153 848.951 194.642 849.472C205.57 849.472 205.57 849.992 195.683 854.155C182.674 859.879 174.348 860.399 179.031 855.716C181.112 854.155 177.99 849.472 172.266 845.309C157.696 834.901 159.257 829.177 176.429 831.259C184.235 832.3 187.877 832.3 184.235 830.218C176.429 826.576 181.633 812.526 190.479 812.526C194.642 812.526 198.285 817.729 199.325 823.974C200.366 833.34 204.529 835.942 215.977 835.942C227.946 835.942 233.67 832.3 241.475 819.29L251.362 802.118L239.394 797.955C231.588 794.833 230.027 792.231 233.67 789.629C237.312 787.548 239.914 782.344 239.914 778.181C239.914 768.815 213.375 768.294 204.529 777.141C200.886 780.783 194.122 783.905 189.438 783.905C184.755 783.905 179.551 787.548 178.511 791.711C176.429 798.476 176.95 798.476 184.235 792.752C190.999 787.028 193.081 787.548 198.285 796.394C203.488 806.802 202.448 807.322 180.072 807.322C167.063 807.322 156.135 809.403 156.135 812.526C155.614 815.127 155.094 819.811 154.574 822.413C154.574 825.014 151.972 829.177 149.37 831.779C141.565 839.064 151.972 800.037 161.339 786.507C167.063 778.181 183.714 768.815 207.651 760.489C247.72 746.439 270.616 732.389 264.892 726.145C262.29 724.063 256.045 726.665 250.321 731.869C236.792 743.837 223.262 734.991 234.71 721.461C244.597 709.493 260.729 712.095 273.738 727.185ZM474.079 745.919C474.079 751.122 471.998 755.285 468.876 755.285C461.07 755.285 452.224 734.47 455.867 725.104C458.989 717.298 460.03 717.298 466.794 726.145C470.957 731.869 474.079 740.715 474.079 745.919ZM518.311 753.204C518.311 759.448 514.668 763.091 508.424 763.091C501.139 763.091 498.537 758.928 497.496 745.919C495.935 729.267 496.455 729.267 507.383 736.032C513.107 740.195 518.311 748 518.311 753.204ZM177.47 753.204C177.47 758.928 159.777 770.376 150.411 770.896C138.442 770.896 132.718 760.489 141.565 754.765C149.89 749.561 177.47 748.52 177.47 753.204ZM567.746 778.702C567.746 790.15 547.972 788.068 541.727 776.62C532.361 758.407 535.483 754.765 552.135 763.091C560.981 767.774 567.746 774.539 567.746 778.702ZM637.475 758.407C647.362 762.05 648.403 776.1 639.036 776.1C631.751 776.1 619.782 765.693 619.782 759.448C619.782 754.244 626.547 754.244 637.475 758.407ZM286.747 763.611C286.747 772.978 274.258 786.507 265.932 786.507C251.882 786.507 252.923 774.018 267.493 766.733C281.023 760.489 286.747 759.448 286.747 763.611ZM685.869 780.783C691.073 788.068 693.154 788.068 698.878 781.824C704.602 775.58 704.082 775.059 695.236 778.181C689.512 780.263 686.91 780.263 688.991 777.661C697.317 769.855 736.345 761.009 743.63 765.172C749.874 768.815 748.834 771.417 737.906 778.702C730.1 783.385 720.734 786.507 716.05 784.946C711.887 782.865 707.204 783.385 706.163 785.987C704.602 788.068 706.163 790.15 709.806 790.15C713.449 790.15 720.734 792.231 725.937 794.833C732.182 796.915 734.784 796.915 732.702 793.792C731.141 791.191 734.263 788.589 739.987 788.589C749.874 788.589 749.874 789.109 741.548 795.353C731.141 803.159 695.756 799.516 678.584 788.589C662.973 778.702 658.81 779.222 667.136 790.15C673.901 797.955 673.38 797.955 663.493 792.752C655.167 788.589 653.086 783.385 654.647 774.018C657.249 762.05 658.81 761.53 668.697 766.733C674.421 769.855 682.227 776.1 685.869 780.783ZM383.015 787.028C380.934 792.752 381.974 796.915 385.097 796.915C388.219 796.915 390.821 793.792 390.821 789.629C390.821 784.946 394.463 783.385 401.228 784.946C409.554 787.028 411.635 792.231 411.635 809.403C411.635 820.852 413.196 843.748 414.758 859.359C416.839 874.97 416.319 886.418 414.237 884.336C412.156 882.255 408.513 859.879 406.432 834.901L402.789 789.109L401.748 828.657C401.228 860.92 399.147 869.766 390.821 877.572C379.373 887.979 377.811 898.907 385.617 911.395C389.78 917.64 392.382 918.16 400.708 912.957C410.595 906.712 411.635 907.753 415.798 923.364C418.921 935.853 418.4 943.658 412.156 953.025C404.871 964.993 404.871 965.514 412.156 959.79C416.839 956.147 422.563 955.106 424.645 957.188C427.246 959.269 427.246 957.708 424.645 954.066C421.522 948.342 423.083 947.821 431.93 953.025C444.939 959.79 440.776 970.717 426.726 967.075C421.002 965.514 418.4 966.554 419.961 969.677C422.043 973.319 417.359 973.84 405.911 971.238C396.024 969.156 386.658 964.993 385.097 961.871C383.015 959.269 378.852 958.749 375.73 960.31C364.802 967.075 360.639 958.229 366.363 942.618C370.526 931.169 371.047 925.445 366.884 922.844C363.762 920.762 359.599 915.558 358.037 911.395C355.956 907.233 355.436 912.957 356.997 924.405C358.558 935.853 357.517 948.862 354.395 953.025C350.752 958.749 349.191 955.627 349.191 940.016C349.191 928.568 346.589 915.558 343.988 911.395C339.825 905.151 338.263 905.671 335.662 915.558C333.06 924.405 330.978 925.966 327.856 921.282C320.571 908.794 317.969 919.201 325.254 933.251C336.702 955.106 326.295 959.269 314.327 937.414C303.919 918.16 303.919 916.599 312.765 913.997C317.969 912.436 323.693 907.753 325.254 903.59C326.815 898.907 334.621 895.784 343.467 895.784C360.119 895.784 380.413 878.612 380.413 865.083C379.893 858.318 378.332 858.838 372.608 866.644C365.323 876.531 364.802 876.531 364.802 863.001C364.802 853.114 366.884 849.992 372.608 852.074C384.576 856.757 396.024 844.268 396.024 825.535C396.024 804.2 392.902 801.598 376.771 808.883C368.965 812.005 362.721 820.331 360.639 830.218L357.517 846.35L354.395 828.137C351.793 813.566 353.875 807.322 364.282 795.353C371.567 787.548 375.21 781.304 373.128 781.304C371.047 781.304 371.047 778.702 372.608 776.1C377.811 767.254 386.137 776.1 383.015 787.028ZM226.905 786.507C217.018 797.435 203.488 800.557 203.488 791.711C203.488 785.987 219.099 776.62 228.986 776.1C234.71 776.1 234.19 778.702 226.905 786.507ZM609.375 794.313C609.375 798.476 607.294 802.118 605.212 802.118C598.447 802.118 588.56 790.15 588.56 782.865C588.56 777.141 591.162 777.141 598.968 781.304C604.692 784.426 609.375 790.15 609.375 794.313ZM432.45 802.118C432.45 817.729 425.685 822.933 419.441 812.526C415.278 805.761 421.522 786.507 427.767 786.507C430.369 786.507 432.45 793.272 432.45 802.118ZM229.507 820.331C220.14 830.218 215.977 831.779 210.253 827.616C200.366 819.29 211.294 807.322 228.466 807.322H241.475L229.507 820.331ZM385.617 831.259C385.617 843.748 383.535 848.951 379.373 847.911C370.006 844.788 367.924 829.177 375.21 820.331C384.576 809.403 385.617 810.444 385.617 831.259ZM349.191 830.218C349.191 842.707 340.865 852.594 335.141 846.87C330.978 842.707 338.263 817.729 343.988 817.729C347.11 817.729 349.191 823.453 349.191 830.218ZM507.383 872.888C512.587 886.938 511.026 902.029 504.261 899.947C496.455 897.346 491.772 864.562 499.057 864.562C502.179 864.562 505.822 868.205 507.383 872.888ZM579.714 893.703C581.275 903.59 580.234 906.192 573.47 905.151C568.266 904.11 564.623 896.825 563.583 885.897C562.022 870.286 563.062 868.725 569.307 873.929C573.47 877.572 578.153 886.418 579.714 893.703ZM403.309 892.662C399.667 908.273 390.821 910.875 390.821 896.825C390.821 887.459 401.228 873.409 404.871 877.051C405.911 878.092 405.391 884.857 403.309 892.662ZM323.173 895.264C323.173 902.549 308.603 912.436 302.358 908.794C299.756 907.233 297.154 907.753 297.154 910.875C297.154 913.997 293.512 915.038 289.349 913.477C283.625 910.875 285.706 907.753 298.195 900.988C318.49 890.06 323.173 889.02 323.173 895.264Z" fill="#E4542F"/>
<path d="M447.02 328.064C438.694 339.512 432.45 351.48 432.45 355.643C432.45 359.286 437.133 355.123 442.337 346.277C453.264 328.584 463.672 319.738 463.672 328.064C463.672 330.666 461.59 334.308 458.988 335.869C453.264 339.512 447.54 359.806 452.224 359.806C454.305 359.806 460.029 350.44 464.712 338.991C469.396 327.543 470.957 319.738 467.835 321.299C464.192 323.901 463.151 321.819 465.233 316.616C470.957 301.005 461.59 307.249 447.02 328.064Z" fill="#E4542F"/>
<path d="M384.056 416.005C378.852 421.209 375.21 430.055 375.73 435.779C375.73 445.146 376.25 445.146 379.893 436.3C383.015 427.453 384.056 427.974 389.78 440.463C393.423 447.748 394.984 457.114 392.902 460.236C391.341 463.879 394.984 460.757 400.708 453.472C413.197 438.381 413.197 437.861 406.432 420.168C400.708 404.037 395.504 403.516 384.056 416.005Z" fill="#E4542F"/>
<path d="M338.784 421.73C338.784 427.454 342.426 435.259 346.589 439.422C350.752 443.585 352.834 448.269 351.273 449.83C349.711 451.391 352.834 451.391 359.078 449.83C372.608 446.187 374.689 419.648 361.68 414.965C347.11 409.241 338.784 411.843 338.784 421.73ZM363.761 431.617C365.843 445.667 356.476 446.707 349.191 433.178C341.906 419.128 342.426 416.006 353.354 418.087C358.037 419.128 362.721 424.852 363.761 431.617Z" fill="#E4542F"/>
<path d="M532.361 325.982C531.841 334.308 534.963 350.96 539.126 362.408C543.289 373.856 546.931 388.946 546.931 396.232C546.931 406.639 547.972 407.68 552.135 401.435C556.298 395.191 557.339 395.711 557.339 405.078C557.339 411.322 555.257 422.25 552.135 429.535C545.37 448.268 549.533 446.707 559.42 427.454C566.185 413.404 566.185 409.241 559.42 393.63C549.533 369.172 550.574 364.489 562.022 383.222C573.47 400.915 583.357 446.187 572.95 432.657C568.266 426.413 567.746 427.454 570.868 437.861C573.47 445.146 574.511 456.594 574.511 463.879C573.99 475.327 574.511 475.327 579.194 467.002C582.316 461.798 583.357 442.544 582.316 424.852C580.235 399.874 576.592 389.467 567.226 380.1C560.461 373.335 552.655 368.132 550.053 369.172C547.452 370.213 546.931 367.091 548.492 362.408C550.574 358.245 549.533 349.398 546.931 343.154C543.809 335.349 542.248 333.787 541.207 338.991C540.687 343.154 538.605 338.471 536.524 328.584C532.881 310.891 532.881 310.891 532.361 325.982Z" fill="#E4542F"/>
<path d="M515.189 416.526C508.944 425.373 501.659 431.097 499.578 429.535C497.496 428.495 494.374 429.535 492.292 432.658C490.211 435.78 486.568 436.3 483.446 434.739C479.804 432.658 479.283 433.698 481.365 437.341C484.487 442.024 487.089 442.024 493.853 436.821C501.139 431.097 501.659 431.617 498.537 439.943C495.415 448.269 495.935 448.789 502.7 443.065C509.464 437.861 510.505 438.382 510.505 447.748C510.505 461.798 516.229 461.798 530.279 446.708C543.288 432.658 544.849 416.006 534.442 407.16C528.198 401.956 524.555 404.037 515.189 416.526ZM536.524 420.169C536.524 431.097 527.157 448.269 520.913 448.269C513.627 448.269 514.668 425.373 521.953 418.087C530.8 409.241 536.524 410.282 536.524 420.169Z" fill="#E4542F"/>
<path d="M534.442 459.716C529.759 465.961 526.116 477.929 526.116 486.255C526.116 499.264 527.677 500.305 537.564 497.183C547.971 494.06 548.492 494.581 542.247 501.866C538.605 506.549 532.881 509.151 529.238 507.07C526.116 505.508 525.075 505.508 527.157 508.11C529.238 510.192 528.718 515.916 525.596 520.599C522.473 525.282 530.799 516.957 544.849 502.907C558.379 488.336 567.745 481.572 565.664 487.296C563.062 494.06 563.582 496.142 567.225 492.499C569.827 489.377 570.868 479.49 568.266 469.083C564.103 446.707 546.931 441.503 534.442 459.716ZM560.46 464.399C564.623 471.164 543.808 493.54 538.605 488.336C533.921 483.653 544.849 458.675 551.614 458.675C554.216 458.675 558.379 461.277 560.46 464.399Z" fill="#E4542F"/>
<path d="M473.039 460.237C464.193 467.002 457.428 496.142 461.591 507.591C464.193 514.355 466.274 513.835 475.12 505.509C487.089 494.581 495.935 496.142 491.772 508.111C489.691 512.274 486.048 514.355 482.405 512.274C479.283 510.713 478.243 510.713 480.324 513.315C482.405 515.396 481.885 521.64 478.763 527.365C475.641 533.089 474.6 538.813 475.641 539.853C477.202 541.414 481.885 536.211 486.048 527.885C490.211 520.079 500.098 501.866 507.903 487.817C516.229 473.767 520.392 463.88 517.27 465.441C514.148 467.522 508.944 475.848 505.302 484.694C497.496 503.428 488.65 500.305 492.813 480.531C496.455 461.798 485.007 450.35 473.039 460.237ZM484.487 478.97C484.487 484.174 480.844 491.459 476.681 495.102C469.917 500.826 468.876 499.265 468.876 486.255C468.876 477.93 470.437 469.083 471.998 467.522C477.722 462.319 484.487 469.083 484.487 478.97Z" fill="#E4542F"/>
<path d="M490.211 533.609C483.446 541.414 487.089 578.36 494.374 578.36C503.74 578.36 521.433 552.342 519.872 540.894C517.79 526.844 499.577 522.161 490.211 533.609ZM510.505 544.016C510.505 550.781 506.863 559.107 502.7 562.749C495.935 568.473 494.894 566.912 494.894 553.903C494.894 545.577 496.455 536.731 498.537 535.17C505.301 527.885 510.505 532.048 510.505 544.016Z" fill="#E4542F"/>
<path d="M317.449 758.928C306.521 772.458 304.96 800.037 314.847 803.68C332.539 810.444 349.191 792.231 349.191 766.213C349.191 758.928 346.069 757.367 335.662 759.448C325.775 761.009 322.652 759.969 325.254 755.806C330.978 746.96 325.775 749.041 317.449 758.928ZM333.58 789.109C324.734 800.037 317.969 798.996 317.969 786.507C317.969 774.019 335.141 762.571 337.743 774.019C338.784 778.182 336.702 784.946 333.58 789.109Z" fill="#E4542F"/>
<path d="M291.43 830.739C270.095 842.187 266.453 864.562 284.666 871.848C300.797 878.092 317.969 857.798 317.969 833.34C317.969 821.372 310.164 820.331 291.43 830.739ZM304.96 847.39C300.797 864.042 291.951 871.848 284.666 864.562C282.064 861.961 283.625 854.675 288.829 846.87C300.277 828.657 309.643 829.177 304.96 847.39Z" fill="#E4542F"/>
<path d="M375.209 931.17C375.209 943.138 377.811 953.025 380.413 953.025C384.056 953.025 384.576 945.74 382.495 933.251C377.811 906.712 375.209 905.672 375.209 931.17Z" fill="#E4542F"/>
<path d="M404.87 920.242C402.789 921.803 401.228 929.609 401.228 936.894C401.228 947.821 400.187 948.862 396.024 942.618C391.861 936.373 390.821 936.894 390.821 946.26C390.821 974.881 407.472 958.229 408.513 928.047C409.554 915.038 409.554 915.038 404.87 920.242Z" fill="#E4542F"/>
<path d="M321.612 292.679C308.082 302.045 297.675 310.371 299.236 311.412C301.838 314.014 349.191 282.792 349.191 279.149C349.191 274.986 348.15 276.027 321.612 292.679Z" fill="#E4542F"/>
<path d="M678.064 342.633C697.317 363.448 721.254 392.588 731.662 407.679C741.549 422.77 749.874 432.657 749.874 429.535C749.874 420.168 700.96 359.285 671.299 331.185C647.362 308.809 648.403 310.37 678.064 342.633Z" fill="#E4542F"/>
<path d="M214.936 368.652C194.642 385.304 179.031 399.353 180.072 400.394C181.113 401.435 196.724 389.987 214.936 375.417C254.484 342.633 258.647 338.991 254.484 338.991C252.923 338.991 234.71 352.52 214.936 368.652Z" fill="#E4542F"/>
<path d="M698.358 383.222C698.358 385.824 706.684 397.793 716.571 409.241C726.978 420.689 732.702 425.372 729.58 419.648C721.774 404.557 698.358 376.978 698.358 383.222Z" fill="#E4542F"/>
<path d="M760.281 445.666C760.281 448.268 763.924 453.992 768.087 458.676C772.25 463.359 782.657 480.011 791.504 495.622C799.829 511.233 807.115 521.12 807.115 517.997C807.115 512.273 773.291 454.513 764.965 445.666C762.363 443.065 760.281 443.065 760.281 445.666Z" fill="#E4542F"/>
<path d="M76.5186 517.477C61.428 542.975 36.9707 605.939 36.9707 618.949C36.9707 623.632 43.7355 608.541 52.0614 585.125C59.8669 561.708 72.8761 532.047 80.6816 519.038C88.4871 506.029 93.6908 495.101 92.1297 495.101C90.5686 495.101 83.8038 504.988 76.5186 517.477Z" fill="#E4542F"/>
<path d="M788.901 532.568C790.463 539.332 793.585 549.74 795.146 555.984C796.707 562.749 799.829 567.953 802.431 567.953C804.513 567.953 802.951 557.545 798.268 544.536C790.463 521.12 781.616 510.712 788.901 532.568Z" fill="#E4542F"/>
<path d="M76.5187 558.066C65.0706 586.166 68.7132 589.808 81.202 562.749C86.4056 551.301 89.5279 540.373 87.9668 538.812C86.4056 537.771 81.202 546.097 76.5187 558.066Z" fill="#E4542F"/>
<path d="M820.124 547.138C821.685 554.423 828.97 582.003 835.735 609.062C843.02 635.601 848.744 668.384 849.265 681.913C849.785 694.923 851.866 711.574 853.948 718.86C856.55 726.665 857.59 717.819 855.509 695.443C852.907 654.854 837.816 586.686 825.328 554.944C821.165 543.496 818.563 539.853 820.124 547.138Z" fill="#E4542F"/>
<path d="M585.958 599.175C573.99 612.184 579.194 617.909 606.773 621.551C618.221 623.112 624.466 623.112 621.343 621.551C616.14 619.99 616.66 617.388 622.384 611.664C626.547 607.501 628.628 600.736 627.067 596.573C622.384 585.125 596.886 587.207 585.958 599.175ZM616.14 601.777C616.66 604.899 610.416 607.501 601.569 608.542C586.479 609.583 586.479 609.583 596.366 601.777C606.773 593.451 614.579 593.451 616.14 601.777Z" fill="#E4542F"/>
<path d="M49.98 610.103C47.8985 613.225 45.2967 629.877 44.2559 647.569L42.6948 679.832L46.8578 651.212C49.4596 635.601 53.1022 618.429 55.1836 613.225C59.3466 603.338 55.1836 600.736 49.98 610.103Z" fill="#E4542F"/>
<path d="M739.987 636.121C732.702 647.049 724.896 654.334 722.295 652.773C719.172 651.212 718.652 652.253 720.734 655.375C725.417 663.181 705.122 673.588 692.634 669.425C684.308 666.823 683.267 664.742 688.991 656.416C703.041 633.52 671.299 629.357 645.28 650.692L633.312 660.058L644.76 666.303C651.004 669.425 667.136 674.629 680.665 676.71C701.48 680.873 707.724 679.832 719.693 670.986C732.702 662.14 758.72 621.551 754.037 617.388C752.996 616.347 746.752 624.673 739.987 636.121ZM685.869 649.651C688.471 657.456 670.778 662.66 658.81 658.497C651.004 655.375 651.004 654.334 661.932 648.09C675.462 640.284 683.267 640.805 685.869 649.651Z" fill="#E4542F"/>
<path d="M837.296 674.628C838.857 694.402 841.98 716.778 844.061 724.063C846.143 731.349 846.663 720.421 845.102 700.647C843.541 680.353 839.898 658.497 837.817 651.212C835.735 643.927 835.215 654.334 837.296 674.628Z" fill="#E4542F"/>
<path d="M724.376 675.149C712.928 682.954 703.041 686.597 696.276 684.515C689.512 682.434 687.43 683.474 689.512 687.117C692.113 690.76 685.869 692.841 670.778 692.841C654.647 692.841 650.484 691.28 656.208 687.637C660.891 684.515 661.412 682.434 657.769 682.434C647.882 682.434 643.719 693.361 651.525 698.565C655.688 701.167 662.973 701.687 668.697 700.126C674.421 698.045 677.023 699.086 674.941 702.208C673.38 705.33 680.665 708.972 693.154 711.054C710.326 714.176 716.05 712.615 725.937 703.769C739.987 690.76 748.833 689.199 738.947 701.687C732.182 710.013 732.702 710.534 740.508 703.769C745.711 700.126 748.833 694.923 747.272 692.841C745.711 690.239 747.272 686.597 750.395 684.515C754.558 682.434 755.078 682.954 752.996 686.597C750.915 690.239 751.956 692.841 755.078 692.841C768.087 692.841 748.833 713.135 730.621 718.859C703.562 727.706 695.236 736.552 718.652 731.869C736.345 728.226 770.689 701.167 770.689 690.76C770.689 688.158 769.128 687.637 767.046 689.199C765.485 691.28 760.802 688.678 757.159 683.474C751.435 675.149 750.395 675.149 740.508 684.515C734.263 689.719 727.498 692.321 724.376 690.239C720.734 688.678 724.376 681.913 733.222 674.628C750.915 658.497 747.272 659.017 724.376 675.149ZM723.856 697.524C723.856 704.81 704.602 709.493 692.113 705.85C683.267 702.728 682.226 701.167 687.95 697.524C697.837 691.28 723.856 691.8 723.856 697.524Z" fill="#E4542F"/>
<path d="M28.1244 729.267C28.1244 760.489 29.6855 772.978 31.7669 763.091C33.8484 754.245 35.9299 750.602 36.4503 754.765C36.4503 758.928 38.0114 761.009 39.0521 759.969C40.0928 758.928 38.0114 740.195 34.3688 718.86L27.604 679.832L28.1244 729.267Z" fill="#E4542F"/>
<path d="M664.534 714.176C666.095 716.778 661.412 718.859 654.127 718.859C646.842 718.859 640.597 721.461 640.597 724.063C640.597 733.43 665.575 755.285 675.982 755.285C701.48 755.285 702.001 724.583 676.503 715.217C668.177 712.095 662.453 711.574 664.534 714.176ZM681.706 728.746C685.869 731.348 687.43 737.072 685.869 741.756C682.747 749.561 681.186 749.561 666.616 742.276C658.29 738.113 651.005 731.869 651.005 729.267C651.005 723.022 671.819 722.502 681.706 728.746Z" fill="#E4542F"/>
<path d="M47.8984 769.335C47.378 783.385 62.4687 822.933 68.1927 822.933C70.7946 822.933 68.7131 815.648 64.5501 806.281C59.8668 797.435 54.1428 782.865 52.0613 774.019C49.4595 761.53 48.4187 760.489 47.8984 769.335Z" fill="#E4542F"/>
<path d="M453.265 785.987C453.265 805.241 468.355 824.494 480.324 820.331C498.537 813.046 492.813 779.743 471.998 774.019C454.305 769.335 453.265 769.856 453.265 785.987ZM478.242 787.548C487.609 796.915 486.048 812.005 475.64 810.444C465.233 808.883 455.866 781.304 465.753 781.304C469.396 781.304 474.6 783.906 478.242 787.548Z" fill="#E4542F"/>
<path d="M820.124 796.915C818.043 809.924 814.4 824.494 811.278 829.177C808.676 834.901 808.676 838.544 811.798 838.544C817.522 838.544 830.011 789.629 826.368 780.263C825.328 776.62 822.726 783.905 820.124 796.915Z" fill="#E4542F"/>
<path d="M829.49 826.576C823.766 843.227 817.002 861.44 815.441 867.164C812.839 873.929 814.4 873.409 819.604 864.562C828.45 850.512 844.581 801.598 841.459 798.476C840.939 797.435 835.215 810.444 829.49 826.576Z" fill="#E4542F"/>
<path d="M625.507 818.77C634.353 849.472 657.249 863.522 671.819 846.349C677.543 839.585 674.421 813.566 668.177 819.29C666.616 820.851 655.688 817.729 643.199 812.526L620.823 802.639L625.507 818.77ZM660.371 829.177C669.738 838.544 668.177 843.748 656.208 843.748C651.005 843.748 643.719 839.064 640.597 833.34C635.914 824.494 636.434 822.933 644.76 822.933C649.964 822.933 656.729 825.535 660.371 829.177Z" fill="#E4542F"/>
<path d="M510.505 812.526C510.505 815.648 514.147 826.055 517.79 835.942C526.116 855.196 544.329 861.44 550.053 846.35C552.134 842.187 555.256 839.585 557.338 841.146C559.94 842.707 560.46 839.065 558.899 833.341C554.216 816.168 510.505 797.956 510.505 812.526ZM545.89 838.024C546.931 843.748 545.37 848.952 542.247 848.952C535.483 848.952 520.912 828.137 520.912 818.77C520.912 806.802 543.808 824.494 545.89 838.024Z" fill="#E4542F"/>
<path d="M591.162 829.698C584.917 854.676 614.578 884.857 622.904 861.961C624.986 857.798 628.628 855.716 632.271 857.798C635.393 859.879 632.271 854.155 624.986 845.309C617.701 836.463 610.415 830.218 608.334 831.779C606.253 832.82 602.61 829.698 599.488 824.494C595.325 816.168 594.284 817.209 591.162 829.698ZM611.977 843.748C618.221 850.513 619.782 856.237 616.66 859.359C610.415 865.603 601.049 859.359 596.886 844.789C592.203 830.739 599.488 829.698 611.977 843.748Z" fill="#E4542F"/>
<path d="M53.1023 843.748C62.9893 865.083 79.1206 885.897 83.804 882.775C85.8854 881.214 90.5687 883.816 94.7317 888.499C98.3742 892.662 106.18 898.907 111.904 902.029C118.669 905.151 115.546 899.947 103.578 887.458C93.1706 876.01 80.6817 859.879 75.9984 851.553L67.1522 835.942L70.2744 851.553C73.917 868.205 72.3559 867.164 53.6226 840.105C48.419 832.299 47.8986 832.82 53.1023 843.748Z" fill="#E4542F"/>
<path d="M444.939 847.911C426.726 859.879 436.093 898.907 456.387 894.744C468.876 892.662 471.478 878.612 463.672 858.838C456.907 843.227 454.306 841.666 444.939 847.911ZM458.468 872.888C458.468 886.418 449.622 890.06 444.939 877.572C440.776 867.164 446.5 852.594 453.265 856.757C455.867 858.318 458.468 865.603 458.468 872.888Z" fill="#E4542F"/>
<path d="M474.08 873.409C474.08 901.509 468.355 919.201 463.152 910.355C460.03 905.672 458.469 906.192 458.469 913.997C458.469 924.925 471.998 947.821 478.242 947.821C480.324 947.821 484.487 941.057 487.609 933.251C492.292 921.803 491.772 918.16 486.568 918.16C482.926 918.16 481.365 921.803 483.446 926.486C485.007 931.17 484.487 933.251 481.885 931.17C479.804 929.088 478.242 910.875 478.763 890.581C479.283 870.807 478.763 854.155 477.202 854.155C475.12 854.155 474.08 863.001 474.08 873.409Z" fill="#E4542F"/>
<path d="M808.156 899.427C783.698 937.934 757.68 966.034 730.621 983.727C717.612 992.573 708.765 999.858 711.367 999.858C731.141 999.858 798.269 931.17 822.205 886.418C832.613 866.644 825.328 873.929 808.156 899.427Z" fill="#E4542F"/>
<path d="M531.32 889.54C531.32 893.183 534.442 902.549 538.605 910.355C542.247 918.16 544.849 928.047 544.329 932.73C543.288 937.934 548.492 944.179 556.818 947.821C569.827 954.066 569.827 954.586 559.94 958.749C541.727 966.034 535.483 964.473 539.125 953.025C541.207 946.26 539.645 941.577 534.442 939.495C529.759 937.934 526.116 933.771 526.116 931.169C526.116 928.047 530.279 929.088 535.483 932.73C543.288 938.975 542.768 938.455 534.962 928.568C529.238 922.323 526.636 914.518 529.238 910.875C531.84 906.712 530.799 905.671 526.636 908.273C522.994 910.875 521.433 916.079 523.514 920.242C525.596 927.006 525.075 927.527 518.831 922.323C505.822 911.395 505.301 924.925 518.31 937.414C528.197 946.78 529.759 950.943 525.596 956.667C517.79 966.034 531.84 971.238 551.094 966.034C558.899 963.432 579.714 962.391 597.927 962.391C631.751 963.432 651.525 956.667 667.656 938.975C672.339 933.771 680.145 926.486 684.308 922.844C688.991 919.201 692.634 913.477 692.634 910.355C692.634 907.232 682.226 915.038 669.217 928.568C656.728 942.097 644.239 953.025 642.158 953.025C639.556 953.025 623.425 949.382 605.212 945.219C586.999 941.056 569.827 938.975 566.705 940.536C563.582 942.617 562.542 941.577 564.103 938.975C566.184 935.853 564.103 931.69 559.94 930.129C555.257 928.568 546.931 917.119 541.727 905.151C536.003 892.662 531.32 885.897 531.32 889.54Z" fill="#E4542F"/>
<path d="M119.709 930.649C126.994 936.893 134.279 941.056 136.881 939.495C138.963 937.934 149.37 942.617 160.298 949.382C181.113 962.391 235.751 984.247 246.679 983.726C250.321 983.726 238.353 978.523 221.181 971.758C203.488 965.513 177.99 953.025 163.94 944.699C149.89 936.373 134.279 929.608 129.596 929.088C124.392 928.567 117.107 926.486 113.465 923.884C109.822 921.282 112.424 924.404 119.709 930.649Z" fill="#E4542F"/>
<path d="M742.069 953.025C739.988 956.147 729.58 963.432 717.612 969.156C706.164 974.88 698.358 981.125 699.919 982.686C703.562 986.329 749.875 959.269 749.875 953.025C749.875 946.26 746.232 946.26 742.069 953.025Z" fill="#E4542F"/>
<path d="M664.013 1007.66C655.688 1011.83 639.556 1014.95 629.149 1015.47C618.741 1015.47 608.854 1017.55 607.293 1020.15C603.13 1026.92 651.525 1020.67 668.176 1011.83C675.982 1008.18 682.226 1003.5 682.226 1002.46C682.226 999.337 683.267 998.817 664.013 1007.66Z" fill="#E4542F"/>
<path d="M666.616 1018.59C647.362 1024.84 617.181 1032.64 598.968 1035.24C571.909 1039.41 569.307 1040.45 585.438 1040.97C609.375 1041.49 682.747 1022.75 696.277 1012.35C708.245 1003.5 707.204 1003.5 666.616 1018.59Z" fill="#E4542F"/>
<path d="M886.731 548.179C888.292 553.383 887.772 557.546 885.17 557.546C882.048 557.546 879.966 554.944 879.966 551.301C879.966 548.179 878.405 546.618 876.844 548.7C875.283 550.261 875.803 555.464 878.405 559.627C882.568 566.912 884.649 566.912 892.455 561.188C901.301 554.944 901.301 553.903 892.455 546.618C884.129 540.374 883.609 540.374 886.731 548.179Z" fill="#E4542F"/>
<path d="M891.415 725.104C890.894 734.471 888.813 746.439 887.252 751.122C885.691 756.326 886.732 760.489 889.854 760.489C892.976 760.489 895.578 752.683 895.578 742.797C895.578 732.91 897.139 721.461 898.7 716.778C900.261 712.095 899.741 708.452 897.139 708.452C894.537 708.452 891.935 716.258 891.415 725.104Z" fill="#E4542F"/>
</svg>
